<svg width="60" height="60" viewBox="0 0 60 60" fill="none" xmlns="http://www.w3.org/2000/svg">
<rect width="60" height="60" rx="30" fill="#003040"/>
<path d="M40.625 18.3125H19.375C18.8114 18.3125 18.2709 18.5364 17.8724 18.9349C17.4739 19.3334 17.25 19.8739 17.25 20.4375V27.875C17.25 34.8769 20.6394 39.1202 23.4829 41.4471C26.5455 43.952 29.5923 44.802 29.7251 44.8378C29.9077 44.8875 30.1003 44.8875 30.2829 44.8378C30.4157 44.802 33.4584 43.952 36.5251 41.4471C39.3606 39.1202 42.75 34.8769 42.75 27.875V20.4375C42.75 19.8739 42.5261 19.3334 42.1276 18.9349C41.7291 18.5364 41.1886 18.3125 40.625 18.3125ZM40.625 27.875C40.625 32.7984 38.8108 36.7947 35.2328 39.7511C33.6753 41.0337 31.9039 42.0318 30 42.6995C28.121 42.0434 26.3715 41.063 24.8309 39.8029C21.2105 36.8412 19.375 32.8289 19.375 27.875V20.4375H40.625V27.875ZM23.9358 31.8142C23.7364 31.6149 23.6244 31.3444 23.6244 31.0625C23.6244 30.7806 23.7364 30.5101 23.9358 30.3108C24.1351 30.1114 24.4056 29.9994 24.6875 29.9994C24.9694 29.9994 25.2399 30.1114 25.4392 30.3108L27.875 32.7479L34.5608 26.0608C34.6595 25.9621 34.7767 25.8838 34.9057 25.8303C35.0347 25.7769 35.1729 25.7494 35.3125 25.7494C35.4521 25.7494 35.5903 25.7769 35.7193 25.8303C35.8483 25.8838 35.9655 25.9621 36.0642 26.0608C36.1629 26.1595 36.2412 26.2767 36.2947 26.4057C36.3481 26.5347 36.3756 26.6729 36.3756 26.8125C36.3756 26.9521 36.3481 27.0903 36.2947 27.2193C36.2412 27.3483 36.1629 27.4655 36.0642 27.5642L28.6267 35.0017C28.528 35.1005 28.4109 35.1789 28.2819 35.2323C28.1529 35.2858 28.0146 35.3133 27.875 35.3133C27.7354 35.3133 27.5971 35.2858 27.4681 35.2323C27.3391 35.1789 27.222 35.1005 27.1233 35.0017L23.9358 31.8142Z" fill="white"/>
</svg>
