<svg width="60" height="60" viewBox="0 0 60 60" fill="none" xmlns="http://www.w3.org/2000/svg">
<rect width="60" height="60" rx="30" fill="#003040"/>
<path d="M16.7188 30C16.437 30 16.1667 29.8881 15.9674 29.6888C15.7682 29.4895 15.6562 29.2193 15.6562 28.9375C15.6562 28.6557 15.7682 28.3855 15.9674 28.1862C16.1667 27.9869 16.437 27.875 16.7188 27.875H20.4375C20.7193 27.875 20.9895 27.7631 21.1888 27.5638C21.3881 27.3645 21.5 27.0943 21.5 26.8125C21.5 26.5307 21.3881 26.2605 21.1888 26.0612C20.9895 25.8619 20.7193 25.75 20.4375 25.75H18.3125C17.4671 25.75 16.6564 25.4142 16.0586 24.8164C15.4608 24.2186 15.125 23.4079 15.125 22.5625C15.125 21.7171 15.4608 20.9064 16.0586 20.3086C16.6564 19.7108 17.4671 19.375 18.3125 19.375C18.3125 19.0932 18.4244 18.823 18.6237 18.6237C18.823 18.4244 19.0932 18.3125 19.375 18.3125C19.6568 18.3125 19.927 18.4244 20.1263 18.6237C20.3256 18.823 20.4375 19.0932 20.4375 19.375H21.5C21.7818 19.375 22.052 19.4869 22.2513 19.6862C22.4506 19.8855 22.5625 20.1557 22.5625 20.4375C22.5625 20.7193 22.4506 20.9895 22.2513 21.1888C22.052 21.3881 21.7818 21.5 21.5 21.5H18.3125C18.0307 21.5 17.7605 21.6119 17.5612 21.8112C17.3619 22.0105 17.25 22.2807 17.25 22.5625C17.25 22.8443 17.3619 23.1145 17.5612 23.3138C17.7605 23.5131 18.0307 23.625 18.3125 23.625H20.4375C21.2829 23.625 22.0936 23.9608 22.6914 24.5586C23.2892 25.1564 23.625 25.9671 23.625 26.8125C23.625 27.6579 23.2892 28.4686 22.6914 29.0664C22.0936 29.6642 21.2829 30 20.4375 30C20.4375 30.2818 20.3256 30.552 20.1263 30.7513C19.927 30.9506 19.6568 31.0625 19.375 31.0625C19.0932 31.0625 18.823 30.9506 18.6237 30.7513C18.4244 30.552 18.3125 30.2818 18.3125 30H16.7188ZM43.8125 20.4375V38.5C43.8125 39.0636 43.5886 39.6041 43.1901 40.0026C42.7916 40.4011 42.2511 40.625 41.6875 40.625H18.3125C17.7489 40.625 17.2084 40.4011 16.8099 40.0026C16.4114 39.6041 16.1875 39.0636 16.1875 38.5V33.1875C16.1875 32.9057 16.2994 32.6355 16.4987 32.4362C16.698 32.2369 16.9682 32.125 17.25 32.125C17.5318 32.125 17.802 32.2369 18.0013 32.4362C18.2006 32.6355 18.3125 32.9057 18.3125 33.1875V38.5H34.25V34.25H23.625C23.3432 34.25 23.073 34.1381 22.8737 33.9388C22.6744 33.7395 22.5625 33.4693 22.5625 33.1875C22.5625 32.9057 22.6744 32.6355 22.8737 32.4362C23.073 32.2369 23.3432 32.125 23.625 32.125H34.25V27.875H26.8125C26.5307 27.875 26.2605 27.7631 26.0612 27.5638C25.8619 27.3645 25.75 27.0943 25.75 26.8125C25.75 26.5307 25.8619 26.2605 26.0612 26.0612C26.2605 25.8619 26.5307 25.75 26.8125 25.75H41.6875V21.5H25.75C25.4682 21.5 25.198 21.3881 24.9987 21.1888C24.7994 20.9895 24.6875 20.7193 24.6875 20.4375C24.6875 20.1557 24.7994 19.8855 24.9987 19.6862C25.198 19.4869 25.4682 19.375 25.75 19.375H42.75C43.0318 19.375 43.302 19.4869 43.5013 19.6862C43.7006 19.8855 43.8125 20.1557 43.8125 20.4375ZM36.375 32.125H41.6875V27.875H36.375V32.125ZM41.6875 38.5V34.25H36.375V38.5H41.6875Z" fill="white"/>
</svg>
