<svg width="60" height="60" viewBox="0 0 60 60" fill="none" xmlns="http://www.w3.org/2000/svg">
<rect width="60" height="60" rx="30" fill="#003040"/>
<path d="M43.8125 27.875H31.0625V24.6875H32.125C32.6886 24.6875 33.2291 24.4636 33.6276 24.0651C34.0261 23.6666 34.25 23.1261 34.25 22.5625V18.3125C34.25 17.7489 34.0261 17.2084 33.6276 16.8099C33.2291 16.4114 32.6886 16.1875 32.125 16.1875H27.875C27.3114 16.1875 26.7709 16.4114 26.3724 16.8099C25.9739 17.2084 25.75 17.7489 25.75 18.3125V22.5625C25.75 23.1261 25.9739 23.6666 26.3724 24.0651C26.7709 24.4636 27.3114 24.6875 27.875 24.6875H28.9375V27.875H16.1875C15.9057 27.875 15.6355 27.9869 15.4362 28.1862C15.2369 28.3855 15.125 28.6557 15.125 28.9375C15.125 29.2193 15.2369 29.4895 15.4362 29.6888C15.6355 29.8881 15.9057 30 16.1875 30H20.4375V34.25H19.375C18.8114 34.25 18.2709 34.4739 17.8724 34.8724C17.4739 35.2709 17.25 35.8114 17.25 36.375V40.625C17.25 41.1886 17.4739 41.7291 17.8724 42.1276C18.2709 42.5261 18.8114 42.75 19.375 42.75H23.625C24.1886 42.75 24.7291 42.5261 25.1276 42.1276C25.5261 41.7291 25.75 41.1886 25.75 40.625V36.375C25.75 35.8114 25.5261 35.2709 25.1276 34.8724C24.7291 34.4739 24.1886 34.25 23.625 34.25H22.5625V30H37.4375V34.25H36.375C35.8114 34.25 35.2709 34.4739 34.8724 34.8724C34.4739 35.2709 34.25 35.8114 34.25 36.375V40.625C34.25 41.1886 34.4739 41.7291 34.8724 42.1276C35.2709 42.5261 35.8114 42.75 36.375 42.75H40.625C41.1886 42.75 41.7291 42.5261 42.1276 42.1276C42.5261 41.7291 42.75 41.1886 42.75 40.625V36.375C42.75 35.8114 42.5261 35.2709 42.1276 34.8724C41.7291 34.4739 41.1886 34.25 40.625 34.25H39.5625V30H43.8125C44.0943 30 44.3645 29.8881 44.5638 29.6888C44.7631 29.4895 44.875 29.2193 44.875 28.9375C44.875 28.6557 44.7631 28.3855 44.5638 28.1862C44.3645 27.9869 44.0943 27.875 43.8125 27.875ZM27.875 18.3125H32.125V22.5625H27.875V18.3125ZM23.625 40.625H19.375V36.375H23.625V40.625ZM40.625 40.625H36.375V36.375H40.625V40.625Z" fill="white"/>
</svg>
