<svg width="60" height="60" viewBox="0 0 60 60" fill="none" xmlns="http://www.w3.org/2000/svg">
<rect width="60" height="60" rx="30" fill="#003040"/>
<path d="M43.6677 35.8436C43.8081 36.0872 43.8462 36.3764 43.7738 36.648C43.7013 36.9195 43.5242 37.1513 43.2812 37.2926L30.5312 44.7301C30.3688 44.8249 30.1841 44.8748 29.996 44.8748C29.8079 44.8748 29.6232 44.8249 29.4608 44.7301L16.7108 37.2926C16.4713 37.1487 16.2982 36.9163 16.2288 36.6457C16.1595 36.375 16.1995 36.088 16.3402 35.8466C16.481 35.6053 16.7111 35.4291 16.9808 35.3562C17.2505 35.2833 17.5381 35.3196 17.7812 35.4572L30 42.5826L42.2188 35.4572C42.4623 35.3168 42.7515 35.2787 43.0231 35.3511C43.2946 35.4236 43.5264 35.6007 43.6677 35.8436ZM42.2188 29.0822L30 36.2076L17.7812 29.0822C17.5393 28.9617 17.2606 28.938 17.0018 29.0158C16.743 29.0936 16.5235 29.2671 16.3881 29.501C16.2528 29.7349 16.2116 30.0116 16.273 30.2748C16.3344 30.5379 16.4938 30.7678 16.7188 30.9176L29.4688 38.3551C29.6312 38.4499 29.8159 38.4998 30.004 38.4998C30.1921 38.4998 30.3768 38.4499 30.5392 38.3551L43.2892 30.9176C43.4117 30.8483 43.5192 30.7554 43.6054 30.6443C43.6917 30.5331 43.755 30.4059 43.7917 30.2701C43.8284 30.1343 43.8378 29.9925 43.8193 29.853C43.8008 29.7135 43.7547 29.5791 43.6838 29.4576C43.6129 29.3361 43.5186 29.2298 43.4063 29.145C43.2941 29.0602 43.1661 28.9986 43.0298 28.9636C42.8935 28.9287 42.7516 28.9212 42.6124 28.9415C42.4731 28.9619 42.3394 29.0097 42.2188 29.0822ZM16.1875 23.6249C16.1879 23.4388 16.2372 23.2561 16.3305 23.095C16.4237 22.934 16.5576 22.8002 16.7188 22.7072L29.4688 15.2697C29.6312 15.1749 29.8159 15.125 30.004 15.125C30.1921 15.125 30.3768 15.1749 30.5392 15.2697L43.2892 22.7072C43.4496 22.8007 43.5827 22.9347 43.6752 23.0957C43.7676 23.2568 43.8163 23.4392 43.8163 23.6249C43.8163 23.8106 43.7676 23.993 43.6752 24.1541C43.5827 24.3151 43.4496 24.4491 43.2892 24.5426L30.5392 31.9801C30.3768 32.0749 30.1921 32.1248 30.004 32.1248C29.8159 32.1248 29.6312 32.0749 29.4688 31.9801L16.7188 24.5426C16.5576 24.4496 16.4237 24.3158 16.3305 24.1548C16.2372 23.9937 16.1879 23.811 16.1875 23.6249ZM19.3591 23.6249L30 29.8326L40.6409 23.6249L30 17.4172L19.3591 23.6249Z" fill="white"/>
</svg>
