<svg width="60" height="60" viewBox="0 0 60 60" fill="none" xmlns="http://www.w3.org/2000/svg">
<rect width="60" height="60" rx="30" fill="#003040"/>
<path d="M28.5725 33.9738C29.9965 33.0258 31.0776 31.6447 31.656 30.0347C32.2344 28.4247 32.2793 26.6713 31.784 25.0338C31.2888 23.3963 30.2798 21.9617 28.9061 20.942C27.5325 19.9224 25.8672 19.3718 24.1565 19.3718C22.4457 19.3718 20.7804 19.9224 19.4068 20.942C18.0332 21.9617 17.0241 23.3963 16.5289 25.0338C16.0337 26.6713 16.0786 28.4247 16.6569 30.0347C17.2353 31.6447 18.3164 33.0258 19.7405 33.9738C17.1645 34.9232 14.9647 36.68 13.469 38.9822C13.3904 39.099 13.3358 39.2303 13.3084 39.3684C13.281 39.5065 13.2813 39.6487 13.3093 39.7867C13.3373 39.9247 13.3925 40.0557 13.4716 40.1722C13.5507 40.2887 13.6522 40.3883 13.7701 40.4652C13.8881 40.5422 14.0201 40.5949 14.1586 40.6203C14.2971 40.6457 14.4393 40.6434 14.5769 40.6134C14.7144 40.5834 14.8447 40.5264 14.96 40.4456C15.0754 40.3649 15.1735 40.262 15.2487 40.143C16.2135 38.6591 17.5336 37.4398 19.0892 36.5958C20.6448 35.7517 22.3866 35.3096 24.1565 35.3096C25.9263 35.3096 27.6681 35.7517 29.2237 36.5958C30.7794 37.4398 32.0995 38.6591 33.0642 40.143C33.22 40.3746 33.4608 40.5355 33.7343 40.5911C34.0079 40.6466 34.2924 40.5923 34.5262 40.4398C34.76 40.2873 34.9244 40.0489 34.9839 39.7761C35.0433 39.5033 34.993 39.2181 34.8439 38.9822C33.3483 36.68 31.1484 34.9232 28.5725 33.9738ZM18.3127 27.3438C18.3127 26.188 18.6554 25.0582 19.2976 24.0972C19.9397 23.1362 20.8524 22.3872 21.9202 21.9449C22.988 21.5026 24.163 21.3869 25.2965 21.6123C26.4301 21.8378 27.4714 22.3944 28.2886 23.2117C29.1059 24.0289 29.6624 25.0702 29.8879 26.2038C30.1134 27.3373 29.9977 28.5123 29.5554 29.5801C29.1131 30.6479 28.3641 31.5606 27.4031 32.2027C26.4421 32.8448 25.3123 33.1876 24.1565 33.1876C22.6071 33.1858 21.1218 32.5696 20.0263 31.474C18.9307 30.3785 18.3145 28.8931 18.3127 27.3438ZM46.2219 40.4524C45.9859 40.6063 45.6985 40.6602 45.4227 40.6021C45.147 40.5441 44.9057 40.3789 44.7517 40.143C43.7881 38.6583 42.4682 37.4384 40.9123 36.5947C39.3563 35.751 37.6139 35.3102 35.844 35.3126C35.5622 35.3126 35.2919 35.2006 35.0927 35.0014C34.8934 34.8021 34.7815 34.5319 34.7815 34.2501C34.7815 33.9683 34.8934 33.698 35.0927 33.4988C35.2919 33.2995 35.5622 33.1876 35.844 33.1876C36.7046 33.1867 37.5543 32.9959 38.3326 32.6286C39.1109 32.2613 39.7984 31.7266 40.3461 31.0628C40.8938 30.399 41.2881 29.6224 41.5008 28.7885C41.7136 27.9546 41.7395 27.0841 41.5768 26.239C41.4141 25.3939 41.0668 24.5952 40.5596 23.9C40.0525 23.2047 39.398 22.63 38.643 22.217C37.888 21.804 37.0511 21.5629 36.1921 21.5108C35.3331 21.4587 34.4732 21.597 33.6738 21.9158C33.5435 21.9721 33.4032 22.0018 33.2612 22.003C33.1192 22.0042 32.9784 21.9769 32.8472 21.9227C32.7159 21.8686 32.5968 21.7887 32.4969 21.6878C32.3971 21.5869 32.3184 21.4669 32.2657 21.3351C32.213 21.2033 32.1872 21.0622 32.1899 20.9202C32.1926 20.7783 32.2237 20.6383 32.2815 20.5086C32.3392 20.3788 32.4223 20.262 32.526 20.1649C32.6296 20.0679 32.7517 19.9926 32.8849 19.9435C34.7143 19.2139 36.7492 19.1876 38.5968 19.8698C40.4445 20.552 41.9741 21.8942 42.8905 23.6376C43.8069 25.3809 44.0452 27.4019 43.5594 29.3107C43.0737 31.2194 41.8983 32.8806 40.26 33.9738C42.8359 34.9232 45.0358 36.68 46.5314 38.9822C46.6853 39.2182 46.7391 39.5057 46.6811 39.7814C46.6231 40.0571 46.4579 40.2985 46.2219 40.4524Z" fill="white"/>
</svg>
