<svg width="80" height="80" viewBox="0 0 80 80" fill="none" xmlns="http://www.w3.org/2000/svg">
<rect width="80" height="80" rx="40" fill="#003040"/>
<path d="M22.8125 40C22.4478 40 22.0981 39.8551 21.8402 39.5973C21.5824 39.3394 21.4375 38.9897 21.4375 38.625C21.4375 38.2603 21.5824 37.9106 21.8402 37.6527C22.0981 37.3949 22.4478 37.25 22.8125 37.25H27.625C27.9897 37.25 28.3394 37.1051 28.5973 36.8473C28.8551 36.5894 29 36.2397 29 35.875C29 35.5103 28.8551 35.1606 28.5973 34.9027C28.3394 34.6449 27.9897 34.5 27.625 34.5H24.875C23.781 34.5 22.7318 34.0654 21.9582 33.2918C21.1846 32.5182 20.75 31.469 20.75 30.375C20.75 29.281 21.1846 28.2318 21.9582 27.4582C22.7318 26.6846 23.781 26.25 24.875 26.25C24.875 25.8853 25.0199 25.5356 25.2777 25.2777C25.5356 25.0199 25.8853 24.875 26.25 24.875C26.6147 24.875 26.9644 25.0199 27.2223 25.2777C27.4801 25.5356 27.625 25.8853 27.625 26.25H29C29.3647 26.25 29.7144 26.3949 29.9723 26.6527C30.2301 26.9106 30.375 27.2603 30.375 27.625C30.375 27.9897 30.2301 28.3394 29.9723 28.5973C29.7144 28.8551 29.3647 29 29 29H24.875C24.5103 29 24.1606 29.1449 23.9027 29.4027C23.6449 29.6606 23.5 30.0103 23.5 30.375C23.5 30.7397 23.6449 31.0894 23.9027 31.3473C24.1606 31.6051 24.5103 31.75 24.875 31.75H27.625C28.719 31.75 29.7682 32.1846 30.5418 32.9582C31.3154 33.7318 31.75 34.781 31.75 35.875C31.75 36.969 31.3154 38.0182 30.5418 38.7918C29.7682 39.5654 28.719 40 27.625 40C27.625 40.3647 27.4801 40.7144 27.2223 40.9723C26.9644 41.2301 26.6147 41.375 26.25 41.375C25.8853 41.375 25.5356 41.2301 25.2777 40.9723C25.0199 40.7144 24.875 40.3647 24.875 40H22.8125ZM57.875 27.625V51C57.875 51.7293 57.5853 52.4288 57.0695 52.9445C56.5538 53.4603 55.8543 53.75 55.125 53.75H24.875C24.1457 53.75 23.4462 53.4603 22.9305 52.9445C22.4147 52.4288 22.125 51.7293 22.125 51V44.125C22.125 43.7603 22.2699 43.4106 22.5277 43.1527C22.7856 42.8949 23.1353 42.75 23.5 42.75C23.8647 42.75 24.2144 42.8949 24.4723 43.1527C24.7301 43.4106 24.875 43.7603 24.875 44.125V51H45.5V45.5H31.75C31.3853 45.5 31.0356 45.3551 30.7777 45.0973C30.5199 44.8394 30.375 44.4897 30.375 44.125C30.375 43.7603 30.5199 43.4106 30.7777 43.1527C31.0356 42.8949 31.3853 42.75 31.75 42.75H45.5V37.25H35.875C35.5103 37.25 35.1606 37.1051 34.9027 36.8473C34.6449 36.5894 34.5 36.2397 34.5 35.875C34.5 35.5103 34.6449 35.1606 34.9027 34.9027C35.1606 34.6449 35.5103 34.5 35.875 34.5H55.125V29H34.5C34.1353 29 33.7856 28.8551 33.5277 28.5973C33.2699 28.3394 33.125 27.9897 33.125 27.625C33.125 27.2603 33.2699 26.9106 33.5277 26.6527C33.7856 26.3949 34.1353 26.25 34.5 26.25H56.5C56.8647 26.25 57.2144 26.3949 57.4723 26.6527C57.7301 26.9106 57.875 27.2603 57.875 27.625ZM48.25 42.75H55.125V37.25H48.25V42.75ZM55.125 51V45.5H48.25V51H55.125Z" fill="white"/>
</svg>
