<svg width="80" height="80" viewBox="0 0 80 80" fill="none" xmlns="http://www.w3.org/2000/svg">
<rect width="80" height="80" rx="40" fill="#003040"/>
<path d="M46.875 44.1248C46.875 44.4894 46.7301 44.8392 46.4723 45.097C46.2144 45.3549 45.8647 45.4998 45.5 45.4998H34.5C34.1353 45.4998 33.7856 45.3549 33.5277 45.097C33.2699 44.8392 33.125 44.4894 33.125 44.1248C33.125 43.7601 33.2699 43.4103 33.5277 43.1525C33.7856 42.8946 34.1353 42.7498 34.5 42.7498H45.5C45.8647 42.7498 46.2144 42.8946 46.4723 43.1525C46.7301 43.4103 46.875 43.7601 46.875 44.1248ZM45.5 37.2498H34.5C34.1353 37.2498 33.7856 37.3946 33.5277 37.6525C33.2699 37.9103 33.125 38.2601 33.125 38.6248C33.125 38.9894 33.2699 39.3392 33.5277 39.597C33.7856 39.8549 34.1353 39.9998 34.5 39.9998H45.5C45.8647 39.9998 46.2144 39.8549 46.4723 39.597C46.7301 39.3392 46.875 38.9894 46.875 38.6248C46.875 38.2601 46.7301 37.9103 46.4723 37.6525C46.2144 37.3946 45.8647 37.2498 45.5 37.2498ZM55.125 26.2498V55.1248C55.125 55.8541 54.8353 56.5536 54.3195 57.0693C53.8038 57.585 53.1043 57.8748 52.375 57.8748H27.625C26.8957 57.8748 26.1962 57.585 25.6805 57.0693C25.1647 56.5536 24.875 55.8541 24.875 55.1248V26.2498C24.875 25.5204 25.1647 24.8209 25.6805 24.3052C26.1962 23.7895 26.8957 23.4998 27.625 23.4998H33.8572C34.6298 22.6347 35.5763 21.9427 36.6349 21.4688C37.6935 20.9949 38.8402 20.75 40 20.75C41.1598 20.75 42.3065 20.9949 43.3651 21.4688C44.4237 21.9427 45.3702 22.6347 46.1428 23.4998H52.375C53.1043 23.4998 53.8038 23.7895 54.3195 24.3052C54.8353 24.8209 55.125 25.5204 55.125 26.2498ZM34.5 28.9998H45.5C45.5 27.5411 44.9205 26.1421 43.8891 25.1107C42.8576 24.0792 41.4587 23.4998 40 23.4998C38.5413 23.4998 37.1424 24.0792 36.1109 25.1107C35.0795 26.1421 34.5 27.5411 34.5 28.9998ZM52.375 26.2498H47.7773C48.0901 27.1329 48.25 28.0629 48.25 28.9998V30.3748C48.25 30.7394 48.1051 31.0892 47.8473 31.347C47.5894 31.6049 47.2397 31.7498 46.875 31.7498H33.125C32.7603 31.7498 32.4106 31.6049 32.1527 31.347C31.8949 31.0892 31.75 30.7394 31.75 30.3748V28.9998C31.75 28.0629 31.9099 27.1329 32.2227 26.2498H27.625V55.1248H52.375V26.2498Z" fill="white"/>
</svg>
