<svg width="80" height="80" viewBox="0 0 80 80" fill="none" xmlns="http://www.w3.org/2000/svg">
<rect width="80" height="80" rx="40" fill="#003040"/>
<path d="M58.8486 29.402C58.7209 29.2741 58.5692 29.1727 58.4023 29.1035C58.2354 29.0343 58.0565 28.9987 57.8758 28.9987C57.6951 28.9987 57.5161 29.0343 57.3492 29.1035C57.1823 29.1727 57.0307 29.2741 56.903 29.402L51.0008 35.3059L44.6947 28.9998L50.5986 23.0976C50.8566 22.8396 51.0015 22.4897 51.0015 22.1248C51.0015 21.7599 50.8566 21.41 50.5986 21.152C50.3406 20.894 49.9906 20.749 49.6258 20.749C49.2609 20.749 48.911 20.894 48.653 21.152L42.7508 27.0559L38.2236 22.527C37.9656 22.269 37.6156 22.124 37.2508 22.124C36.8859 22.124 36.536 22.269 36.278 22.527C36.0199 22.785 35.875 23.1349 35.875 23.4998C35.875 23.8647 36.0199 24.2146 36.278 24.4726L37.3694 25.5623L28.26 34.6717C27.6215 35.3101 27.1151 36.068 26.7696 36.9021C26.4241 37.7363 26.2462 38.6303 26.2462 39.5331C26.2462 40.436 26.4241 41.33 26.7696 42.1642C27.1151 42.9983 27.6215 43.7562 28.26 44.3946L30.9601 47.0948L22.528 55.527C22.4002 55.6547 22.2989 55.8064 22.2297 55.9733C22.1606 56.1402 22.125 56.3191 22.125 56.4998C22.125 56.6805 22.1606 56.8594 22.2297 57.0263C22.2989 57.1932 22.4002 57.3449 22.528 57.4726C22.786 57.7306 23.1359 57.8756 23.5008 57.8756C23.6814 57.8756 23.8603 57.84 24.0272 57.7708C24.1942 57.7017 24.3458 57.6004 24.4736 57.4726L32.9109 49.0353L35.6111 51.7354C36.2495 52.3739 37.0074 52.8803 37.8415 53.2258C38.6757 53.5713 39.5697 53.7492 40.4726 53.7492C41.3754 53.7492 42.2695 53.5713 43.1036 53.2258C43.9377 52.8803 44.6956 52.3739 45.334 51.7354L54.4434 42.626L55.5331 43.7174C55.6609 43.8452 55.8125 43.9465 55.9794 44.0157C56.1464 44.0848 56.3253 44.1204 56.5059 44.1204C56.6866 44.1204 56.8655 44.0848 57.0324 44.0157C57.1993 43.9465 57.351 43.8452 57.4787 43.7174C57.6065 43.5897 57.7078 43.438 57.777 43.2711C57.8461 43.1042 57.8817 42.9253 57.8817 42.7446C57.8817 42.564 57.8461 42.3851 57.777 42.2182C57.7078 42.0512 57.6065 41.8996 57.4787 41.7718L52.9447 37.2498L58.8486 31.3476C58.9764 31.2199 59.0778 31.0683 59.147 30.9013C59.2162 30.7344 59.2518 30.5555 59.2518 30.3748C59.2518 30.1941 59.2162 30.0152 59.147 29.8482C59.0778 29.6813 58.9764 29.5297 58.8486 29.402ZM43.3901 49.7967C43.0071 50.1799 42.5522 50.484 42.0516 50.6914C41.551 50.8988 41.0144 51.0056 40.4726 51.0056C39.9307 51.0056 39.3941 50.8988 38.8935 50.6914C38.3929 50.484 37.9381 50.1799 37.555 49.7967L30.2039 42.4456C29.8206 42.0625 29.5166 41.6077 29.3091 41.1071C29.1017 40.6065 28.9949 40.0699 28.9949 39.528C28.9949 38.9861 29.1017 38.4495 29.3091 37.9489C29.5166 37.4483 29.8206 36.9935 30.2039 36.6104L39.3133 27.501L52.4944 40.6873L43.3901 49.7967Z" fill="white"/>
</svg>
