<svg width="80" height="80" viewBox="0 0 80 80" fill="none" xmlns="http://www.w3.org/2000/svg">
<rect width="80" height="80" rx="40" fill="#003040"/>
<path d="M38.1519 45.1423C39.9947 43.9154 41.3938 42.1281 42.1423 40.0446C42.8908 37.961 42.9489 35.692 42.308 33.5729C41.6671 31.4538 40.3613 29.5972 38.5837 28.2776C36.806 26.9581 34.6509 26.2456 32.437 26.2456C30.2232 26.2456 28.068 26.9581 26.2904 28.2776C24.5127 29.5972 23.2069 31.4538 22.5661 33.5729C21.9252 35.692 21.9833 37.961 22.7318 40.0446C23.4802 42.1281 24.8793 43.9154 26.7222 45.1423C23.3887 46.3709 20.5417 48.6445 18.6063 51.6237C18.5045 51.7749 18.4339 51.9448 18.3984 52.1235C18.3629 52.3023 18.3633 52.4863 18.3996 52.6648C18.4358 52.8434 18.5072 53.013 18.6096 53.1638C18.712 53.3145 18.8433 53.4434 18.9959 53.5429C19.1485 53.6425 19.3194 53.7107 19.4986 53.7436C19.6779 53.7766 19.8618 53.7735 20.0399 53.7347C20.2179 53.6959 20.3865 53.6221 20.5358 53.5176C20.685 53.4131 20.812 53.2799 20.9094 53.1259C22.1579 51.2057 23.8662 49.6277 25.8794 48.5354C27.8925 47.4431 30.1466 46.8709 32.437 46.8709C34.7274 46.8709 36.9816 47.4431 38.9947 48.5354C41.0078 49.6277 42.7162 51.2057 43.9647 53.1259C44.1664 53.4256 44.4779 53.6339 44.8319 53.7058C45.186 53.7777 45.5541 53.7074 45.8567 53.51C46.1593 53.3126 46.372 53.0041 46.449 52.6511C46.5259 52.2982 46.4608 51.9291 46.2678 51.6237C44.3323 48.6445 41.4854 46.3709 38.1519 45.1423ZM24.8745 36.5623C24.8745 35.0666 25.3181 33.6044 26.149 32.3608C26.98 31.1171 28.1611 30.1478 29.543 29.5755C30.9249 29.0031 32.4454 28.8533 33.9124 29.1451C35.3794 29.4369 36.7269 30.1572 37.7845 31.2148C38.8422 32.2724 39.5624 33.6199 39.8542 35.0869C40.146 36.5539 39.9963 38.0745 39.4239 39.4563C38.8515 40.8382 37.8822 42.0193 36.6385 42.8503C35.3949 43.6813 33.9328 44.1248 32.437 44.1248C30.432 44.1225 28.5098 43.325 27.0921 41.9073C25.6743 40.4895 24.8768 38.5673 24.8745 36.5623ZM60.9923 53.5264C60.6869 53.7255 60.3149 53.7952 59.9581 53.7201C59.6013 53.645 59.2889 53.4313 59.0897 53.1259C57.8427 51.2045 56.1345 49.6259 54.121 48.534C52.1074 47.4421 49.8526 46.8717 47.562 46.8748C47.1974 46.8748 46.8476 46.7299 46.5898 46.4721C46.3319 46.2142 46.187 45.8645 46.187 45.4998C46.187 45.1351 46.3319 44.7854 46.5898 44.5275C46.8476 44.2697 47.1974 44.1248 47.562 44.1248C48.6757 44.1237 49.7755 43.8767 50.7826 43.4014C51.7898 42.9261 52.6795 42.2341 53.3883 41.3751C54.0971 40.516 54.6073 39.511 54.8827 38.4319C55.158 37.3528 55.1916 36.2262 54.981 35.1325C54.7705 34.0389 54.321 33.0053 53.6646 32.1056C53.0083 31.2058 52.1614 30.4621 51.1843 29.9276C50.2073 29.3931 49.1242 29.081 48.0126 29.0137C46.9009 28.9463 45.7881 29.1252 44.7536 29.5378C44.5849 29.6107 44.4034 29.649 44.2196 29.6506C44.0359 29.6521 43.8537 29.6169 43.6838 29.5468C43.5139 29.4767 43.3598 29.3734 43.2306 29.2427C43.1013 29.1121 42.9996 28.9569 42.9313 28.7863C42.8631 28.6157 42.8297 28.4331 42.8332 28.2494C42.8368 28.0657 42.877 27.8845 42.9517 27.7167C43.0264 27.5488 43.134 27.3976 43.2682 27.272C43.4023 27.1464 43.5602 27.0489 43.7327 26.9854C46.1002 26.0412 48.7335 26.0072 51.1246 26.89C53.5156 27.7728 55.4951 29.5098 56.681 31.766C57.867 34.0221 58.1754 36.6375 57.5468 39.1076C56.9181 41.5777 55.397 43.7275 53.2769 45.1423C56.6104 46.3709 59.4573 48.6445 61.3928 51.6237C61.592 51.9291 61.6617 52.3011 61.5866 52.658C61.5115 53.0148 61.2977 53.3271 60.9923 53.5264Z" fill="white"/>
</svg>
