<svg width="80" height="80" viewBox="0 0 80 80" fill="none" xmlns="http://www.w3.org/2000/svg">
<rect width="80" height="80" rx="40" fill="#003040"/>
<path d="M40 22.125C30.748 22.125 23.5 26.3531 23.5 31.75V48.25C23.5 53.6469 30.748 57.875 40 57.875C49.252 57.875 56.5 53.6469 56.5 48.25V31.75C56.5 26.3531 49.252 22.125 40 22.125ZM53.75 40C53.75 41.6534 52.3956 43.3395 50.0358 44.6269C47.3786 46.0758 43.8139 46.875 40 46.875C36.1861 46.875 32.6214 46.0758 29.9642 44.6269C27.6044 43.3395 26.25 41.6534 26.25 40V37.14C29.1822 39.7181 34.1958 41.375 40 41.375C45.8042 41.375 50.8178 39.7113 53.75 37.14V40ZM29.9642 27.1231C32.6214 25.6742 36.1861 24.875 40 24.875C43.8139 24.875 47.3786 25.6742 50.0358 27.1231C52.3956 28.4105 53.75 30.0966 53.75 31.75C53.75 33.4034 52.3956 35.0895 50.0358 36.3769C47.3786 37.8258 43.8139 38.625 40 38.625C36.1861 38.625 32.6214 37.8258 29.9642 36.3769C27.6044 35.0895 26.25 33.4034 26.25 31.75C26.25 30.0966 27.6044 28.4105 29.9642 27.1231ZM50.0358 52.8769C47.3786 54.3258 43.8139 55.125 40 55.125C36.1861 55.125 32.6214 54.3258 29.9642 52.8769C27.6044 51.5895 26.25 49.9034 26.25 48.25V45.39C29.1822 47.9681 34.1958 49.625 40 49.625C45.8042 49.625 50.8178 47.9613 53.75 45.39V48.25C53.75 49.9034 52.3956 51.5895 50.0358 52.8769Z" fill="white"/>
</svg>
