<svg width="80" height="80" viewBox="0 0 80 80" fill="none" xmlns="http://www.w3.org/2000/svg">
<rect width="80" height="80" rx="40" fill="#003040"/>
<path d="M37.9375 48.25C37.9375 48.6147 37.7926 48.9644 37.5348 49.2223C37.2769 49.4801 36.9272 49.625 36.5625 49.625H31.75C31.3853 49.625 31.0356 49.4801 30.7777 49.2223C30.5199 48.9644 30.375 48.6147 30.375 48.25C30.375 47.8853 30.5199 47.5356 30.7777 47.2777C31.0356 47.0199 31.3853 46.875 31.75 46.875H36.5625C36.9272 46.875 37.2769 47.0199 37.5348 47.2777C37.7926 47.5356 37.9375 47.8853 37.9375 48.25ZM48.25 46.875H43.4375C43.0728 46.875 42.7231 47.0199 42.4652 47.2777C42.2074 47.5356 42.0625 47.8853 42.0625 48.25C42.0625 48.6147 42.2074 48.9644 42.4652 49.2223C42.7231 49.4801 43.0728 49.625 43.4375 49.625H48.25C48.6147 49.625 48.9644 49.4801 49.2223 49.2223C49.4801 48.9644 49.625 48.6147 49.625 48.25C49.625 47.8853 49.4801 47.5356 49.2223 47.2777C48.9644 47.0199 48.6147 46.875 48.25 46.875ZM59.25 55.125C59.25 55.4897 59.1051 55.8394 58.8473 56.0973C58.5894 56.3551 58.2397 56.5 57.875 56.5H22.125C21.7603 56.5 21.4106 56.3551 21.1527 56.0973C20.8949 55.8394 20.75 55.4897 20.75 55.125C20.75 54.7603 20.8949 54.4106 21.1527 54.1527C21.4106 53.8949 21.7603 53.75 22.125 53.75H23.5V33.125C23.5 32.8696 23.5711 32.6193 23.7054 32.4021C23.8396 32.1849 24.0317 32.0094 24.2601 31.8952C24.4885 31.781 24.7442 31.7326 24.9985 31.7556C25.2528 31.7785 25.4957 31.8718 25.7 32.025L34.5 38.625V33.125C34.5 32.8696 34.5711 32.6193 34.7054 32.4021C34.8396 32.1849 35.0317 32.0094 35.2601 31.8952C35.4885 31.781 35.7442 31.7326 35.9985 31.7556C36.2528 31.7785 36.4957 31.8718 36.7 32.025L43.3584 37.018L45.3453 23.1116C45.4415 22.4573 45.7691 21.8593 46.2687 21.426C46.7682 20.9927 47.4065 20.7528 48.0678 20.75H51.1822C51.8435 20.7528 52.4818 20.9927 52.9813 21.426C53.4809 21.8593 53.8085 22.4573 53.9047 23.1116L56.4828 41.1808C56.4828 41.1808 56.4966 41.3148 56.4966 41.375V53.75H57.8716C58.0524 53.7495 58.2316 53.7848 58.3988 53.8537C58.566 53.9226 58.718 54.0238 58.8461 54.1515C58.9741 54.2792 59.0757 54.431 59.145 54.598C59.2143 54.7651 59.25 54.9441 59.25 55.125ZM45.8678 38.9L47.3339 40H53.5403L51.1822 23.5H48.0678L45.8678 38.9ZM26.25 53.75H53.75V42.75H46.875C46.5775 42.75 46.288 42.6535 46.05 42.475L43.575 40.6188L37.25 35.875V41.375C37.25 41.6304 37.1789 41.8807 37.0446 42.0979C36.9104 42.3151 36.7183 42.4906 36.4899 42.6048C36.2615 42.719 36.0058 42.7674 35.7515 42.7444C35.4972 42.7215 35.2543 42.6282 35.05 42.475L26.25 35.875V53.75Z" fill="white"/>
</svg>
