<svg width="80" height="80" viewBox="0 0 80 80" fill="none" xmlns="http://www.w3.org/2000/svg">
<rect width="80" height="80" rx="40" fill="#003040"/>
<path d="M40 37.25C38.8443 37.2504 37.7274 37.6667 36.8533 38.4227C35.9792 39.1788 35.4064 40.2241 35.2395 41.3677C35.0727 42.5113 35.3229 43.6767 35.9445 44.651C36.5661 45.6253 37.5176 46.3433 38.625 46.6739V49.625C38.625 49.9897 38.7699 50.3394 39.0277 50.5973C39.2856 50.8551 39.6353 51 40 51C40.3647 51 40.7144 50.8551 40.9723 50.5973C41.2301 50.3394 41.375 49.9897 41.375 49.625V46.6739C42.4824 46.3433 43.4339 45.6253 44.0555 44.651C44.6771 43.6767 44.9273 42.5113 44.7605 41.3677C44.5936 40.2241 44.0208 39.1788 43.1467 38.4227C42.2726 37.6667 41.1557 37.2504 40 37.25ZM40 44.125C39.5921 44.125 39.1933 44.004 38.8541 43.7774C38.515 43.5508 38.2506 43.2287 38.0945 42.8518C37.9384 42.4749 37.8975 42.0602 37.9771 41.6601C38.0567 41.26 38.2531 40.8925 38.5416 40.6041C38.83 40.3156 39.1975 40.1192 39.5976 40.0396C39.9977 39.96 40.4124 40.0009 40.7893 40.157C41.1662 40.3131 41.4883 40.5775 41.7149 40.9166C41.9415 41.2558 42.0625 41.6546 42.0625 42.0625C42.0625 42.6095 41.8452 43.1341 41.4584 43.5209C41.0716 43.9077 40.547 44.125 40 44.125ZM53.75 31.75H48.25V27.625C48.25 25.437 47.3808 23.3385 45.8336 21.7914C44.2865 20.2442 42.188 19.375 40 19.375C37.812 19.375 35.7135 20.2442 34.1664 21.7914C32.6192 23.3385 31.75 25.437 31.75 27.625V31.75H26.25C25.5207 31.75 24.8212 32.0397 24.3055 32.5555C23.7897 33.0712 23.5 33.7707 23.5 34.5V53.75C23.5 54.4793 23.7897 55.1788 24.3055 55.6945C24.8212 56.2103 25.5207 56.5 26.25 56.5H53.75C54.4793 56.5 55.1788 56.2103 55.6945 55.6945C56.2103 55.1788 56.5 54.4793 56.5 53.75V34.5C56.5 33.7707 56.2103 33.0712 55.6945 32.5555C55.1788 32.0397 54.4793 31.75 53.75 31.75ZM34.5 27.625C34.5 26.1663 35.0795 24.7674 36.1109 23.7359C37.1424 22.7045 38.5413 22.125 40 22.125C41.4587 22.125 42.8576 22.7045 43.8891 23.7359C44.9205 24.7674 45.5 26.1663 45.5 27.625V31.75H34.5V27.625ZM53.75 53.75H26.25V34.5H53.75V53.75Z" fill="white"/>
</svg>
