<svg width="50" height="50" viewBox="0 0 50 50" fill="none" xmlns="http://www.w3.org/2000/svg">
<rect width="50" height="50" rx="25" fill="white"/>
<path d="M23.7109 30.1562C23.7109 30.3842 23.6204 30.6028 23.4592 30.7639C23.2981 30.9251 23.0795 31.0156 22.8516 31.0156H19.8438C19.6158 31.0156 19.3972 30.9251 19.2361 30.7639C19.0749 30.6028 18.9844 30.3842 18.9844 30.1562C18.9844 29.9283 19.0749 29.7097 19.2361 29.5486C19.3972 29.3874 19.6158 29.2969 19.8438 29.2969H22.8516C23.0795 29.2969 23.2981 29.3874 23.4592 29.5486C23.6204 29.7097 23.7109 29.9283 23.7109 30.1562ZM30.1562 29.2969H27.1484C26.9205 29.2969 26.7019 29.3874 26.5408 29.5486C26.3796 29.7097 26.2891 29.9283 26.2891 30.1562C26.2891 30.3842 26.3796 30.6028 26.5408 30.7639C26.7019 30.9251 26.9205 31.0156 27.1484 31.0156H30.1562C30.3842 31.0156 30.6028 30.9251 30.7639 30.7639C30.9251 30.6028 31.0156 30.3842 31.0156 30.1562C31.0156 29.9283 30.9251 29.7097 30.7639 29.5486C30.6028 29.3874 30.3842 29.2969 30.1562 29.2969ZM37.0312 34.4531C37.0312 34.681 36.9407 34.8996 36.7795 35.0608C36.6184 35.222 36.3998 35.3125 36.1719 35.3125H13.8281C13.6002 35.3125 13.3816 35.222 13.2205 35.0608C13.0593 34.8996 12.9688 34.681 12.9688 34.4531C12.9688 34.2252 13.0593 34.0066 13.2205 33.8455C13.3816 33.6843 13.6002 33.5938 13.8281 33.5938H14.6875V20.7031C14.6875 20.5435 14.7319 20.3871 14.8158 20.2513C14.8998 20.1156 15.0198 20.0059 15.1626 19.9345C15.3053 19.8631 15.4651 19.8329 15.6241 19.8472C15.783 19.8616 15.9348 19.9199 16.0625 20.0156L21.5625 24.1406V20.7031C21.5625 20.5435 21.6069 20.3871 21.6908 20.2513C21.7748 20.1156 21.8948 20.0059 22.0376 19.9345C22.1803 19.8631 22.3401 19.8329 22.4991 19.8472C22.658 19.8616 22.8098 19.9199 22.9375 20.0156L27.099 23.1362L28.3408 14.4447C28.401 14.0358 28.6057 13.662 28.9179 13.3912C29.2301 13.1204 29.6291 12.9705 30.0424 12.9688H31.9889C32.4022 12.9705 32.8011 13.1204 33.1133 13.3912C33.4255 13.662 33.6303 14.0358 33.6904 14.4447L35.3018 25.738C35.3018 25.738 35.3104 25.8218 35.3104 25.8594V33.5938H36.1697C36.2828 33.5935 36.3947 33.6155 36.4993 33.6585C36.6038 33.7016 36.6988 33.7649 36.7788 33.8447C36.8588 33.9245 36.9223 34.0194 36.9656 34.1238C37.009 34.2282 37.0312 34.3401 37.0312 34.4531ZM28.6674 24.3125L29.5837 25H33.4627L31.9889 14.6875H30.0424L28.6674 24.3125ZM16.4062 33.5938H33.5938V26.7188H29.2969C29.1109 26.7188 28.93 26.6584 28.7812 26.5469L27.2344 25.3867L23.2812 22.4219V25.8594C23.2812 26.019 23.2368 26.1754 23.1529 26.3112C23.069 26.4469 22.9489 26.5566 22.8062 26.628C22.6635 26.6994 22.5036 26.7296 22.3447 26.7153C22.1857 26.7009 22.0339 26.6426 21.9062 26.5469L16.4062 22.4219V33.5938Z" fill="#003040"/>
</svg>
