<svg width="50" height="50" viewBox="0 0 50 50" fill="none" xmlns="http://www.w3.org/2000/svg">
<rect width="50" height="50" rx="25" fill="#003040"/>
<path d="M29.375 27.625C29.375 27.857 29.2828 28.0796 29.1187 28.2437C28.9546 28.4078 28.7321 28.5 28.5 28.5H21.5C21.2679 28.5 21.0454 28.4078 20.8813 28.2437C20.7172 28.0796 20.625 27.857 20.625 27.625C20.625 27.3929 20.7172 27.1703 20.8813 27.0062C21.0454 26.8421 21.2679 26.75 21.5 26.75H28.5C28.7321 26.75 28.9546 26.8421 29.1187 27.0062C29.2828 27.1703 29.375 27.3929 29.375 27.625ZM28.5 23.25H21.5C21.2679 23.25 21.0454 23.3422 20.8813 23.5062C20.7172 23.6703 20.625 23.8929 20.625 24.125C20.625 24.357 20.7172 24.5796 20.8813 24.7437C21.0454 24.9078 21.2679 25 21.5 25H28.5C28.7321 25 28.9546 24.9078 29.1187 24.7437C29.2828 24.5796 29.375 24.357 29.375 24.125C29.375 23.8929 29.2828 23.6703 29.1187 23.5062C28.9546 23.3422 28.7321 23.25 28.5 23.25ZM34.625 16.25V34.625C34.625 35.0891 34.4406 35.5342 34.1124 35.8624C33.7842 36.1906 33.3391 36.375 32.875 36.375H17.125C16.6609 36.375 16.2158 36.1906 15.8876 35.8624C15.5594 35.5342 15.375 35.0891 15.375 34.625V16.25C15.375 15.7858 15.5594 15.3407 15.8876 15.0125C16.2158 14.6843 16.6609 14.5 17.125 14.5H21.0909C21.5826 13.9495 22.1849 13.5091 22.8586 13.2075C23.5322 12.906 24.2619 12.7501 25 12.7501C25.7381 12.7501 26.4678 12.906 27.1414 13.2075C27.8151 13.5091 28.4174 13.9495 28.9091 14.5H32.875C33.3391 14.5 33.7842 14.6843 34.1124 15.0125C34.4406 15.3407 34.625 15.7858 34.625 16.25ZM21.5 18H28.5C28.5 17.0717 28.1313 16.1815 27.4749 15.5251C26.8185 14.8687 25.9283 14.5 25 14.5C24.0717 14.5 23.1815 14.8687 22.5251 15.5251C21.8687 16.1815 21.5 17.0717 21.5 18ZM32.875 16.25H29.9492C30.1483 16.8119 30.25 17.4038 30.25 18V18.875C30.25 19.107 30.1578 19.3296 29.9937 19.4937C29.8296 19.6578 29.6071 19.75 29.375 19.75H20.625C20.3929 19.75 20.1704 19.6578 20.0063 19.4937C19.8422 19.3296 19.75 19.107 19.75 18.875V18C19.75 17.4038 19.8517 16.8119 20.0508 16.25H17.125V34.625H32.875V16.25Z" fill="white"/>
</svg>
