<svg width="50" height="50" viewBox="0 0 50 50" fill="none" xmlns="http://www.w3.org/2000/svg">
<rect width="50" height="50" rx="25" fill="#003040"/>
<path d="M33.75 15.375H16.25C15.7859 15.375 15.3408 15.5594 15.0126 15.8876C14.6844 16.2158 14.5 16.6609 14.5 17.125V23.25C14.5 29.0163 17.2912 32.5108 19.633 34.427C22.1552 36.4898 24.6642 37.1898 24.7736 37.2194C24.924 37.2603 25.0826 37.2603 25.233 37.2194C25.3423 37.1898 27.8481 36.4898 30.3736 34.427C32.7087 32.5108 35.5 29.0163 35.5 23.25V17.125C35.5 16.6609 35.3156 16.2158 34.9874 15.8876C34.6592 15.5594 34.2141 15.375 33.75 15.375ZM33.75 23.25C33.75 27.3045 32.2559 30.5956 29.3094 33.0303C28.0267 34.0866 26.5679 34.9085 25 35.4584C23.4526 34.9181 22.0118 34.1107 20.7431 33.073C17.7616 30.6339 16.25 27.3297 16.25 23.25V17.125H33.75V23.25ZM20.0059 26.4941C19.8418 26.3299 19.7495 26.1072 19.7495 25.875C19.7495 25.6428 19.8418 25.4201 20.0059 25.2559C20.1701 25.0918 20.3928 24.9995 20.625 24.9995C20.8572 24.9995 21.0799 25.0918 21.2441 25.2559L23.25 27.263L28.7559 21.7559C28.8372 21.6746 28.9337 21.6102 29.04 21.5662C29.1462 21.5222 29.26 21.4995 29.375 21.4995C29.49 21.4995 29.6038 21.5222 29.71 21.5662C29.8163 21.6102 29.9128 21.6746 29.9941 21.7559C30.0754 21.8372 30.1398 21.9337 30.1838 22.04C30.2278 22.1462 30.2505 22.26 30.2505 22.375C30.2505 22.49 30.2278 22.6038 30.1838 22.71C30.1398 22.8163 30.0754 22.9128 29.9941 22.9941L23.8691 29.1191C23.7878 29.2004 23.6913 29.265 23.5851 29.309C23.4788 29.353 23.365 29.3757 23.25 29.3757C23.135 29.3757 23.0212 29.353 22.9149 29.309C22.8087 29.265 22.7122 29.2004 22.6309 29.1191L20.0059 26.4941Z" fill="white"/>
</svg>
