<svg width="50" height="50" viewBox="0 0 50 50" fill="none" xmlns="http://www.w3.org/2000/svg">
<rect width="50" height="50" rx="25" fill="#003040"/>
<path d="M36.375 23.25H25.875V20.625H26.75C27.2141 20.625 27.6592 20.4406 27.9874 20.1124C28.3156 19.7842 28.5 19.3391 28.5 18.875V15.375C28.5 14.9109 28.3156 14.4658 27.9874 14.1376C27.6592 13.8094 27.2141 13.625 26.75 13.625H23.25C22.7859 13.625 22.3408 13.8094 22.0126 14.1376C21.6844 14.4658 21.5 14.9109 21.5 15.375V18.875C21.5 19.3391 21.6844 19.7842 22.0126 20.1124C22.3408 20.4406 22.7859 20.625 23.25 20.625H24.125V23.25H13.625C13.3929 23.25 13.1704 23.3422 13.0063 23.5063C12.8422 23.6704 12.75 23.8929 12.75 24.125C12.75 24.3571 12.8422 24.5796 13.0063 24.7437C13.1704 24.9078 13.3929 25 13.625 25H17.125V28.5H16.25C15.7859 28.5 15.3408 28.6844 15.0126 29.0126C14.6844 29.3408 14.5 29.7859 14.5 30.25V33.75C14.5 34.2141 14.6844 34.6592 15.0126 34.9874C15.3408 35.3156 15.7859 35.5 16.25 35.5H19.75C20.2141 35.5 20.6592 35.3156 20.9874 34.9874C21.3156 34.6592 21.5 34.2141 21.5 33.75V30.25C21.5 29.7859 21.3156 29.3408 20.9874 29.0126C20.6592 28.6844 20.2141 28.5 19.75 28.5H18.875V25H31.125V28.5H30.25C29.7859 28.5 29.3408 28.6844 29.0126 29.0126C28.6844 29.3408 28.5 29.7859 28.5 30.25V33.75C28.5 34.2141 28.6844 34.6592 29.0126 34.9874C29.3408 35.3156 29.7859 35.5 30.25 35.5H33.75C34.2141 35.5 34.6592 35.3156 34.9874 34.9874C35.3156 34.6592 35.5 34.2141 35.5 33.75V30.25C35.5 29.7859 35.3156 29.3408 34.9874 29.0126C34.6592 28.6844 34.2141 28.5 33.75 28.5H32.875V25H36.375C36.6071 25 36.8296 24.9078 36.9937 24.7437C37.1578 24.5796 37.25 24.3571 37.25 24.125C37.25 23.8929 37.1578 23.6704 36.9937 23.5063C36.8296 23.3422 36.6071 23.25 36.375 23.25ZM23.25 15.375H26.75V18.875H23.25V15.375ZM19.75 33.75H16.25V30.25H19.75V33.75ZM33.75 33.75H30.25V30.25H33.75V33.75Z" fill="white"/>
</svg>
