<svg width="50" height="50" viewBox="0 0 50 50" fill="none" xmlns="http://www.w3.org/2000/svg">
<rect width="50" height="50" rx="25" fill="#003040"/>
<path d="M25 13.625C19.1123 13.625 14.5 16.3156 14.5 19.75V30.25C14.5 33.6844 19.1123 36.375 25 36.375C30.8877 36.375 35.5 33.6844 35.5 30.25V19.75C35.5 16.3156 30.8877 13.625 25 13.625ZM33.75 25C33.75 26.0522 32.8881 27.1252 31.3864 27.9444C29.6955 28.8664 27.427 29.375 25 29.375C22.573 29.375 20.3045 28.8664 18.6136 27.9444C17.1119 27.1252 16.25 26.0522 16.25 25V23.18C18.1159 24.8206 21.3064 25.875 25 25.875C28.6936 25.875 31.8841 24.8162 33.75 23.18V25ZM18.6136 16.8056C20.3045 15.8836 22.573 15.375 25 15.375C27.427 15.375 29.6955 15.8836 31.3864 16.8056C32.8881 17.6248 33.75 18.6978 33.75 19.75C33.75 20.8022 32.8881 21.8752 31.3864 22.6944C29.6955 23.6164 27.427 24.125 25 24.125C22.573 24.125 20.3045 23.6164 18.6136 22.6944C17.1119 21.8752 16.25 20.8022 16.25 19.75C16.25 18.6978 17.1119 17.6248 18.6136 16.8056ZM31.3864 33.1944C29.6955 34.1164 27.427 34.625 25 34.625C22.573 34.625 20.3045 34.1164 18.6136 33.1944C17.1119 32.3752 16.25 31.3022 16.25 30.25V28.43C18.1159 30.0706 21.3064 31.125 25 31.125C28.6936 31.125 31.8841 30.0662 33.75 28.43V30.25C33.75 31.3022 32.8881 32.3752 31.3864 33.1944Z" fill="white"/>
</svg>
