<svg width="50" height="50" viewBox="0 0 50 50" fill="none" xmlns="http://www.w3.org/2000/svg">
<rect width="50" height="50" rx="25" fill="#003040"/>
<path d="M14.0625 25C13.8304 25 13.6079 24.9078 13.4438 24.7437C13.2797 24.5796 13.1875 24.3571 13.1875 24.125C13.1875 23.8929 13.2797 23.6704 13.4438 23.5063C13.6079 23.3422 13.8304 23.25 14.0625 23.25H17.125C17.3571 23.25 17.5796 23.1578 17.7437 22.9937C17.9078 22.8296 18 22.6071 18 22.375C18 22.1429 17.9078 21.9204 17.7437 21.7563C17.5796 21.5922 17.3571 21.5 17.125 21.5H15.375C14.6788 21.5 14.0111 21.2234 13.5188 20.7312C13.0266 20.2389 12.75 19.5712 12.75 18.875C12.75 18.1788 13.0266 17.5111 13.5188 17.0188C14.0111 16.5266 14.6788 16.25 15.375 16.25C15.375 16.0179 15.4672 15.7954 15.6313 15.6313C15.7954 15.4672 16.0179 15.375 16.25 15.375C16.4821 15.375 16.7046 15.4672 16.8687 15.6313C17.0328 15.7954 17.125 16.0179 17.125 16.25H18C18.2321 16.25 18.4546 16.3422 18.6187 16.5063C18.7828 16.6704 18.875 16.8929 18.875 17.125C18.875 17.3571 18.7828 17.5796 18.6187 17.7437C18.4546 17.9078 18.2321 18 18 18H15.375C15.1429 18 14.9204 18.0922 14.7563 18.2563C14.5922 18.4204 14.5 18.6429 14.5 18.875C14.5 19.1071 14.5922 19.3296 14.7563 19.4937C14.9204 19.6578 15.1429 19.75 15.375 19.75H17.125C17.8212 19.75 18.4889 20.0266 18.9812 20.5188C19.4734 21.0111 19.75 21.6788 19.75 22.375C19.75 23.0712 19.4734 23.7389 18.9812 24.2312C18.4889 24.7234 17.8212 25 17.125 25C17.125 25.2321 17.0328 25.4546 16.8687 25.6187C16.7046 25.7828 16.4821 25.875 16.25 25.875C16.0179 25.875 15.7954 25.7828 15.6313 25.6187C15.4672 25.4546 15.375 25.2321 15.375 25H14.0625ZM36.375 17.125V32C36.375 32.4641 36.1906 32.9092 35.8624 33.2374C35.5342 33.5656 35.0891 33.75 34.625 33.75H15.375C14.9109 33.75 14.4658 33.5656 14.1376 33.2374C13.8094 32.9092 13.625 32.4641 13.625 32V27.625C13.625 27.3929 13.7172 27.1704 13.8813 27.0063C14.0454 26.8422 14.2679 26.75 14.5 26.75C14.7321 26.75 14.9546 26.8422 15.1187 27.0063C15.2828 27.1704 15.375 27.3929 15.375 27.625V32H28.5V28.5H19.75C19.5179 28.5 19.2954 28.4078 19.1313 28.2437C18.9672 28.0796 18.875 27.8571 18.875 27.625C18.875 27.3929 18.9672 27.1704 19.1313 27.0063C19.2954 26.8422 19.5179 26.75 19.75 26.75H28.5V23.25H22.375C22.1429 23.25 21.9204 23.1578 21.7563 22.9937C21.5922 22.8296 21.5 22.6071 21.5 22.375C21.5 22.1429 21.5922 21.9204 21.7563 21.7563C21.9204 21.5922 22.1429 21.5 22.375 21.5H34.625V18H21.5C21.2679 18 21.0454 17.9078 20.8813 17.7437C20.7172 17.5796 20.625 17.3571 20.625 17.125C20.625 16.8929 20.7172 16.6704 20.8813 16.5063C21.0454 16.3422 21.2679 16.25 21.5 16.25H35.5C35.7321 16.25 35.9546 16.3422 36.1187 16.5063C36.2828 16.6704 36.375 16.8929 36.375 17.125ZM30.25 26.75H34.625V23.25H30.25V26.75ZM34.625 32V28.5H30.25V32H34.625Z" fill="white"/>
</svg>
