<svg width="50" height="50" viewBox="0 0 50 50" fill="none" xmlns="http://www.w3.org/2000/svg">
<rect width="50" height="50" rx="25" fill="#003040"/>
<path d="M23.824 28.2725C24.9967 27.4917 25.887 26.3543 26.3633 25.0285C26.8396 23.7026 26.8766 22.2586 26.4688 20.9101C26.061 19.5616 25.23 18.3801 24.0987 17.5404C22.9675 16.7007 21.5961 16.2473 20.1872 16.2473C18.7784 16.2473 17.407 16.7007 16.2757 17.5404C15.1445 18.3801 14.3135 19.5616 13.9057 20.9101C13.4979 22.2586 13.5349 23.7026 14.0112 25.0285C14.4875 26.3543 15.3778 27.4917 16.5505 28.2725C14.4292 29.0543 12.6175 30.5011 11.3858 32.397C11.3211 32.4932 11.2761 32.6013 11.2536 32.7151C11.231 32.8288 11.2312 32.9459 11.2543 33.0596C11.2774 33.1732 11.3228 33.2811 11.388 33.377C11.4531 33.473 11.5367 33.555 11.6338 33.6183C11.7309 33.6817 11.8397 33.7251 11.9537 33.7461C12.0678 33.767 12.1849 33.7651 12.2982 33.7404C12.4115 33.7157 12.5187 33.6687 12.6137 33.6022C12.7087 33.5357 12.7895 33.451 12.8515 33.3529C13.646 32.131 14.7331 31.1269 16.0142 30.4317C17.2953 29.7366 18.7297 29.3725 20.1872 29.3725C21.6448 29.3725 23.0792 29.7366 24.3603 30.4317C25.6414 31.1269 26.7285 32.131 27.523 33.3529C27.6514 33.5437 27.8496 33.6763 28.0749 33.722C28.3002 33.7677 28.5345 33.723 28.727 33.5974C28.9196 33.4718 29.055 33.2755 29.1039 33.0508C29.1529 32.8262 29.1115 32.5913 28.9887 32.397C27.757 30.5011 25.9453 29.0543 23.824 28.2725ZM15.3747 22.8125C15.3747 21.8607 15.657 20.9302 16.1858 20.1388C16.7146 19.3474 17.4662 18.7306 18.3456 18.3663C19.225 18.0021 20.1926 17.9068 21.1261 18.0924C22.0597 18.2781 22.9172 18.7365 23.5902 19.4095C24.2632 20.0826 24.7216 20.9401 24.9073 21.8736C25.093 22.8071 24.9977 23.7748 24.6334 24.6541C24.2692 25.5335 23.6523 26.2851 22.8609 26.8139C22.0695 27.3427 21.1391 27.625 20.1872 27.625C18.9113 27.6235 17.6881 27.116 16.7859 26.2138C15.8837 25.3116 15.3762 24.0884 15.3747 22.8125ZM38.3588 33.6078C38.1645 33.7345 37.9277 33.7789 37.7006 33.7311C37.4736 33.6833 37.2748 33.5473 37.148 33.3529C36.3545 32.1303 35.2675 31.1257 33.9861 30.4309C32.7048 29.736 31.2699 29.373 29.8123 29.375C29.5802 29.375 29.3576 29.2828 29.1935 29.1187C29.0294 28.9546 28.9373 28.732 28.9373 28.5C28.9373 28.2679 29.0294 28.0454 29.1935 27.8813C29.3576 27.7172 29.5802 27.625 29.8123 27.625C30.521 27.6243 31.2208 27.4671 31.8617 27.1646C32.5026 26.8621 33.0688 26.4218 33.5199 25.8752C33.9709 25.3285 34.2956 24.6889 34.4708 24.0022C34.646 23.3155 34.6674 22.5986 34.5334 21.9026C34.3994 21.2067 34.1134 20.549 33.6957 19.9764C33.2781 19.4038 32.7391 18.9305 32.1173 18.5904C31.4956 18.2503 30.8064 18.0517 30.0989 18.0088C29.3915 17.9659 28.6834 18.0798 28.0251 18.3423C27.9177 18.3887 27.8022 18.4131 27.6853 18.4141C27.5683 18.4151 27.4524 18.3927 27.3443 18.3481C27.2362 18.3035 27.1381 18.2377 27.0559 18.1546C26.9736 18.0715 26.9089 17.9727 26.8654 17.8641C26.822 17.7556 26.8008 17.6394 26.803 17.5225C26.8052 17.4056 26.8309 17.2903 26.8784 17.1834C26.926 17.0766 26.9944 16.9804 27.0798 16.9005C27.1651 16.8205 27.2657 16.7585 27.3754 16.7181C28.882 16.1173 30.5577 16.0956 32.0793 16.6574C33.6009 17.2192 34.8606 18.3246 35.6152 19.7603C36.3699 21.196 36.5662 22.8603 36.1662 24.4322C35.7661 26.0041 34.7982 27.3722 33.449 28.2725C35.5703 29.0543 37.382 30.5011 38.6137 32.397C38.7404 32.5914 38.7847 32.8281 38.737 33.0552C38.6892 33.2822 38.5531 33.481 38.3588 33.6078Z" fill="white"/>
</svg>
