<svg width="50" height="50" viewBox="0 0 50 50" fill="none" xmlns="http://www.w3.org/2000/svg">
<rect width="50" height="50" rx="25" fill="#003040"/>
<path d="M35.465 18.2352L25.84 12.9688C25.5828 12.8267 25.2938 12.7522 25 12.7522C24.7062 12.7522 24.4172 12.8267 24.16 12.9688L14.535 18.2374C14.2601 18.3878 14.0307 18.6093 13.8706 18.8786C13.7105 19.148 13.6257 19.4553 13.625 19.7687V30.2293C13.6257 30.5426 13.7105 30.85 13.8706 31.1194C14.0307 31.3887 14.2601 31.6102 14.535 31.7605L24.16 37.0291C24.4172 37.1712 24.7062 37.2458 25 37.2458C25.2938 37.2458 25.5828 37.1712 25.84 37.0291L35.465 31.7605C35.7399 31.6102 35.9693 31.3887 36.1294 31.1194C36.2895 30.85 36.3743 30.5426 36.375 30.2293V19.7698C36.3749 19.4559 36.2903 19.1478 36.1302 18.8778C35.9701 18.6079 35.7404 18.3859 35.465 18.2352ZM25 14.5001L33.7872 19.3126L25 24.1251L16.2128 19.3126L25 14.5001ZM15.375 20.8438L24.125 25.6323V35.0155L15.375 30.2304V20.8438ZM25.875 35.0155V25.6366L34.625 20.8438V30.226L25.875 35.0155Z" fill="white"/>
</svg>
