<svg width="80" height="80" viewBox="0 0 80 80" fill="none" xmlns="http://www.w3.org/2000/svg">
<rect width="80" height="80" rx="40" fill="#003040"/>
<path d="M57.875 37.25H41.375V33.125H42.75C43.4793 33.125 44.1788 32.8353 44.6945 32.3195C45.2103 31.8038 45.5 31.1043 45.5 30.375V24.875C45.5 24.1457 45.2103 23.4462 44.6945 22.9305C44.1788 22.4147 43.4793 22.125 42.75 22.125H37.25C36.5207 22.125 35.8212 22.4147 35.3055 22.9305C34.7897 23.4462 34.5 24.1457 34.5 24.875V30.375C34.5 31.1043 34.7897 31.8038 35.3055 32.3195C35.8212 32.8353 36.5207 33.125 37.25 33.125H38.625V37.25H22.125C21.7603 37.25 21.4106 37.3949 21.1527 37.6527C20.8949 37.9106 20.75 38.2603 20.75 38.625C20.75 38.9897 20.8949 39.3394 21.1527 39.5973C21.4106 39.8551 21.7603 40 22.125 40H27.625V45.5H26.25C25.5207 45.5 24.8212 45.7897 24.3055 46.3055C23.7897 46.8212 23.5 47.5207 23.5 48.25V53.75C23.5 54.4793 23.7897 55.1788 24.3055 55.6945C24.8212 56.2103 25.5207 56.5 26.25 56.5H31.75C32.4793 56.5 33.1788 56.2103 33.6945 55.6945C34.2103 55.1788 34.5 54.4793 34.5 53.75V48.25C34.5 47.5207 34.2103 46.8212 33.6945 46.3055C33.1788 45.7897 32.4793 45.5 31.75 45.5H30.375V40H49.625V45.5H48.25C47.5207 45.5 46.8212 45.7897 46.3055 46.3055C45.7897 46.8212 45.5 47.5207 45.5 48.25V53.75C45.5 54.4793 45.7897 55.1788 46.3055 55.6945C46.8212 56.2103 47.5207 56.5 48.25 56.5H53.75C54.4793 56.5 55.1788 56.2103 55.6945 55.6945C56.2103 55.1788 56.5 54.4793 56.5 53.75V48.25C56.5 47.5207 56.2103 46.8212 55.6945 46.3055C55.1788 45.7897 54.4793 45.5 53.75 45.5H52.375V40H57.875C58.2397 40 58.5894 39.8551 58.8473 39.5973C59.1051 39.3394 59.25 38.9897 59.25 38.625C59.25 38.2603 59.1051 37.9106 58.8473 37.6527C58.5894 37.3949 58.2397 37.25 57.875 37.25ZM37.25 24.875H42.75V30.375H37.25V24.875ZM31.75 53.75H26.25V48.25H31.75V53.75ZM53.75 53.75H48.25V48.25H53.75V53.75Z" fill="white"/>
</svg>
