<svg width="80" height="80" viewBox="0 0 80 80" fill="none" xmlns="http://www.w3.org/2000/svg">
<rect width="80" height="80" rx="40" fill="white"/>
<path d="M56.4743 26.0986C56.4336 25.4281 56.1489 24.7958 55.6739 24.3209C55.199 23.8459 54.5666 23.5612 53.8962 23.5205C51.734 23.3916 46.2082 23.5892 41.6226 28.1731L40.8062 28.9998H30.7807C30.4182 28.9978 30.0589 29.0679 29.7237 29.2059C29.3885 29.344 29.0841 29.5474 28.8282 29.8042L22.9329 35.703C22.5714 36.0643 22.3177 36.5192 22.2003 37.0166C22.0829 37.5141 22.1065 38.0344 22.2684 38.5192C22.4303 39.004 22.7241 39.4341 23.1169 39.7612C23.5096 40.0884 23.9857 40.2995 24.4918 40.3711L31.1039 41.2941L38.7025 48.8926L39.6254 55.5081C39.6964 56.0142 39.9075 56.4904 40.2349 56.8828C40.5624 57.2752 40.993 57.5683 41.4782 57.7287C41.7608 57.8231 42.0568 57.8713 42.3548 57.8714C42.7156 57.8721 43.0729 57.8013 43.4063 57.6633C43.7396 57.5252 44.0423 57.3226 44.297 57.067L50.1957 51.1717C50.4525 50.9158 50.6559 50.6114 50.794 50.2762C50.9321 49.941 51.0022 49.5817 51.0001 49.2192V39.1937L51.82 38.3739C56.4056 33.7883 56.6032 28.2625 56.4743 26.0986ZM30.7807 31.7498H38.0562L31.262 38.5423L24.8751 37.652L30.7807 31.7498ZM43.57 30.1256C44.8912 28.7962 46.4809 27.7641 48.2329 27.0981C49.9849 26.4321 51.8588 26.1476 53.7295 26.2636C53.85 28.1353 53.5684 30.0111 52.9038 31.7649C52.2391 33.5187 51.2067 35.11 49.876 36.4317L40.0001 46.3042L33.6957 39.9998L43.57 30.1256ZM48.2501 49.2192L42.3496 55.1248L41.4576 48.7362L48.2501 41.9437V49.2192ZM35.5039 50.852C34.7304 52.5467 32.1437 56.4998 24.8751 56.4998C24.5104 56.4998 24.1607 56.355 23.9028 56.0971C23.645 55.8392 23.5001 55.4895 23.5001 55.1248C23.5001 47.8562 27.4532 45.2695 29.1479 44.4944C29.3122 44.4194 29.4897 44.3776 29.6702 44.3712C29.8507 44.3649 30.0306 44.3942 30.1998 44.4574C30.369 44.5206 30.5241 44.6165 30.6562 44.7396C30.7883 44.8627 30.8949 45.0107 30.9698 45.175C31.0447 45.3393 31.0866 45.5168 31.0929 45.6973C31.0993 45.8777 31.07 46.0577 31.0068 46.2269C30.9436 46.3961 30.8477 46.5511 30.7246 46.6833C30.6014 46.8154 30.4535 46.9219 30.2892 46.9969C29.184 47.5005 26.7451 49.1212 26.3154 53.6845C30.8787 53.2548 32.5029 50.8159 33.0031 49.7108C33.078 49.5465 33.1846 49.3985 33.3167 49.2754C33.4488 49.1522 33.6039 49.0563 33.7731 48.9931C33.9422 48.9299 34.1222 48.9007 34.3027 48.907C34.4832 48.9134 34.6606 48.9552 34.825 49.0301C34.9893 49.1051 35.1372 49.2117 35.2603 49.3438C35.3835 49.4759 35.4794 49.6309 35.5426 49.8001C35.6058 49.9693 35.635 50.1493 35.6287 50.3298C35.6223 50.5102 35.5805 50.6877 35.5056 50.852H35.5039Z" fill="#003040"/>
</svg>
