<svg width="80" height="80" viewBox="0 0 80 80" fill="none" xmlns="http://www.w3.org/2000/svg">
<rect width="80" height="80" rx="40" fill="#003040"/>
<path d="M53.75 24.875H26.25C25.5207 24.875 24.8212 25.1647 24.3055 25.6805C23.7897 26.1962 23.5 26.8957 23.5 27.625V37.25C23.5 46.3113 27.8863 51.8027 31.5661 54.8139C35.5295 58.0555 39.4723 59.1555 39.6442 59.2019C39.8805 59.2662 40.1298 59.2662 40.3661 59.2019C40.538 59.1555 44.4756 58.0555 48.4442 54.8139C52.1138 51.8027 56.5 46.3113 56.5 37.25V27.625C56.5 26.8957 56.2103 26.1962 55.6945 25.6805C55.1788 25.1647 54.4793 24.875 53.75 24.875ZM53.75 37.25C53.75 43.6214 51.4022 48.7931 46.7719 52.6191C44.7563 54.2789 42.4639 55.5705 40 56.4347C37.5683 55.5856 35.3043 54.3168 33.3106 52.6861C28.6253 48.8533 26.25 43.6609 26.25 37.25V27.625H53.75V37.25ZM32.1522 42.3478C31.8942 42.0898 31.7492 41.7399 31.7492 41.375C31.7492 41.0101 31.8942 40.6602 32.1522 40.4022C32.4102 40.1442 32.7601 39.9992 33.125 39.9992C33.4899 39.9992 33.8398 40.1442 34.0978 40.4022L37.25 43.5561L45.9022 34.9022C46.0299 34.7744 46.1816 34.6731 46.3485 34.604C46.5154 34.5348 46.6943 34.4992 46.875 34.4992C47.0557 34.4992 47.2346 34.5348 47.4015 34.604C47.5684 34.6731 47.7201 34.7744 47.8478 34.9022C47.9756 35.0299 48.0769 35.1816 48.146 35.3485C48.2152 35.5154 48.2508 35.6943 48.2508 35.875C48.2508 36.0557 48.2152 36.2346 48.146 36.4015C48.0769 36.5684 47.9756 36.7201 47.8478 36.8478L38.2228 46.4728C38.0951 46.6007 37.9435 46.7021 37.7765 46.7713C37.6096 46.8405 37.4307 46.8761 37.25 46.8761C37.0693 46.8761 36.8904 46.8405 36.7235 46.7713C36.5565 46.7021 36.4049 46.6007 36.2772 46.4728L32.1522 42.3478Z" fill="white"/>
</svg>
