<svg width="80" height="80" viewBox="0 0 80 80" fill="none" xmlns="http://www.w3.org/2000/svg">
<rect width="80" height="80" rx="40" fill="#003040"/>
<path d="M38.1522 45.1422C39.9951 43.9153 41.3942 42.128 42.1427 40.0444C42.8911 37.9609 42.9492 35.6918 42.3084 33.5727C41.6675 31.4537 40.3617 29.5971 38.584 28.2775C36.8064 26.9579 34.6513 26.2455 32.4374 26.2455C30.2235 26.2455 28.0684 26.9579 26.2908 28.2775C24.5131 29.5971 23.2073 31.4537 22.5664 33.5727C21.9256 35.6918 21.9837 37.9609 22.7321 40.0444C23.4806 42.128 24.8797 43.9153 26.7226 45.1422C23.389 46.3708 20.5421 48.6443 18.6066 51.6236C18.5049 51.7748 18.4342 51.9447 18.3988 52.1234C18.3633 52.3021 18.3637 52.4861 18.3999 52.6647C18.4362 52.8433 18.5076 53.0129 18.6099 53.1636C18.7123 53.3144 18.8436 53.4433 18.9963 53.5428C19.1489 53.6424 19.3198 53.7106 19.499 53.7435C19.6782 53.7764 19.8622 53.7734 20.0403 53.7346C20.2183 53.6958 20.3869 53.622 20.5361 53.5175C20.6854 53.4129 20.8124 53.2798 20.9097 53.1258C22.1582 51.2055 23.8666 49.6276 25.8797 48.5353C27.8929 47.4429 30.147 46.8708 32.4374 46.8708C34.7278 46.8708 36.9819 47.4429 38.9951 48.5353C41.0082 49.6276 42.7166 51.2055 43.9651 53.1258C44.1667 53.4255 44.4783 53.6338 44.8323 53.7057C45.1863 53.7776 45.5545 53.7072 45.857 53.5099C46.1596 53.3125 46.3724 53.004 46.4493 52.651C46.5263 52.298 46.4612 51.929 46.2682 51.6236C44.3327 48.6443 41.4858 46.3708 38.1522 45.1422ZM24.8749 36.5622C24.8749 35.0664 25.3184 33.6043 26.1494 32.3607C26.9804 31.117 28.1615 30.1477 29.5434 29.5753C30.9252 29.0029 32.4458 28.8532 33.9128 29.145C35.3798 29.4368 36.7273 30.157 37.7849 31.2147C38.8425 32.2723 39.5628 33.6198 39.8546 35.0868C40.1464 36.5538 39.9966 38.0743 39.4242 39.4562C38.8519 40.8381 37.8825 42.0192 36.6389 42.8502C35.3953 43.6811 33.9331 44.1247 32.4374 44.1247C30.4324 44.1224 28.5102 43.3249 27.0924 41.9072C25.6747 40.4894 24.8772 38.5672 24.8749 36.5622ZM60.9927 53.5262C60.6873 53.7254 60.3153 53.7951 59.9585 53.72C59.6017 53.6449 59.2893 53.4311 59.0901 53.1258C57.8431 51.2044 56.1349 49.6258 54.1214 48.5339C52.1078 47.442 49.8529 46.8716 47.5624 46.8747C47.1977 46.8747 46.848 46.7298 46.5901 46.4719C46.3323 46.2141 46.1874 45.8643 46.1874 45.4997C46.1874 45.135 46.3323 44.7853 46.5901 44.5274C46.848 44.2695 47.1977 44.1247 47.5624 44.1247C48.6761 44.1236 49.7758 43.8766 50.783 43.4013C51.7901 42.9259 52.6799 42.234 53.3887 41.375C54.0974 40.5159 54.6077 39.5109 54.883 38.4318C55.1584 37.3527 55.1919 36.226 54.9814 35.1324C54.7708 34.0388 54.3213 33.0052 53.665 32.1054C53.0087 31.2057 52.1617 30.462 51.1847 29.9275C50.2076 29.393 49.1246 29.0809 48.0129 29.0135C46.9013 28.9461 45.7884 29.1251 44.754 29.5376C44.5853 29.6105 44.4037 29.6489 44.22 29.6505C44.0362 29.652 43.854 29.6167 43.6842 29.5467C43.5143 29.4766 43.3602 29.3732 43.2309 29.2426C43.1017 29.112 43 28.9568 42.9317 28.7862C42.8635 28.6156 42.8301 28.433 42.8336 28.2493C42.8371 28.0656 42.8774 27.8844 42.9521 27.7165C43.0268 27.5487 43.1344 27.3974 43.2685 27.2719C43.4027 27.1463 43.5606 27.0488 43.733 26.9853C46.1005 26.0411 48.7338 26.0071 51.1249 26.8899C53.516 27.7727 55.4955 29.5097 56.6814 31.7659C57.8673 34.022 58.1758 36.6374 57.5471 39.1075C56.9185 41.5776 55.3974 43.7274 53.2772 45.1422C56.6108 46.3708 59.4577 48.6443 61.3932 51.6236C61.5924 51.929 61.662 52.301 61.5869 52.6578C61.5118 53.0146 61.2981 53.327 60.9927 53.5262Z" fill="white"/>
</svg>
