<svg width="80" height="80" viewBox="0 0 80 80" fill="none" xmlns="http://www.w3.org/2000/svg">
<rect width="80" height="80" rx="40" fill="#003040"/>
<path d="M41.375 31.7501V39.2215L47.5831 42.946C47.8958 43.1338 48.1211 43.4381 48.2094 43.792C48.2978 44.146 48.2419 44.5205 48.0541 44.8332C47.8663 45.1459 47.5619 45.3712 47.208 45.4595C46.8541 45.5478 46.4796 45.4919 46.1669 45.3041L39.2919 41.1791C39.0884 41.0569 38.92 40.884 38.8032 40.6774C38.6863 40.4708 38.6249 40.2374 38.625 40.0001V31.7501C38.625 31.3854 38.7699 31.0356 39.0277 30.7778C39.2856 30.5199 39.6353 30.3751 40 30.3751C40.3647 30.3751 40.7144 30.5199 40.9723 30.7778C41.2301 31.0356 41.375 31.3854 41.375 31.7501ZM40 23.5001C37.8309 23.4946 35.6823 23.9195 33.6785 24.75C31.6747 25.5805 29.8556 26.8001 28.3263 28.3383C27.0767 29.6033 25.9664 30.8202 24.875 32.0938V29.0001C24.875 28.6354 24.7301 28.2856 24.4723 28.0278C24.2144 27.7699 23.8647 27.6251 23.5 27.6251C23.1353 27.6251 22.7856 27.7699 22.5277 28.0278C22.2699 28.2856 22.125 28.6354 22.125 29.0001V35.8751C22.125 36.2397 22.2699 36.5895 22.5277 36.8473C22.7856 37.1052 23.1353 37.2501 23.5 37.2501H30.375C30.7397 37.2501 31.0894 37.1052 31.3473 36.8473C31.6051 36.5895 31.75 36.2397 31.75 35.8751C31.75 35.5104 31.6051 35.1606 31.3473 34.9028C31.0894 34.6449 30.7397 34.5001 30.375 34.5001H26.4219C27.6508 33.0529 28.8745 31.6899 30.2702 30.2771C32.1812 28.3661 34.6129 27.0606 37.2616 26.5238C39.9103 25.987 42.6585 26.2426 45.1628 27.2588C47.667 28.2749 49.8163 30.0065 51.342 32.2372C52.8678 34.4678 53.7023 37.0987 53.7414 39.8009C53.7805 42.5032 53.0224 45.1571 51.5618 47.431C50.1012 49.7048 48.0029 51.4979 45.5291 52.586C43.0553 53.6742 40.3157 54.0092 37.6526 53.5492C34.9895 53.0892 32.5209 51.8547 30.5555 49.9997C30.4241 49.8756 30.2696 49.7785 30.1007 49.7141C29.9318 49.6497 29.7519 49.6192 29.5713 49.6243C29.3906 49.6294 29.2127 49.67 29.0477 49.7439C28.8828 49.8178 28.734 49.9234 28.6098 50.0547C28.4857 50.1861 28.3887 50.3406 28.3242 50.5095C28.2598 50.6784 28.2293 50.8583 28.2344 51.0389C28.2395 51.2196 28.2801 51.3975 28.354 51.5625C28.4279 51.7274 28.5335 51.8762 28.6648 52.0004C30.6233 53.8485 33.0043 55.1892 35.6 55.9055C38.1958 56.6219 40.9274 56.692 43.5565 56.1098C46.1855 55.5277 48.6322 54.3109 50.6829 52.5657C52.7336 50.8205 54.326 48.6 55.3212 46.0979C56.3163 43.5957 56.6839 40.888 56.392 38.2112C56.1001 35.5343 55.1574 32.9695 53.6463 30.7407C52.1352 28.5119 50.1015 26.6868 47.7229 25.4247C45.3442 24.1626 42.6928 23.5018 40 23.5001Z" fill="white"/>
</svg>
