<svg width="80" height="80" viewBox="0 0 80 80" fill="none" xmlns="http://www.w3.org/2000/svg">
<rect width="80" height="80" rx="40" fill="#003040"/>
<path d="M56.445 29.3694L41.32 21.0936C40.9159 20.8703 40.4617 20.7532 40 20.7532C39.5383 20.7532 39.0841 20.8703 38.68 21.0936L23.555 29.3728C23.1231 29.6092 22.7625 29.9571 22.5109 30.3804C22.2594 30.8037 22.1261 31.2867 22.125 31.7791V48.2172C22.1261 48.7096 22.2594 49.1926 22.5109 49.6159C22.7625 50.0391 23.1231 50.3871 23.555 50.6234L38.68 58.9027C39.0841 59.126 39.5383 59.2431 40 59.2431C40.4617 59.2431 40.9159 59.126 41.32 58.9027L56.445 50.6234C56.8769 50.3871 57.2375 50.0391 57.4891 49.6159C57.7406 49.1926 57.8739 48.7096 57.875 48.2172V31.7808C57.8748 31.2875 57.742 30.8034 57.4904 30.3792C57.2388 29.9549 56.8777 29.6061 56.445 29.3694ZM40 23.4998L53.8084 31.0623L48.6917 33.8639L34.8816 26.3014L40 23.4998ZM40 38.6248L26.1916 31.0623L32.0181 27.8723L45.8266 35.4348L40 38.6248ZM24.875 33.4686L38.625 40.9933V55.7384L24.875 48.2189V33.4686ZM55.125 48.212L41.375 55.7384V41.0002L46.875 37.9906V44.1248C46.875 44.4895 47.0199 44.8393 47.2777 45.0971C47.5356 45.355 47.8853 45.4998 48.25 45.4998C48.6147 45.4998 48.9644 45.355 49.2223 45.0971C49.4801 44.8393 49.625 44.4895 49.625 44.1248V36.485L55.125 33.4686V48.2103V48.212Z" fill="white"/>
</svg>
