<svg width="80" height="80" viewBox="0 0 80 80" fill="none" xmlns="http://www.w3.org/2000/svg">
<rect width="80" height="80" rx="40" fill="#003040"/>
<path d="M38.1522 45.1423C39.9951 43.9154 41.3942 42.1281 42.1427 40.0446C42.8911 37.961 42.9492 35.692 42.3084 33.5729C41.6675 31.4538 40.3617 29.5972 38.584 28.2776C36.8064 26.9581 34.6513 26.2456 32.4374 26.2456C30.2235 26.2456 28.0684 26.9581 26.2908 28.2776C24.5131 29.5972 23.2073 31.4538 22.5664 33.5729C21.9256 35.692 21.9837 37.961 22.7321 40.0446C23.4806 42.1281 24.8797 43.9154 26.7226 45.1423C23.389 46.3709 20.5421 48.6445 18.6066 51.6237C18.5049 51.7749 18.4342 51.9448 18.3988 52.1235C18.3633 52.3023 18.3637 52.4863 18.3999 52.6648C18.4362 52.8434 18.5076 53.013 18.6099 53.1638C18.7123 53.3145 18.8436 53.4434 18.9963 53.5429C19.1489 53.6425 19.3198 53.7107 19.499 53.7436C19.6782 53.7766 19.8622 53.7735 20.0403 53.7347C20.2183 53.6959 20.3869 53.6221 20.5361 53.5176C20.6854 53.4131 20.8124 53.2799 20.9097 53.1259C22.1582 51.2057 23.8666 49.6277 25.8797 48.5354C27.8929 47.4431 30.147 46.8709 32.4374 46.8709C34.7278 46.8709 36.9819 47.4431 38.9951 48.5354C41.0082 49.6277 42.7166 51.2057 43.9651 53.1259C44.1667 53.4256 44.4783 53.6339 44.8323 53.7058C45.1863 53.7777 45.5545 53.7074 45.857 53.51C46.1596 53.3126 46.3724 53.0041 46.4493 52.6511C46.5263 52.2982 46.4612 51.9291 46.2682 51.6237C44.3327 48.6445 41.4858 46.3709 38.1522 45.1423ZM24.8749 36.5623C24.8749 35.0666 25.3184 33.6044 26.1494 32.3608C26.9804 31.1171 28.1615 30.1478 29.5434 29.5755C30.9252 29.0031 32.4458 28.8533 33.9128 29.1451C35.3798 29.4369 36.7273 30.1572 37.7849 31.2148C38.8425 32.2724 39.5628 33.6199 39.8546 35.0869C40.1464 36.5539 39.9966 38.0745 39.4242 39.4563C38.8519 40.8382 37.8825 42.0193 36.6389 42.8503C35.3953 43.6813 33.9331 44.1248 32.4374 44.1248C30.4324 44.1225 28.5102 43.325 27.0924 41.9073C25.6747 40.4895 24.8772 38.5673 24.8749 36.5623ZM60.9927 53.5264C60.6873 53.7255 60.3153 53.7952 59.9585 53.7201C59.6017 53.645 59.2893 53.4313 59.0901 53.1259C57.8431 51.2045 56.1349 49.6259 54.1214 48.534C52.1078 47.4421 49.8529 46.8717 47.5624 46.8748C47.1977 46.8748 46.848 46.7299 46.5901 46.4721C46.3323 46.2142 46.1874 45.8645 46.1874 45.4998C46.1874 45.1351 46.3323 44.7854 46.5901 44.5275C46.848 44.2697 47.1977 44.1248 47.5624 44.1248C48.6761 44.1237 49.7758 43.8767 50.783 43.4014C51.7901 42.9261 52.6799 42.2341 53.3887 41.3751C54.0974 40.516 54.6077 39.511 54.883 38.4319C55.1584 37.3528 55.1919 36.2262 54.9814 35.1325C54.7708 34.0389 54.3213 33.0053 53.665 32.1056C53.0087 31.2058 52.1617 30.4621 51.1847 29.9276C50.2076 29.3931 49.1246 29.081 48.0129 29.0137C46.9013 28.9463 45.7884 29.1252 44.754 29.5378C44.5853 29.6107 44.4037 29.649 44.22 29.6506C44.0362 29.6521 43.854 29.6169 43.6842 29.5468C43.5143 29.4767 43.3602 29.3734 43.2309 29.2427C43.1017 29.1121 43 28.9569 42.9317 28.7863C42.8635 28.6157 42.8301 28.4331 42.8336 28.2494C42.8371 28.0657 42.8774 27.8845 42.9521 27.7167C43.0268 27.5488 43.1344 27.3976 43.2685 27.272C43.4027 27.1464 43.5606 27.0489 43.733 26.9854C46.1005 26.0412 48.7338 26.0072 51.1249 26.89C53.516 27.7728 55.4955 29.5098 56.6814 31.766C57.8673 34.0221 58.1758 36.6375 57.5471 39.1076C56.9185 41.5777 55.3974 43.7275 53.2772 45.1423C56.6108 46.3709 59.4577 48.6445 61.3932 51.6237C61.5924 51.9291 61.662 52.3011 61.5869 52.658C61.5118 53.0148 61.2981 53.3271 60.9927 53.5264Z" fill="white"/>
</svg>
