<svg width="80" height="80" viewBox="0 0 80 80" fill="none" xmlns="http://www.w3.org/2000/svg">
<rect width="80" height="80" rx="40" fill="#003040"/>
<path d="M56.4743 26.0991C56.4336 25.4286 56.1489 24.7963 55.6739 24.3213C55.199 23.8464 54.5666 23.5617 53.8962 23.5209C51.734 23.392 46.2082 23.5897 41.6226 28.1736L40.8062 29.0003H30.7807C30.4182 28.9983 30.0589 29.0683 29.7237 29.2064C29.3885 29.3445 29.0841 29.5479 28.8282 29.8047L22.9329 35.7034C22.5714 36.0647 22.3177 36.5197 22.2003 37.0171C22.0829 37.5146 22.1065 38.0349 22.2684 38.5197C22.4303 39.0045 22.7241 39.4346 23.1169 39.7617C23.5096 40.0888 23.9857 40.3 24.4918 40.3716L31.1039 41.2945L38.7025 48.8931L39.6254 55.5086C39.6964 56.0147 39.9075 56.4909 40.2349 56.8833C40.5624 57.2757 40.993 57.5687 41.4782 57.7292C41.7608 57.8236 42.0568 57.8718 42.3548 57.8719C42.7156 57.8726 43.0729 57.8018 43.4063 57.6638C43.7396 57.5257 44.0423 57.3231 44.297 57.0675L50.1957 51.1722C50.4525 50.9163 50.6559 50.6119 50.794 50.2767C50.9321 49.9415 51.0022 49.5822 51.0001 49.2197V39.1942L51.82 38.3744C56.4056 33.7888 56.6032 28.263 56.4743 26.0991ZM30.7807 31.7503H38.0562L31.262 38.5428L24.8751 37.6525L30.7807 31.7503ZM43.57 30.1261C44.8912 28.7967 46.4809 27.7646 48.2329 27.0986C49.9849 26.4326 51.8588 26.1481 53.7295 26.2641C53.85 28.1358 53.5684 30.0115 52.9038 31.7654C52.2391 33.5192 51.2067 35.1105 49.876 36.4322L40.0001 46.3047L33.6957 40.0003L43.57 30.1261ZM48.2501 49.2197L42.3496 55.1253L41.4576 48.7367L48.2501 41.9442V49.2197ZM35.5039 50.8525C34.7304 52.5472 32.1437 56.5003 24.8751 56.5003C24.5104 56.5003 24.1607 56.3555 23.9028 56.0976C23.645 55.8397 23.5001 55.49 23.5001 55.1253C23.5001 47.8567 27.4532 45.27 29.1479 44.4949C29.3122 44.4199 29.4897 44.3781 29.6702 44.3717C29.8507 44.3654 30.0306 44.3946 30.1998 44.4578C30.369 44.521 30.5241 44.6169 30.6562 44.7401C30.7883 44.8632 30.8949 45.0112 30.9698 45.1755C31.0447 45.3398 31.0866 45.5173 31.0929 45.6977C31.0993 45.8782 31.07 46.0582 31.0068 46.2274C30.9436 46.3966 30.8477 46.5516 30.7246 46.6837C30.6014 46.8159 30.4535 46.9224 30.2892 46.9974C29.184 47.5009 26.7451 49.1217 26.3154 53.685C30.8787 53.2553 32.5029 50.8164 33.0031 49.7113C33.078 49.5469 33.1846 49.399 33.3167 49.2759C33.4488 49.1527 33.6039 49.0568 33.7731 48.9936C33.9422 48.9304 34.1222 48.9012 34.3027 48.9075C34.4832 48.9139 34.6606 48.9557 34.825 49.0306C34.9893 49.1056 35.1372 49.2121 35.2603 49.3443C35.3835 49.4764 35.4794 49.6314 35.5426 49.8006C35.6058 49.9698 35.635 50.1498 35.6287 50.3302C35.6223 50.5107 35.5805 50.6882 35.5056 50.8525H35.5039Z" fill="white"/>
</svg>
