<svg width="80" height="80" viewBox="0 0 80 80" fill="none" xmlns="http://www.w3.org/2000/svg">
<rect width="80" height="80" rx="40" fill="#003040"/>
<path d="M61.7082 36.5467L57.3219 27.7708C57.1603 27.4477 56.9367 27.1597 56.6638 26.9232C56.3909 26.6866 56.0741 26.5061 55.7314 26.392C55.3887 26.2778 55.0269 26.2323 54.6667 26.2581C54.3064 26.2838 53.9547 26.3802 53.6318 26.5419L49.3572 28.6783L40.3527 26.2961C40.1216 26.2359 39.8791 26.2359 39.648 26.2961L30.6435 28.6783L26.3689 26.5419C26.046 26.3802 25.6943 26.2838 25.334 26.2581C24.9738 26.2323 24.612 26.2778 24.2693 26.392C23.9267 26.5061 23.6098 26.6866 23.3369 26.9232C23.064 27.1597 22.8404 27.4477 22.6788 27.7708L18.2925 36.545C18.1309 36.868 18.0345 37.2196 18.0088 37.5799C17.983 37.9401 18.0285 38.3019 18.1426 38.6446C18.2568 38.9873 18.4373 39.3041 18.6738 39.577C18.9104 39.8499 19.1984 40.0735 19.5214 40.2351L24.1621 42.5572L33.6994 49.3686C33.8399 49.4686 33.9979 49.5414 34.1652 49.5834L45.1652 52.3334C45.3956 52.3912 45.637 52.3883 45.8659 52.3251C46.0948 52.2618 46.3034 52.1403 46.4714 51.9725L55.9366 42.5056L60.4775 40.2351C61.1294 39.9088 61.6251 39.337 61.8555 38.6453C62.086 37.9537 62.0323 37.1988 61.7064 36.5467H61.7082ZM52.2739 42.2822L46.3597 37.5453C46.0948 37.3331 45.7607 37.2264 45.4218 37.2458C45.0829 37.2651 44.7632 37.4092 44.5241 37.6501C41.463 40.7336 38.0513 40.3434 35.8754 38.9684L43.3072 31.7497H48.7746L53.4513 41.1014L52.2739 42.2822ZM25.1383 28.9997L28.6566 30.7562L24.2618 39.5304L20.7504 37.7756L25.1383 28.9997ZM45.0758 49.4751L35.0882 46.9795L26.6319 40.9398L31.4444 31.3148L40.0004 29.0478L41.6847 29.4929L33.9504 37.0004L33.9366 37.0159C33.6455 37.3071 33.4234 37.6599 33.2868 38.0483C33.1503 38.4367 33.1026 38.8509 33.1475 39.2602C33.1924 39.6694 33.3286 40.0634 33.5461 40.4131C33.7636 40.7627 34.0568 41.059 34.4041 41.2801C37.9379 43.5369 42.2021 43.1708 45.5605 40.4208L50.3129 44.2381L45.0758 49.4751ZM55.7321 39.5287L51.3458 30.7631L54.8624 28.9997L59.2504 37.7756L55.7321 39.5287ZM40.65 55.4564C40.5758 55.7536 40.4044 56.0174 40.1631 56.2061C39.9217 56.3948 39.6243 56.4975 39.318 56.4979C39.205 56.4978 39.0925 56.4839 38.9829 56.4567L31.8208 54.6658C31.6533 54.6244 31.4952 54.5515 31.355 54.4509L26.8261 51.2162C26.5477 50.9976 26.3643 50.68 26.3141 50.3295C26.264 49.979 26.351 49.6227 26.557 49.3347C26.763 49.0468 27.0721 48.8494 27.42 48.7837C27.7679 48.7179 28.1277 48.7889 28.4246 48.9819L32.7404 52.0653L39.6566 53.7909C40.0103 53.8794 40.3144 54.1047 40.502 54.4174C40.6896 54.73 40.7453 55.1044 40.6569 55.4581L40.65 55.4564Z" fill="white"/>
</svg>
