<?xml version="1.0" encoding="UTF-8"?>
<svg id="Layer_1" xmlns="http://www.w3.org/2000/svg" xmlns:xlink="http://www.w3.org/1999/xlink" version="1.1" viewBox="0 0 200 200">
  <!-- Generator: Adobe Illustrator 30.4.0, SVG Export Plug-In . SVG Version: 2.1.4 Build 226)  -->
  <defs>
    <style>
      .st0 {
        fill: url(#radial-gradient);
      }

      .st1 {
        fill: #fff;
      }

      .st2 {
        fill: url(#radial-gradient1);
      }

      .st3 {
        fill: url(#radial-gradient6);
      }

      .st4 {
        fill: url(#radial-gradient9);
      }

      .st5 {
        fill: url(#radial-gradient8);
      }

      .st6 {
        fill: url(#radial-gradient3);
      }

      .st7 {
        fill: url(#radial-gradient2);
      }

      .st8 {
        fill: url(#radial-gradient5);
      }

      .st9 {
        fill: url(#radial-gradient4);
      }

      .st10 {
        fill: url(#radial-gradient7);
      }
    </style>
    <radialGradient id="radial-gradient" cx="38.26" cy="85.05" fx="38.26" fy="85.05" r="32.57" gradientUnits="userSpaceOnUse">
      <stop offset="0" stop-color="#00bdde"/>
      <stop offset="1" stop-color="#003040"/>
    </radialGradient>
    <radialGradient id="radial-gradient1" cx="30.16" cy="99.34" fx="30.16" fy="99.34" r="11.35" gradientUnits="userSpaceOnUse">
      <stop offset="0" stop-color="#00bdde"/>
      <stop offset=".15" stop-color="#00b9d9"/>
      <stop offset=".31" stop-color="#00adcd"/>
      <stop offset=".48" stop-color="#009bb8"/>
      <stop offset=".64" stop-color="#00819a"/>
      <stop offset=".81" stop-color="#005f74"/>
      <stop offset=".98" stop-color="#003647"/>
      <stop offset="1" stop-color="#003040"/>
    </radialGradient>
    <radialGradient id="radial-gradient2" cx="38.26" cy="85.05" fx="38.26" fy="85.05" r="32.57" xlink:href="#radial-gradient"/>
    <radialGradient id="radial-gradient3" cx="30.1" cy="99.31" fx="30.1" fy="99.31" r="13.15" xlink:href="#radial-gradient"/>
    <radialGradient id="radial-gradient4" cx="30.1" cy="99.31" fx="30.1" fy="99.31" r="13.15" xlink:href="#radial-gradient"/>
    <radialGradient id="radial-gradient5" cx="-138.86" cy="62.83" fx="-138.86" fy="62.83" r="48.92" xlink:href="#radial-gradient"/>
    <radialGradient id="radial-gradient6" cx="-151.04" cy="84.3" fx="-151.04" fy="84.3" r="17.05" xlink:href="#radial-gradient1"/>
    <radialGradient id="radial-gradient7" cx="-138.86" cy="62.83" fx="-138.86" fy="62.83" r="48.92" xlink:href="#radial-gradient"/>
    <radialGradient id="radial-gradient8" cx="-151.13" cy="84.25" fx="-151.13" fy="84.25" r="19.75" xlink:href="#radial-gradient"/>
    <radialGradient id="radial-gradient9" cx="-151.13" cy="84.25" fx="-151.13" fy="84.25" r="19.75" xlink:href="#radial-gradient"/>
  </defs>
  <g>
    <polygon class="st0" points="23.17 85.39 20.6 88.12 20.15 88.59 19.6 89.17 19.21 89.59 11.75 89.59 11.75 97.48 11.28 97.99 9.94 99.4 9.04 100.35 7.56 101.93 7.56 92.64 7.59 92.64 7.56 92.6 7.56 85.39 23.17 85.39"/>
    <polygon class="st2" points="41.29 85.39 37.33 89.59 28.68 89.59 28.54 89.73 28.19 90.11 25.8 92.64 25.3 93.17 24.71 93.79 24.35 94.18 24.31 94.22 22.41 96.22 21.52 97.17 20.15 95.69 18.65 94.09 18.94 93.79 19.54 93.15 20.03 92.64 20.15 92.5 21.44 91.14 22.43 90.09 22.9 89.59 24.35 88.06 25.32 87.03 26.86 85.39 41.29 85.39"/>
    <polygon class="st7" points="17.51 107.52 16.61 108.47 15.95 109.18 14.63 110.58 13.73 111.53 11.75 113.62 10.84 114.59 10.66 114.78 8.62 116.94 7.95 117.65 7.56 118.07 7.56 105.84 7.99 105.38 10.88 102.32 11.01 102.18 11.75 101.39 11.78 101.37 12.54 102.18 14.65 104.45 15.95 105.85 16.06 105.97 16.45 106.38 17.51 107.52"/>
    <polygon class="st6" points="36.98 117.98 31.25 117.98 28.54 115.12 28.23 114.78 28.1 114.65 25.24 111.57 24.35 110.62 24.35 110.58 24.31 110.58 22.37 108.5 20.93 106.95 20.4 106.38 20.15 106.11 19.5 105.42 18.05 103.86 16.63 102.34 16.49 102.18 15.95 101.61 13.77 99.26 14.97 97.99 15.95 96.95 16.65 96.21 18.31 97.99 19.52 99.28 20.15 99.95 20.94 100.8 22.23 102.18 22.39 102.36 23.82 103.89 24.35 104.46 25.26 105.44 26.14 106.38 28.12 108.51 28.54 108.96 30.05 110.58 30.99 111.59 32.74 113.47 33.86 114.67 33.96 114.78 36.98 117.98"/>
    <polygon class="st9" points="40.09 111.32 40.08 117.15 22.94 98.68 28.65 92.64 34.45 92.64 28.6 98.83 40.09 111.32"/>
  </g>
  <g>
    <path d="M54.39,100.61l5.76-5.25h5.87l-8.01,6.91,8.89,7.06h-6.24l-6.26-5.32h-2.18v5.32h-4.25v-13.96h4.25v5.25h2.18Z"/>
    <path d="M78.26,95.21l3.39.02c2.48,0,4.18.41,5.1,1.24.91.82,1.37,2.47,1.37,4.94v.67c0,2.9-.36,4.85-1.09,5.83-.73.98-2.56,1.48-5.51,1.48l-3.2.06-1.34.02-2.89-.1c-1.62,0-2.87-.37-3.75-1.1-.88-.73-1.32-1.92-1.32-3.55l-.04-2.58c0-2.83.36-4.69,1.09-5.56s2.45-1.31,5.17-1.31l3.01-.06ZM75.96,105.99l2.28.04,2.18-.02c1.2,0,2.06-.13,2.59-.39.52-.26.79-.9.79-1.92l.04-1.89c0-.64-.04-1.19-.12-1.65-.08-.45-.23-.79-.47-1.01s-.59-.36-1.06-.43-.97-.1-1.5-.1l-4.23.02c-.96,0-1.7.1-2.2.29s-.79.61-.87,1.25c-.08.64-.12,1.17-.12,1.58v.94c0,1.29.15,2.16.45,2.6.3.45,1.04.67,2.23.67Z"/>
    <path d="M104.47,95.35c1.67,0,2.87.32,3.59.97s1.08,1.8,1.08,3.44c0,.63-.03,1.17-.1,1.61-.07.45-.21.83-.42,1.16-.21.33-.45.57-.73.73-.28.16-.87.39-1.76.68.98.13,1.7.37,2.16.74.46.37.69,1.02.69,1.94v2.68h-4.31v-1.34c0-.68-.06-1.23-.18-1.63-.12-.4-.67-.61-1.66-.61h-7.1v3.58h-4.25v-13.96h13ZM102.69,102.35c.96,0,1.56-.12,1.8-.36s.36-.77.36-1.59c0-.46-.05-.8-.14-1.03s-.28-.38-.56-.46c-.29-.08-.52-.13-.7-.15-.18-.01-.4-.02-.65-.02h-7.08v3.6h6.97Z"/>
    <path d="M124.94,95.35c2.53,0,4.22.42,5.09,1.26.87.84,1.3,2.51,1.3,5.02v1.61c0,.66-.01,1.12-.03,1.38s-.1.81-.24,1.62c-.14.82-.62,1.53-1.44,2.15-.82.61-1.86.92-3.1.92h-13.88v-13.96h12.31ZM127.04,102.38v-.13c0-1.36-.15-2.28-.46-2.75-.31-.47-1.13-.71-2.47-.71h-7.22v7.1h7.16c1.31,0,2.14-.24,2.48-.73.34-.49.51-1.41.51-2.78Z"/>
    <path d="M153.37,95.35l-7.85,9.11v4.86h-4.27v-4.86l-7.98-9.11h5.37l4.73,5.76,4.69-5.76h5.31Z"/>
    <path d="M167.99,109.32l-8.4-10.49v10.49h-4v-13.96h6.77l8.41,10.47v-10.47h4v13.96h-6.78Z"/>
    <path d="M193.99,95.35v3.18h-11.33v2.39h10.57v2.76h-10.57v2.47h11.33v3.16h-15.58v-13.96h15.58Z"/>
  </g>
  <g>
    <polygon class="st1" points="23.17 347.71 20.6 350.44 20.15 350.91 19.6 351.49 19.21 351.91 11.75 351.91 11.75 359.8 11.28 360.3 9.94 361.72 9.04 362.67 7.56 364.25 7.56 354.95 7.59 354.95 7.56 354.91 7.56 347.71 23.17 347.71"/>
    <polygon class="st1" points="41.29 347.71 37.33 351.91 28.68 351.91 28.54 352.05 28.19 352.43 25.8 354.95 25.3 355.49 24.71 356.11 24.35 356.49 24.31 356.54 22.41 358.54 21.52 359.48 20.15 358.01 18.65 356.41 18.94 356.11 19.54 355.46 20.03 354.95 20.15 354.82 21.44 353.46 22.43 352.41 22.9 351.91 24.35 350.38 25.32 349.35 26.86 347.71 41.29 347.71"/>
    <polygon class="st1" points="17.51 369.84 16.61 370.79 15.95 371.49 14.63 372.9 13.73 373.85 11.75 375.94 10.84 376.91 10.66 377.09 8.62 379.26 7.95 379.97 7.56 380.39 7.56 368.16 7.99 367.7 10.88 364.64 11.01 364.5 11.75 363.71 11.78 363.69 12.54 364.5 14.65 366.76 15.95 368.16 16.06 368.29 16.45 368.7 17.51 369.84"/>
    <polygon class="st1" points="36.98 380.3 31.25 380.3 28.54 377.44 28.23 377.09 28.1 376.97 25.24 373.89 24.35 372.94 24.35 372.9 24.31 372.9 22.37 370.81 20.93 369.27 20.4 368.7 20.15 368.43 19.5 367.74 18.05 366.18 16.63 364.66 16.49 364.5 15.95 363.93 13.77 361.58 14.97 360.3 15.95 359.27 16.65 358.52 18.31 360.3 19.52 361.6 20.15 362.27 20.94 363.12 22.23 364.5 22.39 364.68 23.82 366.21 24.35 366.78 25.26 367.75 26.14 368.7 28.12 370.83 28.54 371.28 30.05 372.9 30.99 373.91 32.74 375.79 33.86 376.99 33.96 377.09 36.98 380.3"/>
    <polygon class="st1" points="40.09 373.63 40.08 379.47 22.94 361 28.65 354.95 34.45 354.95 28.6 361.15 40.09 373.63"/>
  </g>
  <g>
    <path class="st1" d="M54.39,362.93l5.76-5.25h5.87l-8.01,6.91,8.89,7.06h-6.24l-6.26-5.32h-2.18v5.32h-4.25v-13.96h4.25v5.25h2.18Z"/>
    <path class="st1" d="M78.26,357.53l3.39.02c2.48,0,4.18.41,5.1,1.24.91.82,1.37,2.47,1.37,4.94v.67c0,2.9-.36,4.85-1.09,5.83-.73.98-2.56,1.48-5.51,1.48l-3.2.06-1.34.02-2.89-.1c-1.62,0-2.87-.37-3.75-1.1-.88-.73-1.32-1.92-1.32-3.55l-.04-2.58c0-2.83.36-4.69,1.09-5.56s2.45-1.31,5.17-1.31l3.01-.06ZM75.96,368.31l2.28.04,2.18-.02c1.2,0,2.06-.13,2.59-.39.52-.26.79-.9.79-1.92l.04-1.89c0-.64-.04-1.19-.12-1.65-.08-.45-.23-.79-.47-1.01s-.59-.36-1.06-.43-.97-.1-1.5-.1l-4.23.02c-.96,0-1.7.1-2.2.29s-.79.61-.87,1.25c-.08.64-.12,1.17-.12,1.58v.94c0,1.29.15,2.16.45,2.6.3.45,1.04.67,2.23.67Z"/>
    <path class="st1" d="M104.47,357.67c1.67,0,2.87.32,3.59.97s1.08,1.8,1.08,3.44c0,.63-.03,1.17-.1,1.61-.07.45-.21.83-.42,1.16-.21.33-.45.57-.73.73-.28.16-.87.39-1.76.68.98.13,1.7.37,2.16.74.46.37.69,1.02.69,1.94v2.68h-4.31v-1.34c0-.68-.06-1.23-.18-1.63-.12-.4-.67-.61-1.66-.61h-7.1v3.58h-4.25v-13.96h13ZM102.69,364.67c.96,0,1.56-.12,1.8-.36s.36-.77.36-1.59c0-.46-.05-.8-.14-1.03s-.28-.38-.56-.46c-.29-.08-.52-.13-.7-.15-.18-.01-.4-.02-.65-.02h-7.08v3.6h6.97Z"/>
    <path class="st1" d="M124.94,357.67c2.53,0,4.22.42,5.09,1.26.87.84,1.3,2.51,1.3,5.02v1.61c0,.66-.01,1.12-.03,1.38s-.1.81-.24,1.62c-.14.82-.62,1.53-1.44,2.15-.82.61-1.86.92-3.1.92h-13.88v-13.96h12.31ZM127.04,364.7v-.13c0-1.36-.15-2.28-.46-2.75-.31-.47-1.13-.71-2.47-.71h-7.22v7.1h7.16c1.31,0,2.14-.24,2.48-.73.34-.49.51-1.41.51-2.78Z"/>
    <path class="st1" d="M153.37,357.67l-7.85,9.11v4.86h-4.27v-4.86l-7.98-9.11h5.37l4.73,5.76,4.69-5.76h5.31Z"/>
    <path class="st1" d="M167.99,371.64l-8.4-10.49v10.49h-4v-13.96h6.77l8.41,10.47v-10.47h4v13.96h-6.78Z"/>
    <path class="st1" d="M193.99,357.67v3.18h-11.33v2.39h10.57v2.76h-10.57v2.47h11.33v3.16h-15.58v-13.96h15.58Z"/>
  </g>
  <g>
    <g>
      <polygon class="st8" points="-161.53 63.36 -165.39 67.45 -166.06 68.16 -166.89 69.03 -167.48 69.66 -178.68 69.66 -178.68 81.51 -179.39 82.27 -181.4 84.39 -182.75 85.82 -184.98 88.19 -184.98 74.23 -184.93 74.23 -184.98 74.17 -184.98 63.36 -161.53 63.36"/>
      <polygon class="st3" points="-134.32 63.36 -140.26 69.66 -153.25 69.66 -153.46 69.87 -154 70.44 -157.58 74.23 -158.33 75.03 -159.21 75.96 -159.76 76.55 -159.82 76.61 -162.67 79.62 -164.01 81.04 -166.06 78.82 -168.31 76.41 -167.89 75.96 -166.97 75 -166.25 74.23 -166.06 74.03 -164.13 71.99 -162.64 70.41 -161.93 69.66 -159.76 67.36 -158.3 65.81 -155.98 63.36 -134.32 63.36"/>
      <polygon class="st10" points="-170.02 96.59 -171.38 98.02 -172.37 99.08 -174.36 101.18 -175.71 102.62 -178.68 105.75 -180.05 107.21 -180.31 107.49 -183.39 110.74 -184.39 111.81 -184.98 112.43 -184.98 94.07 -184.33 93.37 -179.99 88.78 -179.8 88.57 -178.68 87.39 -178.64 87.35 -177.5 88.57 -174.33 91.97 -172.37 94.07 -172.21 94.26 -171.62 94.88 -170.02 96.59"/>
      <polygon class="st5" points="-140.79 112.3 -149.4 112.3 -153.46 108 -153.94 107.49 -154.12 107.3 -158.42 102.67 -159.76 101.24 -159.76 101.18 -159.82 101.18 -162.73 98.05 -164.89 95.73 -165.68 94.88 -166.06 94.47 -167.04 93.43 -169.22 91.09 -171.35 88.81 -171.56 88.57 -172.37 87.71 -175.65 84.19 -173.84 82.27 -172.37 80.71 -171.31 79.59 -168.82 82.27 -167.01 84.21 -166.06 85.22 -164.88 86.5 -162.94 88.57 -162.7 88.84 -160.55 91.14 -159.76 91.99 -158.39 93.46 -157.07 94.88 -154.09 98.08 -153.46 98.75 -151.2 101.18 -149.78 102.7 -147.15 105.52 -145.47 107.33 -145.32 107.49 -140.79 112.3"/>
      <polygon class="st4" points="-136.11 102.29 -136.13 111.05 -161.87 83.32 -153.29 74.23 -144.59 74.23 -153.37 83.53 -136.11 102.29"/>
    </g>
    <g>
      <path d="M-225.98,126.94l5.76-5.25h5.87l-8.01,6.91,8.89,7.06h-6.24l-6.26-5.32h-2.18v5.32h-4.25v-13.96h4.25v5.25h2.18Z"/>
      <path d="M-202.11,121.54l3.39.02c2.48,0,4.18.41,5.1,1.24.91.82,1.37,2.47,1.37,4.94v.67c0,2.9-.36,4.85-1.09,5.83-.73.98-2.56,1.48-5.51,1.48l-3.2.06-1.34.02-2.89-.1c-1.62,0-2.87-.37-3.75-1.1-.88-.73-1.32-1.92-1.32-3.55l-.04-2.58c0-2.83.36-4.69,1.09-5.56s2.45-1.31,5.17-1.31l3.01-.06ZM-204.42,132.32l2.28.04,2.18-.02c1.2,0,2.06-.13,2.59-.39.52-.26.79-.9.79-1.92l.04-1.89c0-.64-.04-1.19-.12-1.65-.08-.45-.23-.79-.47-1.01s-.59-.36-1.06-.43-.97-.1-1.5-.1l-4.23.02c-.96,0-1.7.1-2.2.29s-.79.61-.87,1.25c-.08.64-.12,1.17-.12,1.58v.94c0,1.29.15,2.16.45,2.6.3.45,1.04.67,2.23.67Z"/>
      <path d="M-175.9,121.69c1.67,0,2.87.32,3.59.97s1.08,1.8,1.08,3.44c0,.63-.03,1.17-.1,1.61-.07.45-.21.83-.42,1.16-.21.33-.45.57-.73.73-.28.16-.87.39-1.76.68.98.13,1.7.37,2.16.74.46.37.69,1.02.69,1.94v2.68h-4.31v-1.34c0-.68-.06-1.23-.18-1.63-.12-.4-.67-.61-1.66-.61h-7.1v3.58h-4.25v-13.96h13ZM-177.68,128.68c.96,0,1.56-.12,1.8-.36s.36-.77.36-1.59c0-.46-.05-.8-.14-1.03s-.28-.38-.56-.46c-.29-.08-.52-.13-.7-.15-.18-.01-.4-.02-.65-.02h-7.08v3.6h6.97Z"/>
      <path d="M-155.43,121.69c2.53,0,4.22.42,5.09,1.26.87.84,1.3,2.51,1.3,5.02v1.61c0,.66-.01,1.12-.03,1.38s-.1.81-.24,1.62c-.14.82-.62,1.53-1.44,2.15-.82.61-1.86.92-3.1.92h-13.88v-13.96h12.31ZM-153.34,128.71v-.13c0-1.36-.15-2.28-.46-2.75-.31-.47-1.13-.71-2.47-.71h-7.22v7.1h7.16c1.31,0,2.14-.24,2.48-.73.34-.49.51-1.41.51-2.78Z"/>
      <path d="M-127,121.69l-7.85,9.11v4.86h-4.27v-4.86l-7.98-9.11h5.37l4.73,5.76,4.69-5.76h5.31Z"/>
      <path d="M-112.38,135.65l-8.4-10.49v10.49h-4v-13.96h6.77l8.41,10.47v-10.47h4v13.96h-6.78Z"/>
      <path d="M-86.39,121.69v3.18h-11.33v2.39h10.57v2.76h-10.57v2.47h11.33v3.16h-15.58v-13.96h15.58Z"/>
    </g>
  </g>
  <g>
    <g>
      <polygon class="st1" points="-161.53 322.6 -165.39 326.69 -166.06 327.41 -166.89 328.28 -167.48 328.9 -178.68 328.9 -178.68 340.76 -179.39 341.51 -181.4 343.64 -182.75 345.07 -184.98 347.44 -184.98 333.48 -184.93 333.48 -184.98 333.42 -184.98 322.6 -161.53 322.6"/>
      <polygon class="st1" points="-134.32 322.6 -140.26 328.9 -153.25 328.9 -153.46 329.11 -154 329.68 -157.58 333.48 -158.33 334.28 -159.21 335.21 -159.76 335.79 -159.82 335.86 -162.67 338.87 -164.01 340.28 -166.06 338.07 -168.31 335.66 -167.89 335.21 -166.97 334.24 -166.25 333.48 -166.06 333.28 -164.13 331.24 -162.64 329.66 -161.93 328.9 -159.76 326.61 -158.3 325.06 -155.98 322.6 -134.32 322.6"/>
      <polygon class="st1" points="-170.02 355.84 -171.38 357.27 -172.37 358.32 -174.36 360.43 -175.71 361.86 -178.68 365 -180.05 366.46 -180.31 366.73 -183.39 369.99 -184.39 371.05 -184.98 371.68 -184.98 353.31 -184.33 352.62 -179.99 348.02 -179.8 347.82 -178.68 346.63 -178.64 346.59 -177.5 347.82 -174.33 351.22 -172.37 353.32 -172.21 353.5 -171.62 354.13 -170.02 355.84"/>
      <polygon class="st1" points="-140.79 371.55 -149.4 371.55 -153.46 367.25 -153.94 366.73 -154.12 366.54 -158.42 361.92 -159.76 360.49 -159.76 360.43 -159.82 360.43 -162.73 357.3 -164.89 354.98 -165.68 354.13 -166.06 353.72 -167.04 352.68 -169.22 350.34 -171.35 348.06 -171.56 347.82 -172.37 346.96 -175.65 343.44 -173.84 341.51 -172.37 339.95 -171.31 338.84 -168.82 341.51 -167.01 343.46 -166.06 344.47 -164.88 345.74 -162.94 347.82 -162.7 348.08 -160.55 350.38 -159.76 351.24 -158.39 352.7 -157.07 354.13 -154.09 357.33 -153.46 358 -151.2 360.43 -149.78 361.95 -147.15 364.77 -145.47 366.58 -145.32 366.73 -140.79 371.55"/>
      <polygon class="st1" points="-136.11 361.54 -136.13 370.29 -161.87 342.56 -153.29 333.48 -144.59 333.48 -153.37 342.78 -136.11 361.54"/>
    </g>
    <g>
      <path class="st1" d="M-225.98,386.19l5.76-5.25h5.87l-8.01,6.91,8.89,7.06h-6.24l-6.26-5.32h-2.18v5.32h-4.25v-13.96h4.25v5.25h2.18Z"/>
      <path class="st1" d="M-202.11,380.79l3.39.02c2.48,0,4.18.41,5.1,1.24.91.82,1.37,2.47,1.37,4.94v.67c0,2.9-.36,4.85-1.09,5.83-.73.98-2.56,1.48-5.51,1.48l-3.2.06-1.34.02-2.89-.1c-1.62,0-2.87-.37-3.75-1.1-.88-.73-1.32-1.92-1.32-3.55l-.04-2.58c0-2.83.36-4.69,1.09-5.56s2.45-1.31,5.17-1.31l3.01-.06ZM-204.42,391.57l2.28.04,2.18-.02c1.2,0,2.06-.13,2.59-.39.52-.26.79-.9.79-1.92l.04-1.89c0-.64-.04-1.19-.12-1.65-.08-.45-.23-.79-.47-1.01s-.59-.36-1.06-.43-.97-.1-1.5-.1l-4.23.02c-.96,0-1.7.1-2.2.29s-.79.61-.87,1.25c-.08.64-.12,1.17-.12,1.58v.94c0,1.29.15,2.16.45,2.6.3.45,1.04.67,2.23.67Z"/>
      <path class="st1" d="M-175.9,380.93c1.67,0,2.87.32,3.59.97s1.08,1.8,1.08,3.44c0,.63-.03,1.17-.1,1.61-.07.45-.21.83-.42,1.16-.21.33-.45.57-.73.73-.28.16-.87.39-1.76.68.98.13,1.7.37,2.16.74.46.37.69,1.02.69,1.94v2.68h-4.31v-1.34c0-.68-.06-1.23-.18-1.63-.12-.4-.67-.61-1.66-.61h-7.1v3.58h-4.25v-13.96h13ZM-177.68,387.93c.96,0,1.56-.12,1.8-.36s.36-.77.36-1.59c0-.46-.05-.8-.14-1.03s-.28-.38-.56-.46c-.29-.08-.52-.13-.7-.15-.18-.01-.4-.02-.65-.02h-7.08v3.6h6.97Z"/>
      <path class="st1" d="M-155.43,380.93c2.53,0,4.22.42,5.09,1.26.87.84,1.3,2.51,1.3,5.02v1.61c0,.66-.01,1.12-.03,1.38s-.1.81-.24,1.62c-.14.82-.62,1.53-1.44,2.15-.82.61-1.86.92-3.1.92h-13.88v-13.96h12.31ZM-153.34,387.96v-.13c0-1.36-.15-2.28-.46-2.75-.31-.47-1.13-.71-2.47-.71h-7.22v7.1h7.16c1.31,0,2.14-.24,2.48-.73.34-.49.51-1.41.51-2.78Z"/>
      <path class="st1" d="M-127,380.93l-7.85,9.11v4.86h-4.27v-4.86l-7.98-9.11h5.37l4.73,5.76,4.69-5.76h5.31Z"/>
      <path class="st1" d="M-112.38,394.9l-8.4-10.49v10.49h-4v-13.96h6.77l8.41,10.47v-10.47h4v13.96h-6.78Z"/>
      <path class="st1" d="M-86.39,380.93v3.18h-11.33v2.39h10.57v2.76h-10.57v2.47h11.33v3.16h-15.58v-13.96h15.58Z"/>
    </g>
  </g>
</svg>