<svg width="70" height="70" viewBox="0 0 70 70" fill="none" xmlns="http://www.w3.org/2000/svg">
<rect width="70" height="70" rx="35" fill="#00BDDE" fill-opacity="0.15"/>
<path d="M36.875 34.9997C36.875 35.3705 36.765 35.733 36.559 36.0414C36.353 36.3497 36.0601 36.59 35.7175 36.732C35.3749 36.8739 34.9979 36.911 34.6342 36.8387C34.2705 36.7663 33.9364 36.5877 33.6742 36.3255C33.412 36.0633 33.2334 35.7292 33.161 35.3655C33.0887 35.0018 33.1258 34.6248 33.2677 34.2822C33.4096 33.9395 33.65 33.6467 33.9583 33.4407C34.2666 33.2346 34.6292 33.1247 35 33.1247C35.4973 33.1247 35.9742 33.3222 36.3258 33.6739C36.6775 34.0255 36.875 34.5024 36.875 34.9997ZM28.125 33.1247C27.7542 33.1247 27.3916 33.2346 27.0833 33.4407C26.775 33.6467 26.5346 33.9395 26.3927 34.2822C26.2508 34.6248 26.2137 35.0018 26.286 35.3655C26.3584 35.7292 26.537 36.0633 26.7992 36.3255C27.0614 36.5877 27.3955 36.7663 27.7592 36.8387C28.1229 36.911 28.4999 36.8739 28.8425 36.732C29.1851 36.59 29.478 36.3497 29.684 36.0414C29.89 35.733 30 35.3705 30 34.9997C30 34.5024 29.8025 34.0255 29.4508 33.6739C29.0992 33.3222 28.6223 33.1247 28.125 33.1247ZM41.875 33.1247C41.5042 33.1247 41.1416 33.2346 40.8333 33.4407C40.525 33.6467 40.2846 33.9395 40.1427 34.2822C40.0008 34.6248 39.9637 35.0018 40.036 35.3655C40.1084 35.7292 40.287 36.0633 40.5492 36.3255C40.8114 36.5877 41.1455 36.7663 41.5092 36.8387C41.8729 36.911 42.2499 36.8739 42.5925 36.732C42.9351 36.59 43.228 36.3497 43.434 36.0414C43.64 35.733 43.75 35.3705 43.75 34.9997C43.75 34.5024 43.5525 34.0255 43.2008 33.6739C42.8492 33.3222 42.3723 33.1247 41.875 33.1247ZM51.25 34.9997C51.2506 37.8052 50.5249 40.5631 49.1434 43.0049C47.7619 45.4467 45.7718 47.4893 43.3667 48.9338C40.9616 50.3783 38.2236 51.1755 35.419 51.2478C32.6144 51.3202 29.8388 50.6652 27.3625 49.3466L22.0422 51.12C21.6017 51.2669 21.129 51.2882 20.6771 51.1816C20.2251 51.0749 19.8119 50.8445 19.4835 50.5162C19.1552 50.1878 18.9248 49.7745 18.8181 49.3226C18.7115 48.8707 18.7328 48.398 18.8797 47.9575L20.6531 42.6372C19.494 40.4579 18.8466 38.0431 18.76 35.5762C18.6734 33.1093 19.15 30.6551 20.1535 28.3999C21.1571 26.1447 22.6612 24.1477 24.5517 22.5606C26.4423 20.9735 28.6695 19.8379 31.0645 19.2401C33.4594 18.6423 35.9591 18.5979 38.3737 19.1104C40.7883 19.6229 43.0545 20.6787 45.0001 22.1978C46.9458 23.7168 48.5198 25.6591 49.6027 27.8773C50.6856 30.0955 51.249 32.5313 51.25 34.9997ZM48.75 34.9997C48.7494 32.8905 48.2636 30.8097 47.3301 28.9183C46.3967 27.027 45.0406 25.3757 43.3669 24.0922C41.6931 22.8088 39.7466 21.9276 37.6778 21.5168C35.609 21.1061 33.4734 21.1768 31.4363 21.7234C29.3992 22.2701 27.5151 23.2781 25.9299 24.6694C24.3447 26.0607 23.1008 27.798 22.2945 29.747C21.4881 31.6959 21.141 33.8043 21.2798 35.9089C21.4187 38.0135 22.0399 40.0579 23.0953 41.8841C23.1839 42.0374 23.2389 42.2077 23.2567 42.3839C23.2745 42.5601 23.2546 42.738 23.1984 42.9059L21.25 48.7497L27.0938 46.8012C27.221 46.7578 27.3546 46.7357 27.4891 46.7356C27.7086 46.736 27.9242 46.7942 28.1141 46.9044C30.2044 48.1138 32.5763 48.7513 34.9913 48.7528C37.4063 48.7544 39.7791 48.1198 41.8709 46.9131C43.9627 45.7063 45.6999 43.9699 46.9075 41.8785C48.1151 39.7872 48.7506 37.4146 48.75 34.9997Z" fill="#003040"/>
</svg>
