<svg width="70" height="70" viewBox="0 0 70 70" fill="none" xmlns="http://www.w3.org/2000/svg">
<rect width="70" height="70" rx="35" fill="#00BDDE" fill-opacity="0.15"/>
<path d="M47.5 21.25H22.5C21.837 21.25 21.2011 21.5134 20.7322 21.9822C20.2634 22.4511 20 23.087 20 23.75V32.5C20 40.7375 23.9875 45.7297 27.3328 48.4672C30.9359 51.4141 34.5203 52.4141 34.6766 52.4562C34.8914 52.5147 35.118 52.5147 35.3328 52.4562C35.4891 52.4141 39.0688 51.4141 42.6766 48.4672C46.0125 45.7297 50 40.7375 50 32.5V23.75C50 23.087 49.7366 22.4511 49.2678 21.9822C48.7989 21.5134 48.163 21.25 47.5 21.25ZM47.5 32.5C47.5 38.2922 45.3656 42.9937 41.1562 46.4719C39.3239 47.9808 37.2399 49.155 35 49.9406C32.7894 49.1687 30.7312 48.0153 28.9188 46.5328C24.6594 43.0484 22.5 38.3281 22.5 32.5V23.75H47.5V32.5ZM27.8656 37.1344C27.6311 36.8998 27.4993 36.5817 27.4993 36.25C27.4993 35.9183 27.6311 35.6002 27.8656 35.3656C28.1002 35.1311 28.4183 34.9993 28.75 34.9993C29.0817 34.9993 29.3998 35.1311 29.6344 35.3656L32.5 38.2328L40.3656 30.3656C40.4818 30.2495 40.6196 30.1574 40.7714 30.0945C40.9231 30.0317 41.0858 29.9993 41.25 29.9993C41.4142 29.9993 41.5769 30.0317 41.7286 30.0945C41.8804 30.1574 42.0182 30.2495 42.1344 30.3656C42.2505 30.4818 42.3426 30.6196 42.4055 30.7714C42.4683 30.9231 42.5007 31.0858 42.5007 31.25C42.5007 31.4142 42.4683 31.5769 42.4055 31.7286C42.3426 31.8804 42.2505 32.0182 42.1344 32.1344L33.3844 40.8844C33.2683 41.0006 33.1304 41.0928 32.9787 41.1557C32.8269 41.2186 32.6643 41.251 32.5 41.251C32.3357 41.251 32.1731 41.2186 32.0213 41.1557C31.8696 41.0928 31.7317 41.0006 31.6156 40.8844L27.8656 37.1344Z" fill="#003040"/>
</svg>
