<svg width="70" height="70" viewBox="0 0 70 70" fill="none" xmlns="http://www.w3.org/2000/svg">
<rect width="70" height="70" rx="35" fill="#00BDDE" fill-opacity="0.15"/>
<path d="M33.3201 39.6751C34.9955 38.5598 36.2674 36.935 36.9478 35.0408C37.6282 33.1467 37.681 31.0839 37.0984 29.1575C36.5158 27.231 35.3287 25.5432 33.7127 24.3436C32.0966 23.144 30.1375 22.4963 28.1248 22.4963C26.1122 22.4963 24.153 23.144 22.537 24.3436C20.9209 25.5432 19.7338 27.231 19.1512 29.1575C18.5686 31.0839 18.6214 33.1467 19.3019 35.0408C19.9823 36.935 21.2542 38.5598 22.9295 39.6751C19.899 40.7921 17.3109 42.8589 15.5514 45.5673C15.4589 45.7048 15.3947 45.8592 15.3624 46.0217C15.3302 46.1842 15.3305 46.3515 15.3635 46.5138C15.3965 46.6762 15.4614 46.8303 15.5544 46.9674C15.6475 47.1044 15.7669 47.2216 15.9056 47.3121C16.0444 47.4026 16.1997 47.4646 16.3627 47.4945C16.5256 47.5245 16.6928 47.5217 16.8547 47.4864C17.0166 47.4512 17.1698 47.3841 17.3055 47.289C17.4412 47.194 17.5566 47.073 17.6451 46.933C18.7801 45.1873 20.3332 43.7528 22.1633 42.7598C23.9935 41.7668 26.0427 41.2466 28.1248 41.2466C30.207 41.2466 32.2562 41.7668 34.0863 42.7598C35.9165 43.7528 37.4695 45.1873 38.6045 46.933C38.7879 47.2054 39.0711 47.3948 39.3929 47.4602C39.7148 47.5255 40.0494 47.4616 40.3245 47.2821C40.5996 47.1027 40.793 46.8223 40.863 46.5014C40.9329 46.1805 40.8737 45.8449 40.6983 45.5673C38.9387 42.8589 36.3506 40.7921 33.3201 39.6751ZM21.2498 31.8751C21.2498 30.5154 21.653 29.1862 22.4085 28.0556C23.1639 26.925 24.2376 26.0438 25.4939 25.5235C26.7501 25.0031 28.1325 24.867 29.4661 25.1322C30.7997 25.3975 32.0247 26.0523 32.9862 27.0138C33.9477 27.9753 34.6025 29.2003 34.8677 30.5339C35.133 31.8675 34.9969 33.2498 34.4765 34.5061C33.9562 35.7623 33.075 36.8361 31.9444 37.5915C30.8138 38.3469 29.4846 38.7501 28.1248 38.7501C26.3021 38.7481 24.5546 38.0231 23.2658 36.7342C21.9769 35.4454 21.2519 33.6979 21.2498 31.8751ZM54.0842 47.297C53.8066 47.4781 53.4683 47.5414 53.144 47.4732C52.8196 47.4049 52.5356 47.2106 52.3545 46.933C51.2209 45.1863 49.668 43.7512 47.8375 42.7585C46.007 41.7659 43.9571 41.2474 41.8748 41.2501C41.5433 41.2501 41.2254 41.1184 40.9909 40.884C40.7565 40.6496 40.6248 40.3317 40.6248 40.0001C40.6248 39.6686 40.7565 39.3507 40.9909 39.1163C41.2254 38.8818 41.5433 38.7501 41.8748 38.7501C42.8873 38.7492 43.887 38.5246 44.8026 38.0925C45.7182 37.6604 46.5271 37.0314 47.1714 36.2504C47.8158 35.4694 48.2796 34.5558 48.5299 33.5748C48.7802 32.5938 48.8108 31.5696 48.6194 30.5754C48.428 29.5812 48.0193 28.6415 47.4227 27.8236C46.826 27.0056 46.0561 26.3295 45.1678 25.8436C44.2796 25.3577 43.295 25.074 42.2844 25.0127C41.2738 24.9515 40.2621 25.1142 39.3217 25.4892C39.1684 25.5555 39.0033 25.5904 38.8363 25.5918C38.6692 25.5932 38.5036 25.5611 38.3492 25.4974C38.1947 25.4337 38.0546 25.3397 37.9371 25.221C37.8196 25.1023 37.7272 24.9612 37.6651 24.8061C37.6031 24.651 37.5727 24.485 37.5759 24.318C37.5791 24.151 37.6157 23.9863 37.6837 23.8337C37.7516 23.681 37.8494 23.5436 37.9713 23.4294C38.0933 23.3152 38.2368 23.2266 38.3936 23.1689C40.5459 22.3105 42.9398 22.2796 45.1135 23.0822C47.2872 23.8847 49.0867 25.4638 50.1648 27.5149C51.243 29.5659 51.5233 31.9435 50.9519 34.1891C50.3804 36.4346 48.9976 38.389 47.0701 39.6751C50.1006 40.7921 52.6887 42.8589 54.4483 45.5673C54.6293 45.845 54.6927 46.1832 54.6244 46.5076C54.5561 46.8319 54.3618 47.1159 54.0842 47.297Z" fill="#003040"/>
</svg>
