<svg width="70" height="70" viewBox="0 0 70 70" fill="none" xmlns="http://www.w3.org/2000/svg">
<rect width="70" height="70" rx="35" fill="#00BDDE" fill-opacity="0.15"/>
<path d="M47.5 27.5H42.5V23.75C42.5 21.7609 41.7098 19.8532 40.3033 18.4467C38.8968 17.0402 36.9891 16.25 35 16.25C33.0109 16.25 31.1032 17.0402 29.6967 18.4467C28.2902 19.8532 27.5 21.7609 27.5 23.75V27.5H22.5C21.837 27.5 21.2011 27.7634 20.7322 28.2322C20.2634 28.7011 20 29.337 20 30V47.5C20 48.163 20.2634 48.7989 20.7322 49.2678C21.2011 49.7366 21.837 50 22.5 50H47.5C48.163 50 48.7989 49.7366 49.2678 49.2678C49.7366 48.7989 50 48.163 50 47.5V30C50 29.337 49.7366 28.7011 49.2678 28.2322C48.7989 27.7634 48.163 27.5 47.5 27.5ZM30 23.75C30 22.4239 30.5268 21.1521 31.4645 20.2145C32.4021 19.2768 33.6739 18.75 35 18.75C36.3261 18.75 37.5979 19.2768 38.5355 20.2145C39.4732 21.1521 40 22.4239 40 23.75V27.5H30V23.75ZM47.5 47.5H22.5V30H47.5V47.5ZM36.875 38.75C36.875 39.1208 36.765 39.4834 36.559 39.7917C36.353 40.1 36.0601 40.3404 35.7175 40.4823C35.3749 40.6242 34.9979 40.6613 34.6342 40.589C34.2705 40.5166 33.9364 40.338 33.6742 40.0758C33.412 39.8136 33.2334 39.4795 33.161 39.1158C33.0887 38.7521 33.1258 38.3751 33.2677 38.0325C33.4096 37.6899 33.65 37.397 33.9583 37.191C34.2666 36.985 34.6292 36.875 35 36.875C35.4973 36.875 35.9742 37.0725 36.3258 37.4242C36.6775 37.7758 36.875 38.2527 36.875 38.75Z" fill="#003040"/>
</svg>
