<svg width="34" height="34" viewBox="0 0 34 34" fill="none" xmlns="http://www.w3.org/2000/svg">
<path d="M32.5122 19.9749C32.4006 20.0586 32.2736 20.1195 32.1384 20.1541C32.0033 20.1888 31.8626 20.1964 31.7245 20.1767C31.5863 20.157 31.4535 20.1102 31.3334 20.0391C31.2133 19.9681 31.1084 19.874 31.0247 19.7624C30.3843 18.9016 29.5508 18.2032 28.5911 17.7233C27.6315 17.2435 26.5726 16.9957 25.4997 16.9999C25.2908 16.9999 25.0865 16.9383 24.9124 16.8227C24.7383 16.7072 24.6021 16.5429 24.5209 16.3504C24.4657 16.2197 24.4373 16.0793 24.4373 15.9374C24.4373 15.7955 24.4657 15.6551 24.5209 15.5243C24.6021 15.3318 24.7383 15.1676 24.9124 15.052C25.0865 14.9365 25.2908 14.8749 25.4997 14.8749C26.0959 14.8748 26.6801 14.7076 27.186 14.3922C27.6918 14.0767 28.0991 13.6258 28.3615 13.0905C28.624 12.5552 28.731 11.957 28.6705 11.3639C28.61 10.7709 28.3844 10.2066 28.0193 9.73534C27.6542 9.26406 27.1643 8.9046 26.6051 8.6978C26.046 8.49101 25.4401 8.44516 24.8562 8.56548C24.2723 8.68579 23.7338 8.96744 23.302 9.37843C22.8701 9.78943 22.5622 10.3133 22.4132 10.8905C22.3783 11.0257 22.3171 11.1527 22.2332 11.2642C22.1492 11.3757 22.0441 11.4696 21.9239 11.5405C21.8036 11.6115 21.6706 11.658 21.5324 11.6775C21.3941 11.697 21.2534 11.6891 21.1182 11.6542C20.9831 11.6193 20.8561 11.5581 20.7446 11.4742C20.633 11.3902 20.5391 11.2851 20.4682 11.1649C20.3973 11.0446 20.3508 10.9116 20.3313 10.7734C20.3118 10.6352 20.3197 10.4944 20.3546 10.3593C20.5614 9.55882 20.9523 8.81771 21.496 8.19489C22.0396 7.57207 22.7212 7.08474 23.4864 6.77167C24.2515 6.4586 25.0792 6.32844 25.9035 6.39153C26.7279 6.45463 27.5261 6.70925 28.2347 7.13513C28.9433 7.561 29.5427 8.14639 29.9853 8.8447C30.4279 9.54301 30.7014 10.335 30.784 11.1576C30.8666 11.9802 30.7561 12.8107 30.4613 13.5831C30.1664 14.3555 29.6954 15.0484 29.0857 15.6067C30.5304 16.2322 31.7864 17.2249 32.7287 18.4861C32.8124 18.598 32.8732 18.7253 32.9077 18.8607C32.9421 18.9962 32.9495 19.1371 32.9294 19.2754C32.9093 19.4137 32.8621 19.5467 32.7905 19.6667C32.7189 19.7867 32.6243 19.8915 32.5122 19.9749ZM25.3563 28.1561C25.4332 28.2771 25.4848 28.4123 25.508 28.5537C25.5313 28.6951 25.5257 28.8397 25.4916 28.9789C25.4575 29.1181 25.3956 29.249 25.3097 29.3636C25.2237 29.4782 25.1154 29.5743 24.9914 29.646C24.8673 29.7177 24.73 29.7636 24.5878 29.7809C24.4455 29.7982 24.3012 29.7865 24.1636 29.7466C24.026 29.7066 23.8979 29.6393 23.7869 29.5486C23.676 29.4578 23.5846 29.3456 23.5182 29.2186C22.8489 28.0853 21.8956 27.1461 20.7525 26.4936C19.6094 25.8411 18.3159 25.4979 16.9997 25.4979C15.6835 25.4979 14.3901 25.8411 13.2469 26.4936C12.1038 27.1461 11.1506 28.0853 10.4813 29.2186C10.4149 29.3456 10.3235 29.4578 10.2125 29.5486C10.1016 29.6393 9.97349 29.7066 9.83587 29.7466C9.69824 29.7865 9.55396 29.7982 9.41171 29.7809C9.26946 29.7636 9.13217 29.7177 9.00811 29.646C8.88404 29.5743 8.77577 29.4782 8.6898 29.3636C8.60382 29.249 8.54193 29.1181 8.50784 28.9789C8.47375 28.8397 8.46816 28.6951 8.49142 28.5537C8.51467 28.4123 8.56629 28.2771 8.64317 28.1561C9.67326 26.3863 11.2439 24.9934 13.1243 24.1824C12.0662 23.3723 11.2886 22.251 10.9007 20.9761C10.5129 19.7012 10.5343 18.3368 10.962 17.0747C11.3896 15.8126 12.2021 14.7162 13.2851 13.9397C14.368 13.1632 15.6671 12.7456 16.9997 12.7456C18.3323 12.7456 19.6314 13.1632 20.7144 13.9397C21.7974 14.7162 22.6098 15.8126 23.0375 17.0747C23.4652 18.3368 23.4866 19.7012 23.0987 20.9761C22.7109 22.251 21.9333 23.3723 20.8752 24.1824C22.7556 24.9934 24.3262 26.3863 25.3563 28.1561ZM16.9997 23.3749C17.8403 23.3749 18.662 23.1256 19.3609 22.6586C20.0598 22.1916 20.6045 21.5279 20.9262 20.7513C21.2479 19.9747 21.3321 19.1202 21.1681 18.2958C21.0041 17.4713 20.5993 16.7141 20.0049 16.1197C19.4106 15.5253 18.6533 15.1205 17.8289 14.9566C17.0044 14.7926 16.1499 14.8767 15.3733 15.1984C14.5967 15.5201 13.933 16.0648 13.466 16.7637C12.999 17.4626 12.7497 18.2843 12.7497 19.1249C12.7497 20.2521 13.1975 21.3331 13.9945 22.1301C14.7916 22.9271 15.8726 23.3749 16.9997 23.3749ZM9.56223 15.9374C9.56223 15.6556 9.45029 15.3853 9.25103 15.1861C9.05177 14.9868 8.78152 14.8749 8.49973 14.8749C7.90357 14.8748 7.31938 14.7076 6.8135 14.3922C6.30763 14.0767 5.90035 13.6258 5.63793 13.0905C5.37551 12.5552 5.26847 11.957 5.32896 11.3639C5.38946 10.7709 5.61506 10.2066 5.98016 9.73534C6.34525 9.26406 6.83519 8.9046 7.39433 8.6978C7.95347 8.49101 8.5594 8.44516 9.1433 8.56548C9.72719 8.68579 10.2656 8.96744 10.6975 9.37843C11.1293 9.78943 11.4373 10.3133 11.5863 10.8905C11.6567 11.1635 11.8327 11.3973 12.0756 11.5405C12.3184 11.6838 12.6082 11.7246 12.8812 11.6542C13.1542 11.5837 13.388 11.4077 13.5312 11.1649C13.6745 10.922 13.7153 10.6323 13.6449 10.3593C13.438 9.55882 13.0472 8.81771 12.5035 8.19489C11.9598 7.57207 11.2783 7.08474 10.5131 6.77167C9.74794 6.4586 8.92026 6.32844 8.09593 6.39153C7.2716 6.45463 6.47337 6.70925 5.76476 7.13513C5.05615 7.561 4.45671 8.14639 4.01415 8.8447C3.57159 9.54301 3.29811 10.335 3.21548 11.1576C3.13285 11.9802 3.24335 12.8107 3.53818 13.5831C3.83301 14.3555 4.30404 15.0484 4.91379 15.6067C3.4705 16.2328 2.21599 17.2254 1.27473 18.4861C1.10548 18.7115 1.03271 18.9949 1.07244 19.274C1.11217 19.5531 1.26113 19.805 1.48657 19.9742C1.712 20.1435 1.99544 20.2162 2.27452 20.1765C2.55361 20.1368 2.80548 19.9878 2.97473 19.7624C3.61514 18.9016 4.4487 18.2032 5.40833 17.7233C6.36796 17.2435 7.42684 16.9957 8.49973 16.9999C8.78152 16.9999 9.05177 16.8879 9.25103 16.6887C9.45029 16.4894 9.56223 16.2192 9.56223 15.9374Z" fill="white"/>
</svg>
