<svg width="34" height="34" viewBox="0 0 34 34" fill="none" xmlns="http://www.w3.org/2000/svg">
<path d="M29.7075 8.78548L18.02 2.39056C17.7077 2.21801 17.3568 2.1275 17 2.1275C16.6432 2.1275 16.2923 2.21801 15.98 2.39056L4.2925 8.78814C3.95873 8.97076 3.68011 9.23965 3.48573 9.56672C3.29136 9.89379 3.18836 10.267 3.1875 10.6475V23.3497C3.18836 23.7302 3.29136 24.1034 3.48573 24.4305C3.68011 24.7576 3.95873 25.0264 4.2925 25.2091L15.98 31.6067C16.2923 31.7792 16.6432 31.8697 17 31.8697C17.3568 31.8697 17.7077 31.7792 18.02 31.6067L29.7075 25.2091C30.0413 25.0264 30.3199 24.7576 30.5143 24.4305C30.7086 24.1034 30.8116 23.7302 30.8125 23.3497V10.6488C30.8123 10.2677 30.7097 9.89361 30.5153 9.56577C30.3209 9.23794 30.0419 8.96843 29.7075 8.78548ZM17 4.24993L27.6702 10.0937L23.7163 12.2585L13.0448 6.41478L17 4.24993ZM17 15.9374L6.32984 10.0937L10.8322 7.62868L21.5023 13.4724L17 15.9374ZM5.3125 11.9531L15.9375 17.7676V29.1616L5.3125 23.351V11.9531ZM28.6875 23.3457L18.0625 29.1616V17.7729L22.3125 15.4474V20.1874C22.3125 20.4692 22.4244 20.7395 22.6237 20.9387C22.823 21.138 23.0932 21.2499 23.375 21.2499C23.6568 21.2499 23.927 21.138 24.1263 20.9387C24.3256 20.7395 24.4375 20.4692 24.4375 20.1874V14.2839L28.6875 11.9531V23.3444V23.3457Z" fill="white"/>
</svg>
