<svg width="34" height="34" viewBox="0 0 34 34" fill="none" xmlns="http://www.w3.org/2000/svg">
<path d="M28.3767 8.81078L23.0642 3.49828C22.9655 3.39965 22.8483 3.32143 22.7193 3.26811C22.5903 3.21478 22.4521 3.18739 22.3125 3.1875H11.6875C11.1239 3.1875 10.5834 3.41138 10.1849 3.8099C9.78638 4.20841 9.5625 4.74892 9.5625 5.3125V7.4375H7.4375C6.87391 7.4375 6.33341 7.66138 5.9349 8.0599C5.53638 8.45841 5.3125 8.99892 5.3125 9.5625V28.6875C5.3125 29.2511 5.53638 29.7916 5.9349 30.1901C6.33341 30.5886 6.87391 30.8125 7.4375 30.8125H22.3125C22.8761 30.8125 23.4166 30.5886 23.8151 30.1901C24.2136 29.7916 24.4375 29.2511 24.4375 28.6875V26.5625H26.5625C27.1261 26.5625 27.6666 26.3386 28.0651 25.9401C28.4636 25.5416 28.6875 25.0011 28.6875 24.4375V9.5625C28.6876 9.42293 28.6602 9.28471 28.6069 9.15572C28.5536 9.02674 28.4754 8.90953 28.3767 8.81078ZM22.3125 28.6875H7.4375V9.5625H17.6229L22.3125 14.2521V25.4788C22.3125 25.4867 22.3125 25.4934 22.3125 25.5C22.3125 25.5066 22.3125 25.5133 22.3125 25.5212V28.6875ZM26.5625 24.4375H24.4375V13.8125C24.4376 13.6729 24.4102 13.5347 24.3569 13.4057C24.3036 13.2767 24.2254 13.1595 24.1267 13.0608L18.8142 7.74828C18.7155 7.64965 18.5983 7.57143 18.4693 7.51811C18.3403 7.46478 18.2021 7.43739 18.0625 7.4375H11.6875V5.3125H21.8729L26.5625 10.0021V24.4375ZM19.125 20.1875C19.125 20.4693 19.0131 20.7395 18.8138 20.9388C18.6145 21.1381 18.3443 21.25 18.0625 21.25H11.6875C11.4057 21.25 11.1355 21.1381 10.9362 20.9388C10.7369 20.7395 10.625 20.4693 10.625 20.1875C10.625 19.9057 10.7369 19.6355 10.9362 19.4362C11.1355 19.2369 11.4057 19.125 11.6875 19.125H18.0625C18.3443 19.125 18.6145 19.2369 18.8138 19.4362C19.0131 19.6355 19.125 19.9057 19.125 20.1875ZM19.125 24.4375C19.125 24.7193 19.0131 24.9895 18.8138 25.1888C18.6145 25.3881 18.3443 25.5 18.0625 25.5H11.6875C11.4057 25.5 11.1355 25.3881 10.9362 25.1888C10.7369 24.9895 10.625 24.7193 10.625 24.4375C10.625 24.1557 10.7369 23.8855 10.9362 23.6862C11.1355 23.4869 11.4057 23.375 11.6875 23.375H18.0625C18.3443 23.375 18.6145 23.4869 18.8138 23.6862C19.0131 23.8855 19.125 24.1557 19.125 24.4375Z" fill="white"/>
</svg>
