<svg width="80" height="80" viewBox="0 0 80 80" fill="none" xmlns="http://www.w3.org/2000/svg">
<rect width="80" height="80" rx="40" fill="#003040"/>
<path d="M40 22.125C36.4647 22.125 33.0087 23.1734 30.0692 25.1375C27.1297 27.1016 24.8386 29.8933 23.4857 33.1595C22.1327 36.4258 21.7788 40.0198 22.4685 43.4872C23.1582 46.9547 24.8606 50.1397 27.3605 52.6395C29.8603 55.1394 33.0454 56.8418 36.5128 57.5315C39.9802 58.2212 43.5742 57.8673 46.8405 56.5143C50.1067 55.1614 52.8984 52.8703 54.8625 49.9308C56.8267 46.9913 57.875 43.5353 57.875 40C57.8695 35.2609 55.9845 30.7175 52.6335 27.3665C49.2825 24.0155 44.7391 22.1305 40 22.125ZM55.0597 38.625H48.2139C47.9063 32.3498 45.4897 27.912 43.508 25.2875C46.585 26.0264 49.3536 27.7099 51.4256 30.1017C53.4975 32.4936 54.7689 35.474 55.0614 38.625H55.0597ZM34.5395 41.375H45.4605C45.0634 48.5267 41.6397 52.9095 40 54.6094C38.3586 52.9078 34.9366 48.525 34.5395 41.375ZM34.5395 38.625C34.9366 31.4733 38.3603 27.0905 40 25.3906C41.6414 27.0973 45.0634 31.4802 45.4605 38.625H34.5395ZM36.492 25.2875C34.5103 27.912 32.0938 32.3498 31.7861 38.625H24.9386C25.2311 35.474 26.5025 32.4936 28.5744 30.1017C30.6464 27.7099 33.415 26.0264 36.492 25.2875ZM24.9386 41.375H31.7861C32.0989 47.6502 34.5103 52.088 36.492 54.7125C33.415 53.9736 30.6464 52.2901 28.5744 49.8983C26.5025 47.5064 25.2311 44.526 24.9386 41.375ZM43.5011 54.7125C45.4828 52.088 47.8942 47.6502 48.207 41.375H55.0545C54.7625 44.5251 53.4921 47.5048 51.4215 49.8966C49.3508 52.2884 46.5837 53.9723 43.508 54.7125H43.5011Z" fill="white"/>
</svg>
