<svg preserveAspectRatio="none" width="100%" height="100%" overflow="visible" style="display: block;" viewBox="0 0 18 14.4107" fill="none" xmlns="http://www.w3.org/2000/svg">
<path id="Vector" d="M3.444 0.201824C3.3913 0.142429 3.32735 0.0940823 3.25584 0.0595865C3.18432 0.0250908 3.10667 0.00513174 3.02739 0.000866424C2.94811 -0.00339889 2.86876 0.0081142 2.79396 0.0347385C2.71916 0.0613629 2.65039 0.102569 2.59163 0.155968C2.53287 0.209368 2.48529 0.273898 2.45166 0.34582C2.41802 0.417742 2.39899 0.495625 2.39568 0.574954C2.39236 0.654283 2.40483 0.733482 2.43235 0.807959C2.45987 0.882436 2.50189 0.95071 2.55599 1.00882L3.999 2.59658C1.27499 4.26833 0.103493 6.84533 0.0517429 6.96233C0.0176277 7.03906 0 7.1221 0 7.20608C0 7.29005 0.0176277 7.3731 0.0517429 7.44983C0.0779929 7.50908 0.713243 8.91758 2.12549 10.3298C4.00725 12.2108 6.384 13.2053 9 13.2053C10.3445 13.213 11.6753 12.9362 12.9053 12.3931L14.5553 14.2088C14.6079 14.2682 14.6719 14.3166 14.7434 14.3511C14.8149 14.3856 14.8926 14.4055 14.9719 14.4098C15.0511 14.4141 15.1305 14.4025 15.2053 14.3759C15.2801 14.3493 15.3489 14.3081 15.4076 14.2547C15.4664 14.2013 15.514 14.1368 15.5476 14.0648C15.5812 13.9929 15.6003 13.915 15.6036 13.8357C15.6069 13.7564 15.5944 13.6772 15.5669 13.6027C15.5394 13.5282 15.4974 13.4599 15.4433 13.4018L3.444 0.201824ZM6.99375 5.88983L10.119 9.32858C9.64837 9.57617 9.10884 9.66044 8.58512 9.56816C8.06141 9.47588 7.58317 9.21227 7.22551 8.81874C6.86785 8.4252 6.65102 7.92402 6.60908 7.39389C6.56713 6.86377 6.70243 6.33472 6.99375 5.88983ZM9 12.0053C6.6915 12.0053 4.67475 11.1661 3.00525 9.51158C2.31998 8.83057 1.73716 8.05372 1.27499 7.20533C1.62674 6.54608 2.74949 4.70108 4.82625 3.50183L6.17625 4.98308C5.6536 5.65246 5.38442 6.48505 5.4163 7.33371C5.44817 8.18236 5.77904 8.99242 6.35042 9.62071C6.92181 10.249 7.69692 10.6551 8.53874 10.7671C9.38057 10.8792 10.2349 10.69 10.9508 10.2331L12.0555 11.4481C11.0805 11.8222 10.0443 12.0111 9 12.0053ZM9.45 4.84808C9.29365 4.81824 9.15557 4.72752 9.06611 4.59587C8.97666 4.46422 8.94316 4.30242 8.973 4.14608C9.00284 3.98973 9.09356 3.85164 9.22521 3.76219C9.35686 3.67273 9.51866 3.63924 9.675 3.66908C10.4397 3.81733 11.136 4.20881 11.66 4.78514C12.184 5.36147 12.5077 6.09176 12.5828 6.86708C12.5976 7.02551 12.5488 7.18334 12.4473 7.30585C12.3457 7.42836 12.1997 7.50551 12.0413 7.52033C12.0225 7.52143 12.0037 7.52143 11.985 7.52033C11.835 7.52097 11.6903 7.46543 11.5792 7.36465C11.4682 7.26387 11.3989 7.12515 11.385 6.97583C11.3345 6.46012 11.1189 5.97449 10.7703 5.59113C10.4216 5.20778 9.95861 4.94718 9.45 4.84808ZM17.946 7.44983C17.9145 7.52033 17.1548 9.20258 15.444 10.7348C15.3855 10.7889 15.3169 10.8307 15.2421 10.858C15.1674 10.8852 15.0879 10.8973 15.0084 10.8935C14.9289 10.8898 14.8509 10.8702 14.779 10.836C14.7072 10.8018 14.6428 10.7537 14.5897 10.6944C14.5366 10.6351 14.4959 10.5658 14.4698 10.4906C14.4438 10.4154 14.4329 10.3357 14.438 10.2563C14.443 10.1768 14.4638 10.0992 14.4991 10.0279C14.5344 9.95655 14.5836 9.89297 14.6438 9.84083C15.483 9.08679 16.1881 8.19561 16.7288 7.20533C16.2656 6.35616 15.6815 5.57879 14.9948 4.89758C13.3253 3.24458 11.3085 2.40533 9 2.40533C8.51359 2.40473 8.02796 2.44411 7.548 2.52308C7.46995 2.53688 7.38994 2.53508 7.31259 2.51778C7.23523 2.50049 7.16208 2.46804 7.09734 2.42231C7.0326 2.37658 6.97756 2.31847 6.93541 2.25135C6.89325 2.18423 6.86481 2.10942 6.85174 2.03125C6.83866 1.95307 6.8412 1.87308 6.85921 1.79589C6.87722 1.71871 6.91035 1.64585 6.95668 1.58154C7.00301 1.51723 7.06162 1.46273 7.12913 1.4212C7.19664 1.37967 7.27171 1.35193 7.35 1.33957C7.89537 1.24953 8.44724 1.20462 9 1.20532C11.616 1.20532 13.9928 2.19983 15.8745 4.08158C17.2868 5.49383 17.922 6.90308 17.9483 6.96233C17.9824 7.03906 18 7.1221 18 7.20608C18 7.29005 17.9824 7.3731 17.9483 7.44983H17.946Z" fill="var(--fill-0, white)" fill-opacity="0.8"/>
</svg>
