<svg width="50" height="50" viewBox="0 0 50 50" fill="none" xmlns="http://www.w3.org/2000/svg">
<rect width="50" height="50" rx="25" fill="white"/>
<path d="M33.522 15.625H16.4765C16.0244 15.625 15.5909 15.8046 15.2712 16.1242C14.9516 16.4439 14.772 16.8775 14.772 17.3295V23.2955C14.772 28.9119 17.4907 32.3157 19.7716 34.1822C22.2283 36.1914 24.6722 36.8732 24.7787 36.902C24.9252 36.9418 25.0797 36.9418 25.2262 36.902C25.3327 36.8732 27.7734 36.1914 30.2333 34.1822C32.5078 32.3157 35.2265 28.9119 35.2265 23.2955V17.3295C35.2265 16.8775 35.0469 16.4439 34.7273 16.1242C34.4076 15.8046 33.974 15.625 33.522 15.625ZM33.522 23.2955C33.522 27.2447 32.0667 30.4503 29.1967 32.8217C27.9473 33.8505 26.5265 34.6511 24.9992 35.1868C23.492 34.6605 22.0887 33.8741 20.8529 32.8633C17.9488 30.4876 16.4765 27.2692 16.4765 23.2955V17.3295H33.522V23.2955ZM20.1349 26.4553C19.975 26.2953 19.8851 26.0784 19.8851 25.8523C19.8851 25.6261 19.975 25.4092 20.1349 25.2493C20.2948 25.0894 20.5117 24.9995 20.7379 24.9995C20.964 24.9995 21.1809 25.0894 21.3409 25.2493L23.2947 27.2042L28.6576 21.8402C28.7368 21.761 28.8308 21.6982 28.9343 21.6553C29.0377 21.6125 29.1486 21.5904 29.2606 21.5904C29.3726 21.5904 29.4835 21.6125 29.5869 21.6553C29.6904 21.6982 29.7844 21.761 29.8636 21.8402C29.9428 21.9194 30.0056 22.0134 30.0484 22.1168C30.0913 22.2203 30.1134 22.3312 30.1134 22.4432C30.1134 22.5552 30.0913 22.6661 30.0484 22.7695C30.0056 22.873 29.9428 22.967 29.8636 23.0462L23.8977 29.0121C23.8185 29.0913 23.7245 29.1542 23.6211 29.1971C23.5176 29.24 23.4067 29.262 23.2947 29.262C23.1827 29.262 23.0718 29.24 22.9683 29.1971C22.8649 29.1542 22.7709 29.0913 22.6917 29.0121L20.1349 26.4553Z" fill="#003040"/>
</svg>
