<svg width="60" height="60" viewBox="0 0 60 60" fill="none" xmlns="http://www.w3.org/2000/svg">
<rect width="60" height="60" rx="30" fill="#003040"/>
<path d="M42.7075 21.7854L31.02 15.3905C30.7077 15.2179 30.3568 15.1274 30 15.1274C29.6432 15.1274 29.2923 15.2179 28.98 15.3905L17.2925 21.7881C16.9587 21.9707 16.6801 22.2396 16.4857 22.5667C16.2914 22.8937 16.1884 23.267 16.1875 23.6474V36.3496C16.1884 36.7301 16.2914 37.1034 16.4857 37.4304C16.6801 37.7575 16.9587 38.0264 17.2925 38.209L28.98 44.6066C29.2923 44.7791 29.6432 44.8696 30 44.8696C30.3568 44.8696 30.7077 44.7791 31.02 44.6066L42.7075 38.209C43.0413 38.0264 43.3199 37.7575 43.5143 37.4304C43.7086 37.1034 43.8116 36.7301 43.8125 36.3496V23.6488C43.8123 23.2676 43.7097 22.8935 43.5153 22.5657C43.3209 22.2379 43.0419 21.9684 42.7075 21.7854ZM30 17.2499L40.6702 23.0936L36.7163 25.2585L26.0448 19.4147L30 17.2499ZM30 28.9374L19.3298 23.0936L23.8322 20.6286L34.5023 26.4724L30 28.9374ZM18.3125 24.953L28.9375 30.7675V42.1615L18.3125 36.351V24.953ZM41.6875 36.3457L31.0625 42.1615V30.7728L35.3125 28.4473V33.1874C35.3125 33.4692 35.4244 33.7394 35.6237 33.9387C35.823 34.1379 36.0932 34.2499 36.375 34.2499C36.6568 34.2499 36.927 34.1379 37.1263 33.9387C37.3256 33.7394 37.4375 33.4692 37.4375 33.1874V27.2839L41.6875 24.953V36.3443V36.3457Z" fill="white"/>
</svg>
