<svg width="60" height="60" viewBox="0 0 60 60" fill="none" xmlns="http://www.w3.org/2000/svg">
<rect width="60" height="60" rx="30" fill="#003040"/>
<path d="M41.3767 23.9358L33.9392 16.4983C33.8405 16.3996 33.7233 16.3214 33.5943 16.2681C33.4653 16.2148 33.3271 16.1874 33.1875 16.1875H20.4375C19.8739 16.1875 19.3334 16.4114 18.9349 16.8099C18.5364 17.2084 18.3125 17.7489 18.3125 18.3125V41.6875C18.3125 42.2511 18.5364 42.7916 18.9349 43.1901C19.3334 43.5886 19.8739 43.8125 20.4375 43.8125H39.5625C40.1261 43.8125 40.6666 43.5886 41.0651 43.1901C41.4636 42.7916 41.6875 42.2511 41.6875 41.6875V24.6875C41.6876 24.5479 41.6602 24.4097 41.6069 24.2807C41.5536 24.1517 41.4754 24.0345 41.3767 23.9358ZM34.25 19.8146L38.0604 23.625H34.25V19.8146ZM39.5625 41.6875H20.4375V18.3125H32.125V24.6875C32.125 24.9693 32.2369 25.2395 32.4362 25.4388C32.6355 25.6381 32.9057 25.75 33.1875 25.75H39.5625V41.6875ZM35.3125 31.0625C35.3125 31.3443 35.2006 31.6145 35.0013 31.8138C34.802 32.0131 34.5318 32.125 34.25 32.125H25.75C25.4682 32.125 25.198 32.0131 24.9987 31.8138C24.7994 31.6145 24.6875 31.3443 24.6875 31.0625C24.6875 30.7807 24.7994 30.5105 24.9987 30.3112C25.198 30.1119 25.4682 30 25.75 30H34.25C34.5318 30 34.802 30.1119 35.0013 30.3112C35.2006 30.5105 35.3125 30.7807 35.3125 31.0625ZM35.3125 35.3125C35.3125 35.5943 35.2006 35.8645 35.0013 36.0638C34.802 36.2631 34.5318 36.375 34.25 36.375H25.75C25.4682 36.375 25.198 36.2631 24.9987 36.0638C24.7994 35.8645 24.6875 35.5943 24.6875 35.3125C24.6875 35.0307 24.7994 34.7605 24.9987 34.5612C25.198 34.3619 25.4682 34.25 25.75 34.25H34.25C34.5318 34.25 34.802 34.3619 35.0013 34.5612C35.2006 34.7605 35.3125 35.0307 35.3125 35.3125Z" fill="white"/>
</svg>
