<svg width="50" height="50" viewBox="0 0 50 50" fill="none" xmlns="http://www.w3.org/2000/svg">
<rect width="50" height="50" rx="25" fill="white"/>
<path d="M36.0802 23.2955H25.8529V20.7387H26.7052C27.1573 20.7387 27.5908 20.5591 27.9105 20.2394C28.2302 19.9198 28.4098 19.4862 28.4098 19.0341V15.625C28.4098 15.173 28.2302 14.7394 27.9105 14.4198C27.5908 14.1001 27.1573 13.9205 26.7052 13.9205H23.2961C22.844 13.9205 22.4105 14.1001 22.0908 14.4198C21.7712 14.7394 21.5916 15.173 21.5916 15.625V19.0341C21.5916 19.4862 21.7712 19.9198 22.0908 20.2394C22.4105 20.5591 22.844 20.7387 23.2961 20.7387H24.1484V23.2955H13.9211C13.6951 23.2955 13.4783 23.3853 13.3185 23.5451C13.1586 23.705 13.0688 23.9217 13.0688 24.1478C13.0688 24.3738 13.1586 24.5906 13.3185 24.7504C13.4783 24.9103 13.6951 25 13.9211 25H17.3302V28.4091H16.4779C16.0259 28.4091 15.5923 28.5887 15.2726 28.9084C14.953 29.2281 14.7734 29.6616 14.7734 30.1137V33.5228C14.7734 33.9748 14.953 34.4084 15.2726 34.7281C15.5923 35.0477 16.0259 35.2273 16.4779 35.2273H19.887C20.3391 35.2273 20.7727 35.0477 21.0923 34.7281C21.412 34.4084 21.5916 33.9748 21.5916 33.5228V30.1137C21.5916 29.6616 21.412 29.2281 21.0923 28.9084C20.7727 28.5887 20.3391 28.4091 19.887 28.4091H19.0348V25H30.9666V28.4091H30.1143C29.6622 28.4091 29.2287 28.5887 28.909 28.9084C28.5893 29.2281 28.4098 29.6616 28.4098 30.1137V33.5228C28.4098 33.9748 28.5893 34.4084 28.909 34.7281C29.2287 35.0477 29.6622 35.2273 30.1143 35.2273H33.5234C33.9755 35.2273 34.409 35.0477 34.7287 34.7281C35.0484 34.4084 35.2279 33.9748 35.2279 33.5228V30.1137C35.2279 29.6616 35.0484 29.2281 34.7287 28.9084C34.409 28.5887 33.9755 28.4091 33.5234 28.4091H32.6711V25H36.0802C36.3062 25 36.523 24.9103 36.6829 24.7504C36.8427 24.5906 36.9325 24.3738 36.9325 24.1478C36.9325 23.9217 36.8427 23.705 36.6829 23.5451C36.523 23.3853 36.3062 23.2955 36.0802 23.2955ZM23.2961 15.625H26.7052V19.0341H23.2961V15.625ZM19.887 33.5228H16.4779V30.1137H19.887V33.5228ZM33.5234 33.5228H30.1143V30.1137H33.5234V33.5228Z" fill="#003040"/>
</svg>
