<svg width="80" height="80" viewBox="0 0 80 80" fill="none" xmlns="http://www.w3.org/2000/svg">
<rect width="80" height="80" rx="40" fill="#003040"/>
<path d="M46.875 37.25C46.875 37.6147 46.7301 37.9644 46.4723 38.2223C46.2144 38.4801 45.8647 38.625 45.5 38.625H34.5C34.1353 38.625 33.7856 38.4801 33.5277 38.2223C33.2699 37.9644 33.125 37.6147 33.125 37.25C33.125 36.8853 33.2699 36.5356 33.5277 36.2777C33.7856 36.0199 34.1353 35.875 34.5 35.875H45.5C45.8647 35.875 46.2144 36.0199 46.4723 36.2777C46.7301 36.5356 46.875 36.8853 46.875 37.25ZM45.5 41.375H34.5C34.1353 41.375 33.7856 41.5199 33.5277 41.7777C33.2699 42.0356 33.125 42.3853 33.125 42.75C33.125 43.1147 33.2699 43.4644 33.5277 43.7223C33.7856 43.9801 34.1353 44.125 34.5 44.125H45.5C45.8647 44.125 46.2144 43.9801 46.4723 43.7223C46.7301 43.4644 46.875 43.1147 46.875 42.75C46.875 42.3853 46.7301 42.0356 46.4723 41.7777C46.2144 41.5199 45.8647 41.375 45.5 41.375ZM57.875 40C57.8757 43.0861 57.0774 46.1197 55.5577 48.8057C54.0381 51.4917 51.849 53.7386 49.2034 55.3275C46.5578 56.9165 43.5459 57.7934 40.4609 57.873C37.3758 57.9525 34.3227 57.232 31.5988 55.7816L25.7464 57.7323C25.2619 57.8939 24.7419 57.9174 24.2448 57.8001C23.7477 57.6827 23.293 57.4293 22.9319 57.0681C22.5707 56.707 22.3172 56.2523 22.1999 55.7552C22.0826 55.2581 22.1061 54.7381 22.2677 54.2536L24.2184 48.4012C22.9434 46.004 22.2312 43.3478 22.136 40.6342C22.0408 37.9206 22.565 35.221 23.6689 32.7402C24.7728 30.2595 26.4273 28.0628 28.5069 26.317C30.5865 24.5712 33.0365 23.3221 35.6709 22.6645C38.3054 22.0069 41.055 21.9581 43.7111 22.5218C46.3672 23.0855 48.8599 24.2469 51.0001 25.9179C53.1404 27.5888 54.8718 29.7254 56.063 32.1654C57.2542 34.6054 57.8739 37.2847 57.875 40ZM55.125 40C55.1243 37.6799 54.5899 35.391 53.5632 33.3105C52.5364 31.23 51.0447 29.4136 49.2036 28.0018C47.3625 26.59 45.2212 25.6207 42.9456 25.1689C40.6699 24.717 38.3208 24.7948 36.0799 25.3961C33.8391 25.9974 31.7667 27.1062 30.0229 28.6366C28.2792 30.1671 26.9109 32.0781 26.0239 34.222C25.1369 36.3659 24.7551 38.685 24.9078 41.0001C25.0606 43.3152 25.7439 45.5641 26.9048 47.5728C27.0023 47.7414 27.0628 47.9289 27.0823 48.1226C27.1019 48.3164 27.0801 48.5122 27.0183 48.6969L24.875 55.125L31.3031 52.9817C31.4431 52.934 31.59 52.9096 31.738 52.9095C31.9795 52.91 32.2166 52.974 32.4255 53.0951C34.7248 54.4255 37.334 55.1268 39.9904 55.1285C42.6469 55.1301 45.257 54.4321 47.558 53.1047C49.859 51.7773 51.7698 49.8672 53.0982 47.5667C54.4266 45.2662 55.1256 42.6565 55.125 40Z" fill="white"/>
</svg>
