<svg width="50" height="50" viewBox="0 0 50 50" fill="none" xmlns="http://www.w3.org/2000/svg">
<rect width="50" height="50" rx="25" fill="white"/>
<path d="M29.2969 23.2813C29.2969 23.5092 29.2063 23.7278 29.0452 23.889C28.884 24.0501 28.6654 24.1407 28.4375 24.1407H21.5625C21.3346 24.1407 21.116 24.0501 20.9548 23.889C20.7937 23.7278 20.7031 23.5092 20.7031 23.2813C20.7031 23.0534 20.7937 22.8348 20.9548 22.6736C21.116 22.5125 21.3346 22.4219 21.5625 22.4219H28.4375C28.6654 22.4219 28.884 22.5125 29.0452 22.6736C29.2063 22.8348 29.2969 23.0534 29.2969 23.2813ZM28.4375 25.8594H21.5625C21.3346 25.8594 21.116 25.95 20.9548 26.1111C20.7937 26.2723 20.7031 26.4909 20.7031 26.7188C20.7031 26.9467 20.7937 27.1653 20.9548 27.3265C21.116 27.4876 21.3346 27.5782 21.5625 27.5782H28.4375C28.6654 27.5782 28.884 27.4876 29.0452 27.3265C29.2063 27.1653 29.2969 26.9467 29.2969 26.7188C29.2969 26.4909 29.2063 26.2723 29.0452 26.1111C28.884 25.95 28.6654 25.8594 28.4375 25.8594ZM36.1719 25.0001C36.1723 26.9289 35.6733 28.8249 34.7236 30.5037C33.7738 32.1824 32.4056 33.5867 30.7521 34.5798C29.0986 35.5728 27.2162 36.1209 25.288 36.1707C23.3599 36.2204 21.4517 35.7701 19.7492 34.8635L16.0915 36.0828C15.7887 36.1838 15.4637 36.1984 15.153 36.1251C14.8423 36.0518 14.5582 35.8934 14.3324 35.6676C14.1067 35.4419 13.9483 35.1578 13.875 34.8471C13.8016 34.5364 13.8163 34.2114 13.9173 33.9086L15.1365 30.2508C14.3396 28.7526 13.8945 27.0924 13.835 25.3964C13.7755 23.7004 14.1031 22.0132 14.7931 20.4627C15.483 18.9122 16.5171 17.5393 17.8168 16.4482C19.1166 15.357 20.6478 14.5763 22.2943 14.1654C23.9408 13.7544 25.6594 13.7239 27.3194 14.0762C28.9795 14.4285 30.5375 15.1544 31.8751 16.1987C33.2127 17.2431 34.2949 18.5784 35.0394 20.1034C35.7839 21.6284 36.1712 23.303 36.1719 25.0001ZM34.4531 25.0001C34.4527 23.55 34.1187 22.1195 33.477 20.8191C32.8352 19.5188 31.9029 18.3836 30.7522 17.5012C29.6015 16.6188 28.2633 16.013 26.841 15.7306C25.4187 15.4482 23.9505 15.4968 22.55 15.8726C21.1494 16.2485 19.8542 16.9414 18.7643 17.898C17.6745 18.8545 16.8193 20.0489 16.2649 21.3888C15.7106 22.7287 15.4719 24.1782 15.5674 25.6251C15.6629 27.072 16.0899 28.4776 16.8155 29.7331C16.8764 29.8385 16.9142 29.9556 16.9265 30.0767C16.9387 30.1978 16.925 30.3202 16.8864 30.4356L15.5469 34.4532L19.5645 33.1136C19.652 33.0838 19.7438 33.0686 19.8362 33.0685C19.9872 33.0688 20.1354 33.1088 20.2659 33.1845C21.703 34.016 23.3337 34.4543 24.994 34.4554C26.6543 34.4564 28.2856 34.0202 29.7237 33.1905C31.1619 32.3609 32.3561 31.1671 33.1864 29.7293C34.0166 28.2915 34.4535 26.6603 34.4531 25.0001Z" fill="#003040"/>
</svg>
