<svg width="30" height="30" viewBox="0 0 30 30" fill="none" xmlns="http://www.w3.org/2000/svg">
<path d="M25.0383 9.64922L18.4758 3.08672C18.3887 2.99969 18.2852 2.93067 18.1714 2.88362C18.0576 2.83657 17.9357 2.8124 17.8125 2.8125H6.5625C6.06522 2.8125 5.58831 3.01004 5.23667 3.36167C4.88504 3.71331 4.6875 4.19022 4.6875 4.6875V25.3125C4.6875 25.8098 4.88504 26.2867 5.23667 26.6383C5.58831 26.99 6.06522 27.1875 6.5625 27.1875H23.4375C23.9348 27.1875 24.4117 26.99 24.7633 26.6383C25.115 26.2867 25.3125 25.8098 25.3125 25.3125V10.3125C25.3126 10.1893 25.2884 10.0674 25.2414 9.95358C25.1943 9.83977 25.1253 9.73635 25.0383 9.64922ZM18.75 6.01289L22.1121 9.375H18.75V6.01289ZM23.4375 25.3125H6.5625V4.6875H16.875V10.3125C16.875 10.5611 16.9738 10.7996 17.1496 10.9754C17.3254 11.1512 17.5639 11.25 17.8125 11.25H23.4375V25.3125ZM19.6875 15.9375C19.6875 16.1861 19.5887 16.4246 19.4129 16.6004C19.2371 16.7762 18.9986 16.875 18.75 16.875H11.25C11.0014 16.875 10.7629 16.7762 10.5871 16.6004C10.4113 16.4246 10.3125 16.1861 10.3125 15.9375C10.3125 15.6889 10.4113 15.4504 10.5871 15.2746C10.7629 15.0988 11.0014 15 11.25 15H18.75C18.9986 15 19.2371 15.0988 19.4129 15.2746C19.5887 15.4504 19.6875 15.6889 19.6875 15.9375ZM19.6875 19.6875C19.6875 19.9361 19.5887 20.1746 19.4129 20.3504C19.2371 20.5262 18.9986 20.625 18.75 20.625H11.25C11.0014 20.625 10.7629 20.5262 10.5871 20.3504C10.4113 20.1746 10.3125 19.9361 10.3125 19.6875C10.3125 19.4389 10.4113 19.2004 10.5871 19.0246C10.7629 18.8488 11.0014 18.75 11.25 18.75H18.75C18.9986 18.75 19.2371 18.8488 19.4129 19.0246C19.5887 19.2004 19.6875 19.4389 19.6875 19.6875Z" fill="#00BDDE"/>
</svg>
