<svg width="50" height="50" viewBox="0 0 50 50" fill="none" xmlns="http://www.w3.org/2000/svg">
<rect width="50" height="50" rx="25" fill="white"/>
<path d="M35.2781 18.356L25.825 13.1836C25.5724 13.0441 25.2886 12.9709 25 12.9709C24.7114 12.9709 24.4276 13.0441 24.175 13.1836L14.7219 18.3581C14.4519 18.5058 14.2266 18.7233 14.0693 18.9879C13.9121 19.2524 13.8288 19.5543 13.8281 19.862V30.1359C13.8288 30.4436 13.9121 30.7455 14.0693 31.01C14.2266 31.2746 14.4519 31.4921 14.7219 31.6398L24.175 36.8143C24.4276 36.9538 24.7114 37.0271 25 37.0271C25.2886 37.0271 25.5724 36.9538 25.825 36.8143L35.2781 31.6398C35.5481 31.4921 35.7734 31.2746 35.9307 31.01C36.0879 30.7455 36.1712 30.4436 36.1719 30.1359V19.8631C36.1718 19.5548 36.0887 19.2523 35.9315 18.9871C35.7742 18.7219 35.5486 18.504 35.2781 18.356ZM25 14.6875L33.6303 19.4141L25 24.1407L16.3697 19.4141L25 14.6875ZM15.5469 20.918L24.1406 25.6209V34.8366L15.5469 30.1369V20.918ZM25.8594 34.8366V25.6252L34.4531 20.918V30.1326L25.8594 34.8366Z" fill="#003040"/>
</svg>
