<svg width="50" height="50" viewBox="0 0 50 50" fill="none" xmlns="http://www.w3.org/2000/svg">
<rect width="50" height="50" rx="25" fill="white"/>
<path d="M34.2018 20.0951L28.1861 14.0795C28.1063 13.9997 28.0115 13.9365 27.9071 13.8933C27.8028 13.8502 27.691 13.828 27.5781 13.8281H17.2656C16.8098 13.8281 16.3726 14.0092 16.0503 14.3315C15.728 14.6539 15.5469 15.091 15.5469 15.5469V34.4531C15.5469 34.909 15.728 35.3461 16.0503 35.6685C16.3726 35.9908 16.8098 36.1719 17.2656 36.1719H32.7344C33.1902 36.1719 33.6274 35.9908 33.9497 35.6685C34.272 35.3461 34.4531 34.909 34.4531 34.4531V20.7031C34.4532 20.5902 34.4311 20.4784 34.3879 20.3741C34.3448 20.2698 34.2815 20.175 34.2018 20.0951ZM28.4375 16.7618L31.5194 19.8438H28.4375V16.7618ZM32.7344 34.4531H17.2656V15.5469H26.7188V20.7031C26.7188 20.931 26.8093 21.1496 26.9705 21.3108C27.1316 21.472 27.3502 21.5625 27.5781 21.5625H32.7344V34.4531ZM29.2969 25.8594C29.2969 26.0873 29.2063 26.3059 29.0452 26.467C28.884 26.6282 28.6654 26.7188 28.4375 26.7188H21.5625C21.3346 26.7188 21.116 26.6282 20.9548 26.467C20.7937 26.3059 20.7031 26.0873 20.7031 25.8594C20.7031 25.6315 20.7937 25.4129 20.9548 25.2517C21.116 25.0905 21.3346 25 21.5625 25H28.4375C28.6654 25 28.884 25.0905 29.0452 25.2517C29.2063 25.4129 29.2969 25.6315 29.2969 25.8594ZM29.2969 29.2969C29.2969 29.5248 29.2063 29.7434 29.0452 29.9045C28.884 30.0657 28.6654 30.1562 28.4375 30.1562H21.5625C21.3346 30.1562 21.116 30.0657 20.9548 29.9045C20.7937 29.7434 20.7031 29.5248 20.7031 29.2969C20.7031 29.069 20.7937 28.8504 20.9548 28.6892C21.116 28.528 21.3346 28.4375 21.5625 28.4375H28.4375C28.6654 28.4375 28.884 28.528 29.0452 28.6892C29.2063 28.8504 29.2969 29.069 29.2969 29.2969Z" fill="#003040"/>
</svg>
