<svg width="30" height="30" viewBox="0 0 30 30" fill="none" xmlns="http://www.w3.org/2000/svg">
<path d="M19.6875 13.1249C19.6875 13.3735 19.5887 13.612 19.4129 13.7878C19.2371 13.9636 18.9986 14.0624 18.75 14.0624H11.25C11.0014 14.0624 10.7629 13.9636 10.5871 13.7878C10.4113 13.612 10.3125 13.3735 10.3125 13.1249C10.3125 12.8762 10.4113 12.6378 10.5871 12.462C10.7629 12.2862 11.0014 12.1874 11.25 12.1874H18.75C18.9986 12.1874 19.2371 12.2862 19.4129 12.462C19.5887 12.6378 19.6875 12.8762 19.6875 13.1249ZM18.75 15.9374H11.25C11.0014 15.9374 10.7629 16.0362 10.5871 16.212C10.4113 16.3878 10.3125 16.6262 10.3125 16.8749C10.3125 17.1235 10.4113 17.362 10.5871 17.5378C10.7629 17.7136 11.0014 17.8124 11.25 17.8124H18.75C18.9986 17.8124 19.2371 17.7136 19.4129 17.5378C19.5887 17.362 19.6875 17.1235 19.6875 16.8749C19.6875 16.6262 19.5887 16.3878 19.4129 16.212C19.2371 16.0362 18.9986 15.9374 18.75 15.9374ZM27.1875 14.9999C27.188 17.104 26.6436 19.1724 25.6075 21.0038C24.5714 22.8352 23.0788 24.3671 21.275 25.4505C19.4712 26.5338 17.4177 27.1317 15.3142 27.186C13.2108 27.2402 11.1291 26.749 9.27187 25.76L5.28164 27.0901C4.95127 27.2003 4.59675 27.2163 4.2578 27.1363C3.91886 27.0563 3.60889 26.8835 3.36264 26.6372C3.11638 26.391 2.94358 26.081 2.86359 25.7421C2.7836 25.4031 2.79959 25.0486 2.90977 24.7182L4.23984 20.728C3.37049 19.0935 2.88492 17.2824 2.82 15.4323C2.75508 13.5821 3.11251 11.7415 3.86516 10.05C4.61781 8.35863 5.7459 6.86091 7.16381 5.67058C8.58171 4.48024 10.2522 3.62857 12.0484 3.18021C13.8446 2.73184 15.7193 2.69858 17.5303 3.08293C19.3412 3.46729 21.0409 4.25916 22.5001 5.39844C23.9593 6.53773 25.1399 7.99448 25.952 9.65812C26.7642 11.3218 27.1867 13.1486 27.1875 14.9999ZM25.3125 14.9999C25.3121 13.418 24.9477 11.8574 24.2476 10.4389C23.5475 9.02034 22.5305 7.78188 21.2752 6.8193C20.0199 5.85672 18.5599 5.19583 17.0083 4.88776C15.4567 4.57969 13.8551 4.6327 12.3272 5.04269C10.7994 5.45268 9.38636 6.20866 8.19744 7.25214C7.00853 8.29562 6.07561 9.59862 5.47085 11.0603C4.8661 12.5221 4.60572 14.1033 4.70988 15.6818C4.81403 17.2602 5.27991 18.7936 6.07148 20.1632C6.13792 20.2781 6.17917 20.4059 6.19251 20.5381C6.20584 20.6702 6.19095 20.8036 6.14883 20.9296L4.6875 25.3124L9.07031 23.8511C9.16577 23.8185 9.26594 23.8019 9.3668 23.8018C9.53145 23.8021 9.69312 23.8458 9.83555 23.9284C11.4033 24.8355 13.1823 25.3136 14.9935 25.3148C16.8047 25.3159 18.5843 24.84 20.1532 23.9349C21.7221 23.0298 23.0249 21.7275 23.9306 20.159C24.8363 18.5905 25.3129 16.8111 25.3125 14.9999Z" fill="#00BDDE"/>
</svg>
