<svg width="30" height="30" viewBox="0 0 30 30" fill="none" xmlns="http://www.w3.org/2000/svg">
<path d="M24.375 3.75H5.625C5.12772 3.75 4.65081 3.94754 4.29917 4.29917C3.94754 4.65081 3.75 5.12772 3.75 5.625V24.375C3.75 24.8723 3.94754 25.3492 4.29917 25.7008C4.65081 26.0525 5.12772 26.25 5.625 26.25H24.375C24.8723 26.25 25.3492 26.0525 25.7008 25.7008C26.0525 25.3492 26.25 24.8723 26.25 24.375V5.625C26.25 5.12772 26.0525 4.65081 25.7008 4.29917C25.3492 3.94754 24.8723 3.75 24.375 3.75ZM24.375 5.625V17.8125H21.0117C20.7656 17.8119 20.5218 17.8601 20.2945 17.9545C20.0672 18.0488 19.8608 18.1874 19.6875 18.3621L17.4246 20.625H12.5754L10.3125 18.3621C10.139 18.1872 9.93251 18.0486 9.70498 17.9542C9.47745 17.8599 9.23343 17.8117 8.98711 17.8125H5.625V5.625H24.375ZM24.375 24.375H5.625V19.6875H8.98711L11.25 21.9504C11.4235 22.1253 11.63 22.2639 11.8575 22.3582C12.0851 22.4526 12.3291 22.5008 12.5754 22.5H17.4246C17.6709 22.5008 17.9149 22.4526 18.1425 22.3582C18.37 22.2639 18.5765 22.1253 18.75 21.9504L21.0129 19.6875H24.375V24.375ZM10.5867 14.7258C10.4108 14.5499 10.312 14.3113 10.312 14.0625C10.312 13.8137 10.4108 13.5751 10.5867 13.3992C10.7626 13.2233 11.0012 13.1245 11.25 13.1245C11.4988 13.1245 11.7374 13.2233 11.9133 13.3992L14.0625 15.5496V8.4375C14.0625 8.18886 14.1613 7.9504 14.3371 7.77459C14.5129 7.59877 14.7514 7.5 15 7.5C15.2486 7.5 15.4871 7.59877 15.6629 7.77459C15.8387 7.9504 15.9375 8.18886 15.9375 8.4375V15.5496L18.0867 13.3992C18.1738 13.3121 18.2772 13.243 18.391 13.1959C18.5048 13.1487 18.6268 13.1245 18.75 13.1245C18.8732 13.1245 18.9952 13.1487 19.109 13.1959C19.2228 13.243 19.3262 13.3121 19.4133 13.3992C19.5004 13.4863 19.5695 13.5897 19.6166 13.7035C19.6638 13.8173 19.688 13.9393 19.688 14.0625C19.688 14.1857 19.6638 14.3077 19.6166 14.4215C19.5695 14.5353 19.5004 14.6387 19.4133 14.7258L15.6633 18.4758C15.5762 18.5629 15.4728 18.6321 15.359 18.6793C15.2452 18.7265 15.1232 18.7507 15 18.7507C14.8768 18.7507 14.7548 18.7265 14.641 18.6793C14.5272 18.6321 14.4238 18.5629 14.3367 18.4758L10.5867 14.7258Z" fill="#00BDDE"/>
</svg>
