<svg width="30" height="30" viewBox="0 0 30 30" fill="none" xmlns="http://www.w3.org/2000/svg">
<path d="M20.9 19.4133L18.7507 17.2629V24.375C18.7507 24.6236 18.652 24.8621 18.4762 25.0379C18.3003 25.2137 18.0619 25.3125 17.8132 25.3125C17.5646 25.3125 17.3261 25.2137 17.1503 25.0379C16.9745 24.8621 16.8757 24.6236 16.8757 24.375V17.2629L14.7265 19.4133C14.6394 19.5004 14.536 19.5695 14.4222 19.6166C14.3084 19.6638 14.1864 19.688 14.0632 19.688C13.9401 19.688 13.8181 19.6638 13.7043 19.6166C13.5905 19.5695 13.4871 19.5004 13.4 19.4133C13.3129 19.3262 13.2438 19.2228 13.1966 19.109C13.1495 18.9952 13.1252 18.8732 13.1252 18.75C13.1252 18.6268 13.1495 18.5048 13.1966 18.391C13.2438 18.2772 13.3129 18.1738 13.4 18.0867L17.15 14.3367C17.237 14.2496 17.3404 14.1804 17.4542 14.1332C17.5681 14.086 17.69 14.0618 17.8132 14.0618C17.9364 14.0618 18.0584 14.086 18.1723 14.1332C18.2861 14.1804 18.3895 14.2496 18.4765 14.3367L22.2265 18.0867C22.3136 18.1738 22.3827 18.2772 22.4299 18.391C22.477 18.5048 22.5013 18.6268 22.5013 18.75C22.5013 18.8732 22.477 18.9952 22.4299 19.109C22.3827 19.2228 22.3136 19.3262 22.2265 19.4133C22.1394 19.5004 22.036 19.5695 21.9222 19.6166C21.8084 19.6638 21.6864 19.688 21.5632 19.688C21.4401 19.688 21.3181 19.6638 21.2043 19.6166C21.0905 19.5695 20.9871 19.5004 20.9 19.4133ZM18.7507 4.6875C16.8354 4.68895 14.9582 5.2233 13.3292 6.23078C11.7002 7.23827 10.3837 8.67914 9.52692 10.3922C8.50683 10.2423 7.46679 10.3043 6.47175 10.5744C5.47671 10.8445 4.54806 11.3169 3.74378 11.962C2.93949 12.6071 2.27687 13.4112 1.79728 14.3239C1.31769 15.2366 1.03144 16.2384 0.95641 17.2667C0.881378 18.295 1.01918 19.3278 1.3612 20.3004C1.70322 21.2731 2.24211 22.1648 2.94423 22.9198C3.64635 23.6749 4.4966 24.277 5.44189 24.6887C6.38718 25.1004 7.4072 25.3127 8.43825 25.3125H13.1257C13.3744 25.3125 13.6128 25.2137 13.7887 25.0379C13.9645 24.8621 14.0632 24.6236 14.0632 24.375C14.0632 24.1264 13.9645 23.8879 13.7887 23.7121C13.6128 23.5363 13.3744 23.4375 13.1257 23.4375H8.43825C6.9464 23.4375 5.51566 22.8449 4.46077 21.79C3.40588 20.7351 2.81325 19.3043 2.81325 17.8125C2.81325 16.3207 3.40588 14.8899 4.46077 13.835C5.51566 12.7801 6.9464 12.1875 8.43825 12.1875C8.56715 12.1875 8.69606 12.1875 8.82379 12.2016C8.56752 13.1123 8.43779 14.0539 8.43825 15C8.43825 15.2486 8.53702 15.4871 8.71283 15.6629C8.88865 15.8387 9.12711 15.9375 9.37575 15.9375C9.62439 15.9375 9.86284 15.8387 10.0387 15.6629C10.2145 15.4871 10.3132 15.2486 10.3132 15C10.3135 13.4789 10.7249 11.9861 11.5041 10.6796C12.2832 9.37315 13.401 8.30162 14.7392 7.57841C16.0774 6.85519 17.5863 6.5072 19.1061 6.57126C20.6259 6.63532 22.1001 7.10905 23.3727 7.94231C24.6453 8.77557 25.669 9.93737 26.3354 11.3048C27.0018 12.6721 27.2862 14.1943 27.1584 15.71C27.0307 17.2258 26.4955 18.6788 25.6096 19.9154C24.7236 21.1519 23.5199 22.1259 22.1257 22.7344C21.9278 22.8202 21.7655 22.9717 21.6662 23.1632C21.567 23.3548 21.5368 23.5748 21.5809 23.786C21.6249 23.9972 21.7405 24.1868 21.9081 24.3227C22.0757 24.4586 22.285 24.5325 22.5007 24.532C22.6299 24.5319 22.7577 24.5048 22.8757 24.4523C25.0476 23.5049 26.827 21.8385 27.9146 19.7333C29.0022 17.6282 29.3316 15.2127 28.8475 12.8931C28.3634 10.5736 27.0953 8.49152 25.2565 6.9971C23.4176 5.50268 21.1203 4.68709 18.7507 4.6875Z" fill="#00BDDE"/>
</svg>
