<svg width="50" height="50" viewBox="0 0 50 50" fill="none" xmlns="http://www.w3.org/2000/svg">
<rect x="0.46875" y="0.46875" width="49.0625" height="49.0625" rx="24.5312" stroke="#00BDDE" stroke-width="0.9375"/>
<path d="M35.3125 14.6875H14.6875C14.1902 14.6875 13.7133 14.885 13.3617 15.2367C13.01 15.5883 12.8125 16.0652 12.8125 16.5625V32.5C12.8125 32.9973 13.01 33.4742 13.3617 33.8258C13.7133 34.1775 14.1902 34.375 14.6875 34.375H16.5625V36.25C16.5625 36.4986 16.6613 36.7371 16.8371 36.9129C17.0129 37.0887 17.2514 37.1875 17.5 37.1875C17.7486 37.1875 17.9871 37.0887 18.1629 36.9129C18.3387 36.7371 18.4375 36.4986 18.4375 36.25V34.375H31.5625V36.25C31.5625 36.4986 31.6613 36.7371 31.8371 36.9129C32.0129 37.0887 32.2514 37.1875 32.5 37.1875C32.7486 37.1875 32.9871 37.0887 33.1629 36.9129C33.3387 36.7371 33.4375 36.4986 33.4375 36.25V34.375H35.3125C35.8098 34.375 36.2867 34.1775 36.6383 33.8258C36.99 33.4742 37.1875 32.9973 37.1875 32.5V16.5625C37.1875 16.0652 36.99 15.5883 36.6383 15.2367C36.2867 14.885 35.8098 14.6875 35.3125 14.6875ZM35.3125 32.5H14.6875V16.5625H35.3125V24.0625H33.3578C33.1227 22.6718 32.3738 21.4202 31.2594 20.5556C30.1451 19.6911 28.7466 19.2768 27.3411 19.3947C25.9356 19.5127 24.6257 20.1543 23.671 21.1925C22.7163 22.2306 22.1865 23.5896 22.1865 25C22.1865 26.4104 22.7163 27.7694 23.671 28.8075C24.6257 29.8457 25.9356 30.4873 27.3411 30.6053C28.7466 30.7232 30.1451 30.3089 31.2594 29.4444C32.3738 28.5798 33.1227 27.3282 33.3578 25.9375H35.3125V32.5ZM29.4344 24.0625C29.228 23.705 28.9094 23.4257 28.5281 23.2677C28.1468 23.1098 27.724 23.0821 27.3253 23.1889C26.9266 23.2957 26.5743 23.5311 26.323 23.8586C26.0718 24.186 25.9356 24.5872 25.9356 25C25.9356 25.4128 26.0718 25.814 26.323 26.1414C26.5743 26.4689 26.9266 26.7043 27.3253 26.8111C27.724 26.9179 28.1468 26.8902 28.5281 26.7323C28.9094 26.5743 29.228 26.295 29.4344 25.9375H31.4453C31.2171 26.8212 30.6745 27.5914 29.9191 28.1037C29.1636 28.616 28.2473 28.8351 27.3419 28.7201C26.4364 28.6051 25.604 28.1638 25.0006 27.479C24.3973 26.7941 24.0644 25.9127 24.0644 25C24.0644 24.0873 24.3973 23.2059 25.0006 22.521C25.604 21.8362 26.4364 21.3949 27.3419 21.2799C28.2473 21.1649 29.1636 21.384 29.9191 21.8963C30.6745 22.4086 31.2171 23.1788 31.4453 24.0625H29.4344Z" fill="#00BDDE"/>
</svg>
