<svg width="50" height="50" viewBox="0 0 50 50" fill="none" xmlns="http://www.w3.org/2000/svg">
<rect x="0.46875" y="0.46875" width="49.0625" height="49.0625" rx="24.5312" stroke="#00BDDE" stroke-width="0.9375"/>
<path d="M36.2125 17.7521L25.9 12.1095C25.6245 11.9573 25.3148 11.8774 25 11.8774C24.6852 11.8774 24.3755 11.9573 24.1 12.1095L13.7875 17.7545C13.493 17.9156 13.2472 18.1529 13.0756 18.4415C12.9041 18.73 12.8133 19.0594 12.8125 19.3951V30.6029C12.8133 30.9386 12.9041 31.268 13.0756 31.5566C13.2472 31.8451 13.493 32.0824 13.7875 32.2435L24.1 37.8885C24.3755 38.0407 24.6852 38.1206 25 38.1206C25.3148 38.1206 25.6245 38.0407 25.9 37.8885L36.2125 32.2435C36.507 32.0824 36.7528 31.8451 36.9244 31.5566C37.0959 31.268 37.1867 30.9386 37.1875 30.6029V19.3963C37.1874 19.06 37.0968 18.7299 36.9252 18.4406C36.7537 18.1514 36.5075 17.9136 36.2125 17.7521ZM25 13.7502L34.4148 18.9064L25 24.0627L15.5852 18.9064L25 13.7502ZM14.6875 20.547L24.0625 25.6775V35.731L14.6875 30.6041V20.547ZM25.9375 35.731V25.6822L35.3125 20.547V30.5994L25.9375 35.731Z" fill="#00BDDE"/>
</svg>
