<svg width="50" height="50" viewBox="0 0 50 50" fill="none" xmlns="http://www.w3.org/2000/svg">
<rect x="0.46875" y="0.46875" width="49.0625" height="49.0625" rx="24.5312" stroke="#00BDDE" stroke-width="0.9375"/>
<path d="M35.0383 19.6492L28.4758 13.0867C28.3887 12.9997 28.2852 12.9307 28.1714 12.8836C28.0576 12.8366 27.9357 12.8124 27.8125 12.8125H16.5625C16.0652 12.8125 15.5883 13.01 15.2367 13.3617C14.885 13.7133 14.6875 14.1902 14.6875 14.6875V35.3125C14.6875 35.8098 14.885 36.2867 15.2367 36.6383C15.5883 36.99 16.0652 37.1875 16.5625 37.1875H33.4375C33.9348 37.1875 34.4117 36.99 34.7633 36.6383C35.115 36.2867 35.3125 35.8098 35.3125 35.3125V20.3125C35.3126 20.1893 35.2884 20.0674 35.2414 19.9536C35.1943 19.8398 35.1253 19.7363 35.0383 19.6492ZM28.75 16.0129L32.1121 19.375H28.75V16.0129ZM33.4375 35.3125H16.5625V14.6875H26.875V20.3125C26.875 20.5611 26.9738 20.7996 27.1496 20.9754C27.3254 21.1512 27.5639 21.25 27.8125 21.25H33.4375V35.3125ZM29.6875 25.9375C29.6875 26.1861 29.5887 26.4246 29.4129 26.6004C29.2371 26.7762 28.9986 26.875 28.75 26.875H21.25C21.0014 26.875 20.7629 26.7762 20.5871 26.6004C20.4113 26.4246 20.3125 26.1861 20.3125 25.9375C20.3125 25.6889 20.4113 25.4504 20.5871 25.2746C20.7629 25.0988 21.0014 25 21.25 25H28.75C28.9986 25 29.2371 25.0988 29.4129 25.2746C29.5887 25.4504 29.6875 25.6889 29.6875 25.9375ZM29.6875 29.6875C29.6875 29.9361 29.5887 30.1746 29.4129 30.3504C29.2371 30.5262 28.9986 30.625 28.75 30.625H21.25C21.0014 30.625 20.7629 30.5262 20.5871 30.3504C20.4113 30.1746 20.3125 29.9361 20.3125 29.6875C20.3125 29.4389 20.4113 29.2004 20.5871 29.0246C20.7629 28.8488 21.0014 28.75 21.25 28.75H28.75C28.9986 28.75 29.2371 28.8488 29.4129 29.0246C29.5887 29.2004 29.6875 29.4389 29.6875 29.6875Z" fill="#00BDDE"/>
</svg>
