<svg width="80" height="80" viewBox="0 0 80 80" fill="none" xmlns="http://www.w3.org/2000/svg">
<rect width="80" height="80" rx="40" fill="#003040"/>
<path d="M56.445 29.3691L41.32 21.0934C40.9159 20.8701 40.4617 20.7529 40 20.7529C39.5383 20.7529 39.0841 20.8701 38.68 21.0934L23.555 29.3726C23.1231 29.6089 22.7625 29.9569 22.5109 30.3801C22.2594 30.8034 22.1261 31.2865 22.125 31.7788V48.2169C22.1261 48.7093 22.2594 49.1924 22.5109 49.6156C22.7625 50.0389 23.1231 50.3869 23.555 50.6232L38.68 58.9024C39.0841 59.1257 39.5383 59.2428 40 59.2428C40.4617 59.2428 40.9159 59.1257 41.32 58.9024L56.445 50.6232C56.8769 50.3869 57.2375 50.0389 57.4891 49.6156C57.7406 49.1924 57.8739 48.7093 57.875 48.2169V31.7805C57.8748 31.2873 57.742 30.8032 57.4904 30.3789C57.2388 29.9547 56.8777 29.6059 56.445 29.3691ZM40 23.4996L53.8084 31.0621L48.6917 33.8637L34.8816 26.3012L40 23.4996ZM40 38.6246L26.1916 31.0621L32.0181 27.8721L45.8266 35.4346L40 38.6246ZM24.875 33.4684L38.625 40.993V55.7382L24.875 48.2187V33.4684ZM55.125 48.2118L41.375 55.7382V40.9999L46.875 37.9904V44.1246C46.875 44.4893 47.0199 44.839 47.2777 45.0969C47.5356 45.3547 47.8853 45.4996 48.25 45.4996C48.6147 45.4996 48.9644 45.3547 49.2223 45.0969C49.4801 44.839 49.625 44.4893 49.625 44.1246V36.4848L55.125 33.4684V48.2101V48.2118Z" fill="white"/>
</svg>
