<svg width="80" height="80" viewBox="0 0 80 80" fill="none" xmlns="http://www.w3.org/2000/svg">
<rect width="80" height="80" rx="40" fill="#003040"/>
<path d="M42.0625 40C42.0625 40.4079 41.9415 40.8067 41.7149 41.1459C41.4883 41.485 41.1662 41.7494 40.7893 41.9055C40.4124 42.0616 39.9977 42.1024 39.5976 42.0229C39.1975 41.9433 38.83 41.7468 38.5416 41.4584C38.2531 41.17 38.0567 40.8025 37.9771 40.4024C37.8975 40.0023 37.9384 39.5876 38.0945 39.2107C38.2506 38.8338 38.515 38.5117 38.8541 38.2851C39.1933 38.0585 39.5921 37.9375 40 37.9375C40.547 37.9375 41.0716 38.1548 41.4584 38.5416C41.8452 38.9284 42.0625 39.453 42.0625 40ZM32.4375 37.9375C32.0296 37.9375 31.6308 38.0585 31.2916 38.2851C30.9525 38.5117 30.6881 38.8338 30.532 39.2107C30.3759 39.5876 30.335 40.0023 30.4146 40.4024C30.4942 40.8025 30.6906 41.17 30.9791 41.4584C31.2675 41.7468 31.635 41.9433 32.0351 42.0229C32.4352 42.1024 32.8499 42.0616 33.2268 41.9055C33.6037 41.7494 33.9258 41.485 34.1524 41.1459C34.379 40.8067 34.5 40.4079 34.5 40C34.5 39.453 34.2827 38.9284 33.8959 38.5416C33.5091 38.1548 32.9845 37.9375 32.4375 37.9375ZM47.5625 37.9375C47.1546 37.9375 46.7558 38.0585 46.4166 38.2851C46.0775 38.5117 45.8131 38.8338 45.657 39.2107C45.5009 39.5876 45.46 40.0023 45.5396 40.4024C45.6192 40.8025 45.8156 41.17 46.1041 41.4584C46.3925 41.7468 46.76 41.9433 47.1601 42.0229C47.5602 42.1024 47.9749 42.0616 48.3518 41.9055C48.7287 41.7494 49.0508 41.485 49.2774 41.1459C49.504 40.8067 49.625 40.4079 49.625 40C49.625 39.453 49.4077 38.9284 49.0209 38.5416C48.6341 38.1548 48.1095 37.9375 47.5625 37.9375ZM57.875 40C57.8757 43.0861 57.0774 46.1197 55.5577 48.8057C54.0381 51.4917 51.849 53.7386 49.2034 55.3275C46.5578 56.9165 43.5459 57.7934 40.4609 57.873C37.3758 57.9525 34.3227 57.232 31.5988 55.7816L25.7464 57.7323C25.2619 57.8939 24.7419 57.9174 24.2448 57.8001C23.7477 57.6827 23.293 57.4293 22.9319 57.0681C22.5707 56.707 22.3172 56.2523 22.1999 55.7552C22.0826 55.2581 22.1061 54.7381 22.2677 54.2536L24.2184 48.4012C22.9434 46.004 22.2312 43.3478 22.136 40.6342C22.0408 37.9206 22.565 35.221 23.6689 32.7402C24.7728 30.2595 26.4273 28.0628 28.5069 26.317C30.5865 24.5712 33.0365 23.3221 35.6709 22.6645C38.3054 22.0069 41.055 21.9581 43.7111 22.5218C46.3672 23.0855 48.8599 24.2469 51.0001 25.9179C53.1404 27.5888 54.8718 29.7254 56.063 32.1654C57.2542 34.6054 57.8739 37.2847 57.875 40ZM55.125 40C55.1243 37.6799 54.5899 35.391 53.5632 33.3105C52.5364 31.23 51.0447 29.4136 49.2036 28.0018C47.3625 26.59 45.2212 25.6207 42.9456 25.1689C40.6699 24.717 38.3208 24.7948 36.0799 25.3961C33.8391 25.9974 31.7667 27.1062 30.0229 28.6366C28.2792 30.1671 26.9109 32.0781 26.0239 34.222C25.1369 36.3659 24.7551 38.685 24.9078 41.0001C25.0606 43.3152 25.7439 45.5641 26.9048 47.5728C27.0023 47.7414 27.0628 47.9289 27.0823 48.1226C27.1019 48.3164 27.0801 48.5122 27.0183 48.6969L24.875 55.125L31.3031 52.9817C31.4431 52.934 31.59 52.9096 31.738 52.9095C31.9795 52.91 32.2166 52.974 32.4255 53.0951C34.7248 54.4255 37.334 55.1268 39.9904 55.1285C42.6469 55.1301 45.257 54.4321 47.558 53.1047C49.859 51.7773 51.7698 49.8672 53.0982 47.5667C54.4266 45.2662 55.1256 42.6565 55.125 40Z" fill="white"/>
</svg>
