<svg width="50" height="50" viewBox="0 0 50 50" fill="none" xmlns="http://www.w3.org/2000/svg">
<rect x="0.46875" y="0.46875" width="49.0625" height="49.0625" rx="24.5312" stroke="#00BDDE" stroke-width="0.9375"/>
<path d="M23.7401 28.5057C24.9966 27.6692 25.9506 26.4505 26.4609 25.03C26.9712 23.6094 27.0108 22.0623 26.5739 20.6174C26.1369 19.1726 25.2466 17.9067 24.0345 17.007C22.8225 16.1073 21.3531 15.6216 19.8437 15.6216C18.3342 15.6216 16.8648 16.1073 15.6528 17.007C14.4407 17.9067 13.5504 19.1726 13.1134 20.6174C12.6765 22.0623 12.7161 23.6094 13.2264 25.03C13.7367 26.4505 14.6907 27.6692 15.9472 28.5057C13.6743 29.3434 11.7332 30.8935 10.4136 32.9248C10.3442 33.0279 10.296 33.1438 10.2719 33.2656C10.2477 33.3875 10.2479 33.5129 10.2726 33.6347C10.2974 33.7565 10.346 33.8721 10.4158 33.9749C10.4856 34.0776 10.5752 34.1655 10.6792 34.2334C10.7833 34.3013 10.8998 34.3478 11.022 34.3702C11.1442 34.3927 11.2697 34.3906 11.3911 34.3642C11.5125 34.3377 11.6274 34.2874 11.7291 34.2161C11.8309 34.1449 11.9175 34.0541 11.9839 33.949C12.8351 32.6398 13.9999 31.564 15.3725 30.8192C16.7451 30.0744 18.282 29.6843 19.8437 29.6843C21.4053 29.6843 22.9422 30.0744 24.3148 30.8192C25.6874 31.564 26.8522 32.6398 27.7034 33.949C27.8409 34.1534 28.0533 34.2955 28.2947 34.3445C28.5361 34.3935 28.7871 34.3455 28.9934 34.2109C29.1997 34.0764 29.3448 33.866 29.3972 33.6254C29.4497 33.3847 29.4053 33.133 29.2737 32.9248C27.9541 30.8935 26.013 29.3434 23.7401 28.5057ZM14.6874 22.6557C14.6874 21.6359 14.9898 20.639 15.5564 19.791C16.123 18.9431 16.9283 18.2822 17.8704 17.8919C18.8126 17.5017 19.8494 17.3996 20.8496 17.5985C21.8498 17.7975 22.7686 18.2886 23.4897 19.0097C24.2108 19.7308 24.7019 20.6495 24.9008 21.6498C25.0998 22.65 24.9977 23.6867 24.6074 24.6289C24.2171 25.5711 23.5563 26.3764 22.7083 26.943C21.8604 27.5095 20.8635 27.8119 19.8437 27.8119C18.4766 27.8104 17.166 27.2666 16.1993 26.3C15.2327 25.3333 14.689 24.0227 14.6874 22.6557ZM39.3132 34.2221C39.1049 34.3579 38.8513 34.4054 38.608 34.3542C38.3647 34.303 38.1518 34.1573 38.0159 33.949C37.1657 32.639 36.001 31.5627 34.6282 30.8182C33.2553 30.0738 31.7179 29.6848 30.1562 29.6869C29.9075 29.6869 29.6691 29.5882 29.4932 29.4123C29.3174 29.2365 29.2187 28.9981 29.2187 28.7494C29.2187 28.5008 29.3174 28.2623 29.4932 28.0865C29.6691 27.9107 29.9075 27.8119 30.1562 27.8119C30.9155 27.8112 31.6653 27.6428 32.352 27.3187C33.0387 26.9946 33.6454 26.5229 34.1286 25.9371C34.6119 25.3514 34.9598 24.6662 35.1475 23.9304C35.3352 23.1947 35.3581 22.4265 35.2146 21.6809C35.071 20.9352 34.7645 20.2305 34.317 19.617C33.8695 19.0035 33.2921 18.4965 32.6259 18.1321C31.9597 17.7676 31.2213 17.5548 30.4633 17.5089C29.7054 17.4629 28.9466 17.585 28.2413 17.8662C28.1263 17.9159 28.0025 17.9421 27.8772 17.9432C27.752 17.9442 27.6277 17.9202 27.5119 17.8724C27.3961 17.8246 27.291 17.7541 27.2029 17.6651C27.1148 17.576 27.0454 17.4702 26.9989 17.3539C26.9523 17.2376 26.9296 17.1131 26.932 16.9878C26.9344 16.8626 26.9618 16.739 27.0128 16.6246C27.0637 16.5101 27.1371 16.407 27.2285 16.3214C27.32 16.2357 27.4277 16.1693 27.5452 16.126C29.1594 15.4822 30.9549 15.4591 32.5851 16.061C34.2154 16.6629 35.5651 17.8472 36.3737 19.3855C37.1823 20.9237 37.3925 22.707 36.9639 24.3911C36.5353 26.0753 35.4982 27.5411 34.0526 28.5057C36.3255 29.3434 38.2666 30.8935 39.5862 32.9248C39.722 33.1331 39.7695 33.3867 39.7183 33.63C39.6671 33.8733 39.5214 34.0863 39.3132 34.2221Z" fill="#00BDDE"/>
</svg>
