<svg width="70" height="70" viewBox="0 0 70 70" fill="none" xmlns="http://www.w3.org/2000/svg">
<rect width="70" height="70" rx="35" fill="#00BDDE" fill-opacity="0.15"/>
<path d="M52.5 43.7504H51.25V24.0472L52.7609 23.7222C52.9249 23.6915 53.0811 23.6282 53.2202 23.5361C53.3594 23.4441 53.4787 23.3251 53.5711 23.1862C53.6636 23.0473 53.7273 22.8913 53.7585 22.7274C53.7897 22.5635 53.7877 22.395 53.7528 22.2318C53.7179 22.0687 53.6506 21.9142 53.555 21.7775C53.4594 21.6407 53.3374 21.5245 53.1962 21.4356C53.055 21.3468 52.8974 21.2871 52.7327 21.2601C52.5681 21.2331 52.3997 21.2394 52.2375 21.2785L17.2375 28.7785C16.936 28.8435 16.6692 29.0178 16.4884 29.2677C16.3076 29.5177 16.2256 29.8256 16.2582 30.1324C16.2907 30.4391 16.4356 30.723 16.6648 30.9293C16.8941 31.1357 17.1915 31.2501 17.5 31.2504C17.5888 31.2502 17.6773 31.2408 17.7641 31.2222L18.75 31.0113V43.7504H17.5C17.1685 43.7504 16.8505 43.8821 16.6161 44.1165C16.3817 44.3509 16.25 44.6688 16.25 45.0004C16.25 45.3319 16.3817 45.6498 16.6161 45.8842C16.8505 46.1187 17.1685 46.2504 17.5 46.2504H52.5C52.8315 46.2504 53.1495 46.1187 53.3839 45.8842C53.6183 45.6498 53.75 45.3319 53.75 45.0004C53.75 44.6688 53.6183 44.3509 53.3839 44.1165C53.1495 43.8821 52.8315 43.7504 52.5 43.7504ZM21.25 30.4691L48.75 24.5832V43.7504H45V35.0004C45 34.6688 44.8683 34.3509 44.6339 34.1165C44.3995 33.8821 44.0815 33.7504 43.75 33.7504H26.25C25.9185 33.7504 25.6005 33.8821 25.3661 34.1165C25.1317 34.3509 25 34.6688 25 35.0004V43.7504H21.25V30.4691ZM42.5 38.7504H27.5V36.2504H42.5V38.7504ZM27.5 41.2504H42.5V43.7504H27.5V41.2504Z" fill="#003040"/>
</svg>
