<svg width="70" height="70" viewBox="0 0 70 70" fill="none" xmlns="http://www.w3.org/2000/svg">
<rect width="70" height="70" rx="35" fill="#00BDDE" fill-opacity="0.15"/>
<path d="M19.375 35C19.0435 35 18.7255 34.8683 18.4911 34.6339C18.2567 34.3995 18.125 34.0815 18.125 33.75C18.125 33.4185 18.2567 33.1005 18.4911 32.8661C18.7255 32.6317 19.0435 32.5 19.375 32.5H23.75C24.0815 32.5 24.3995 32.3683 24.6339 32.1339C24.8683 31.8995 25 31.5815 25 31.25C25 30.9185 24.8683 30.6005 24.6339 30.3661C24.3995 30.1317 24.0815 30 23.75 30H21.25C20.2554 30 19.3016 29.6049 18.5983 28.9017C17.8951 28.1984 17.5 27.2446 17.5 26.25C17.5 25.2554 17.8951 24.3016 18.5983 23.5983C19.3016 22.8951 20.2554 22.5 21.25 22.5C21.25 22.1685 21.3817 21.8505 21.6161 21.6161C21.8505 21.3817 22.1685 21.25 22.5 21.25C22.8315 21.25 23.1495 21.3817 23.3839 21.6161C23.6183 21.8505 23.75 22.1685 23.75 22.5H25C25.3315 22.5 25.6495 22.6317 25.8839 22.8661C26.1183 23.1005 26.25 23.4185 26.25 23.75C26.25 24.0815 26.1183 24.3995 25.8839 24.6339C25.6495 24.8683 25.3315 25 25 25H21.25C20.9185 25 20.6005 25.1317 20.3661 25.3661C20.1317 25.6005 20 25.9185 20 26.25C20 26.5815 20.1317 26.8995 20.3661 27.1339C20.6005 27.3683 20.9185 27.5 21.25 27.5H23.75C24.7446 27.5 25.6984 27.8951 26.4017 28.5983C27.1049 29.3016 27.5 30.2554 27.5 31.25C27.5 32.2446 27.1049 33.1984 26.4017 33.9017C25.6984 34.6049 24.7446 35 23.75 35C23.75 35.3315 23.6183 35.6495 23.3839 35.8839C23.1495 36.1183 22.8315 36.25 22.5 36.25C22.1685 36.25 21.8505 36.1183 21.6161 35.8839C21.3817 35.6495 21.25 35.3315 21.25 35H19.375ZM51.25 23.75V45C51.25 45.663 50.9866 46.2989 50.5178 46.7678C50.0489 47.2366 49.413 47.5 48.75 47.5H21.25C20.587 47.5 19.9511 47.2366 19.4822 46.7678C19.0134 46.2989 18.75 45.663 18.75 45V38.75C18.75 38.4185 18.8817 38.1005 19.1161 37.8661C19.3505 37.6317 19.6685 37.5 20 37.5C20.3315 37.5 20.6495 37.6317 20.8839 37.8661C21.1183 38.1005 21.25 38.4185 21.25 38.75V45H40V40H27.5C27.1685 40 26.8505 39.8683 26.6161 39.6339C26.3817 39.3995 26.25 39.0815 26.25 38.75C26.25 38.4185 26.3817 38.1005 26.6161 37.8661C26.8505 37.6317 27.1685 37.5 27.5 37.5H40V32.5H31.25C30.9185 32.5 30.6005 32.3683 30.3661 32.1339C30.1317 31.8995 30 31.5815 30 31.25C30 30.9185 30.1317 30.6005 30.3661 30.3661C30.6005 30.1317 30.9185 30 31.25 30H48.75V25H30C29.6685 25 29.3505 24.8683 29.1161 24.6339C28.8817 24.3995 28.75 24.0815 28.75 23.75C28.75 23.4185 28.8817 23.1005 29.1161 22.8661C29.3505 22.6317 29.6685 22.5 30 22.5H50C50.3315 22.5 50.6495 22.6317 50.8839 22.8661C51.1183 23.1005 51.25 23.4185 51.25 23.75ZM42.5 37.5H48.75V32.5H42.5V37.5ZM48.75 45V40H42.5V45H48.75Z" fill="#003040"/>
</svg>
