<svg width="50" height="50" viewBox="0 0 50 50" fill="none" xmlns="http://www.w3.org/2000/svg">
<rect width="50" height="50" rx="25" fill="white"/>
<path d="M25 12.8125C18.6918 12.8125 13.75 15.6953 13.75 19.375V30.625C13.75 34.3047 18.6918 37.1875 25 37.1875C31.3082 37.1875 36.25 34.3047 36.25 30.625V19.375C36.25 15.6953 31.3082 12.8125 25 12.8125ZM34.375 25C34.375 26.1273 33.4516 27.277 31.8426 28.1547C30.0309 29.1426 27.6004 29.6875 25 29.6875C22.3996 29.6875 19.9691 29.1426 18.1574 28.1547C16.5484 27.277 15.625 26.1273 15.625 25V23.05C17.6242 24.8078 21.0426 25.9375 25 25.9375C28.9574 25.9375 32.3758 24.8031 34.375 23.05V25ZM18.1574 16.2203C19.9691 15.2324 22.3996 14.6875 25 14.6875C27.6004 14.6875 30.0309 15.2324 31.8426 16.2203C33.4516 17.098 34.375 18.2477 34.375 19.375C34.375 20.5023 33.4516 21.652 31.8426 22.5297C30.0309 23.5176 27.6004 24.0625 25 24.0625C22.3996 24.0625 19.9691 23.5176 18.1574 22.5297C16.5484 21.652 15.625 20.5023 15.625 19.375C15.625 18.2477 16.5484 17.098 18.1574 16.2203ZM31.8426 33.7797C30.0309 34.7676 27.6004 35.3125 25 35.3125C22.3996 35.3125 19.9691 34.7676 18.1574 33.7797C16.5484 32.902 15.625 31.7523 15.625 30.625V28.675C17.6242 30.4328 21.0426 31.5625 25 31.5625C28.9574 31.5625 32.3758 30.4281 34.375 28.675V30.625C34.375 31.7523 33.4516 32.902 31.8426 33.7797Z" fill="#003040"/>
</svg>
