<svg width="50" height="50" viewBox="0 0 50 50" fill="none" xmlns="http://www.w3.org/2000/svg">
<rect width="50" height="50" rx="25" fill="white"/>
<path d="M37.061 34.8439C35.2763 31.7584 32.5259 29.5459 29.3161 28.4971C30.9038 27.5519 32.1374 26.1117 32.8273 24.3976C33.5173 22.6835 33.6255 20.7904 33.1353 19.0088C32.6452 17.2273 31.5838 15.6559 30.1141 14.536C28.6445 13.416 26.8478 12.8095 25.0001 12.8095C23.1524 12.8095 21.3557 13.416 19.8861 14.536C18.4164 15.6559 17.355 17.2273 16.8649 19.0088C16.3747 20.7904 16.4829 22.6835 17.1729 24.3976C17.8629 26.1117 19.0964 27.5519 20.6841 28.4971C17.4743 29.5447 14.7239 31.7572 12.9392 34.8439C12.8737 34.9507 12.8303 35.0694 12.8115 35.1932C12.7927 35.317 12.7988 35.4432 12.8296 35.5646C12.8604 35.6859 12.9152 35.7999 12.9907 35.8997C13.0663 35.9996 13.161 36.0833 13.2694 36.1459C13.3778 36.2085 13.4977 36.2488 13.6219 36.2643C13.7461 36.2799 13.8722 36.2704 13.9927 36.2364C14.1132 36.2024 14.2257 36.1447 14.3235 36.0665C14.4213 35.9884 14.5025 35.8915 14.5622 35.7814C16.77 31.9658 20.6724 29.6877 25.0001 29.6877C29.3278 29.6877 33.2302 31.9658 35.438 35.7814C35.4977 35.8915 35.5789 35.9884 35.6767 36.0665C35.7745 36.1447 35.887 36.2024 36.0075 36.2364C36.128 36.2704 36.2541 36.2799 36.3783 36.2643C36.5025 36.2488 36.6224 36.2085 36.7308 36.1459C36.8392 36.0833 36.934 35.9996 37.0095 35.8997C37.085 35.7999 37.1398 35.6859 37.1706 35.5646C37.2014 35.4432 37.2075 35.317 37.1887 35.1932C37.1699 35.0694 37.1265 34.9507 37.061 34.8439ZM18.4376 21.2502C18.4376 19.9523 18.8225 18.6835 19.5436 17.6043C20.2647 16.5251 21.2896 15.6839 22.4887 15.1872C23.6879 14.6905 25.0074 14.5606 26.2804 14.8138C27.5534 15.067 28.7227 15.692 29.6405 16.6098C30.5583 17.5276 31.1833 18.6969 31.4365 19.9699C31.6897 21.2429 31.5598 22.5624 31.0631 23.7616C30.5664 24.9607 29.7252 25.9856 28.646 26.7067C27.5668 27.4278 26.298 27.8127 25.0001 27.8127C23.2602 27.8108 21.5921 27.1188 20.3618 25.8885C19.1315 24.6582 18.4395 22.9901 18.4376 21.2502Z" fill="#003040"/>
</svg>
